<?xml version="1.0" standalone="no"?>
<!DOCTYPE svg PUBLIC "-//W3C//DTD SVG 20010904//EN"
 "http://www.w3.org/TR/2001/REC-SVG-20010904/DTD/svg10.dtd">
<svg version="1.0" xmlns="http://www.w3.org/2000/svg"
 width="320.000000pt" height="320.000000pt" viewBox="0 0 320.000000 320.000000"
 preserveAspectRatio="xMidYMid meet">
<metadata>
Created by potrace 1.11, written by Peter Selinger 2001-2013
</metadata>
<g transform="translate(0.000000,320.000000) scale(0.100000,-0.100000)"
fill="#000000" stroke="none">
<path d="M1386 3174 c-3 -7 -14 -10 -24 -7 -11 2 -30 -1 -42 -7 -18 -10 -21
-10 -14 2 6 10 5 11 -8 1 -8 -7 -18 -10 -21 -6 -4 3 -7 1 -7 -7 0 -10 -3 -10
-15 0 -9 7 -15 8 -15 2 0 -5 -20 -13 -45 -16 -24 -4 -47 -12 -51 -18 -4 -7 -9
-5 -15 3 -6 10 -9 11 -9 2 0 -7 -6 -13 -14 -13 -8 0 -17 -6 -19 -12 -4 -10 -8
-9 -16 2 -7 10 -11 11 -11 2 0 -6 -20 -17 -44 -24 -25 -6 -43 -15 -40 -20 5
-8 -10 -12 -33 -9 -7 1 -13 -2 -13 -7 0 -6 -11 -13 -25 -16 -14 -4 -25 -11
-25 -16 0 -5 -9 -7 -20 -5 -12 2 -23 -2 -27 -10 -3 -8 -9 -12 -14 -9 -5 3 -9
0 -9 -5 0 -6 -6 -11 -13 -11 -7 0 -23 -9 -35 -20 -12 -12 -22 -18 -22 -15 0 3
-10 -3 -22 -14 -11 -11 -25 -18 -30 -15 -4 3 -8 -2 -8 -11 0 -9 -4 -14 -8 -11
-5 3 -25 -10 -45 -28 -21 -19 -37 -31 -37 -28 0 3 -11 -7 -25 -22 -13 -14 -29
-26 -35 -26 -6 0 -8 -4 -5 -10 3 -5 -2 -10 -11 -10 -10 0 -15 -3 -11 -6 7 -7
-41 -54 -55 -54 -5 0 -6 -4 -3 -10 3 -5 -2 -10 -11 -10 -10 0 -15 -3 -11 -6 5
-6 -39 -60 -76 -93 -9 -8 -17 -21 -17 -28 0 -7 -5 -13 -11 -13 -5 0 -8 -4 -5
-9 3 -5 -1 -12 -10 -15 -8 -3 -13 -10 -10 -15 3 -5 -1 -12 -10 -15 -8 -3 -13
-10 -10 -15 3 -5 -1 -11 -9 -15 -8 -3 -15 -10 -15 -17 0 -6 -9 -22 -20 -36
-11 -14 -17 -29 -14 -34 3 -5 0 -9 -5 -9 -6 0 -11 -7 -11 -15 0 -8 -5 -15 -11
-15 -5 0 -8 -4 -5 -9 4 -5 2 -11 -3 -13 -5 -1 -11 -12 -13 -23 -1 -11 -6 -23
-11 -26 -4 -3 -10 -16 -12 -29 -2 -13 -8 -26 -13 -29 -5 -3 -10 -14 -10 -23
-4 -41 -6 -47 -13 -43 -4 3 -9 -2 -13 -10 -3 -8 -1 -15 5 -15 5 0 3 -10 -6
-23 -8 -13 -12 -27 -8 -30 3 -4 1 -7 -5 -7 -7 0 -12 -9 -12 -21 0 -11 -5 -30
-11 -41 -9 -16 -8 -19 3 -12 11 6 11 5 -1 -9 -7 -9 -11 -26 -8 -36 3 -11 0
-22 -5 -23 -5 -2 -12 -34 -15 -71 -3 -37 -9 -67 -12 -67 -4 0 -7 -9 -7 -20 0
-11 4 -20 9 -20 5 0 6 -8 1 -17 -10 -25 -12 -213 -1 -213 4 0 5 -5 1 -12 -11
-17 -11 -58 -1 -58 5 0 7 -18 5 -40 -2 -27 1 -41 10 -45 11 -4 12 -8 2 -20 -9
-10 -9 -15 -1 -15 6 0 11 -15 11 -33 0 -18 6 -39 12 -46 8 -9 9 -12 1 -7 -7 4
-9 -1 -6 -14 3 -11 9 -18 13 -15 5 3 6 -3 3 -13 -2 -9 3 -31 11 -47 8 -15 13
-32 10 -37 -3 -4 0 -8 7 -8 7 0 9 -3 6 -6 -3 -4 -1 -16 5 -28 7 -11 13 -30 15
-41 2 -11 8 -21 13 -23 5 -2 7 -9 4 -17 -3 -7 0 -16 5 -20 6 -3 9 -11 6 -16
-4 -5 -1 -9 4 -9 6 0 11 -9 11 -20 0 -11 5 -20 12 -20 6 0 8 -3 5 -7 -4 -3 1
-12 11 -20 10 -9 11 -12 2 -7 -8 4 -5 -4 7 -18 13 -13 23 -28 23 -33 0 -5 8
-17 17 -28 13 -15 14 -19 3 -13 -9 4 -8 2 2 -7 10 -8 18 -22 18 -31 0 -9 7
-16 15 -16 8 0 17 -11 21 -25 3 -14 10 -25 15 -25 5 0 9 -5 9 -11 0 -6 13 -24
30 -39 16 -15 30 -31 30 -34 0 -3 23 -29 50 -57 27 -28 50 -55 50 -60 0 -5 5
-9 10 -9 6 0 24 -14 40 -30 16 -17 32 -30 35 -30 2 0 18 -14 33 -30 16 -17 33
-30 38 -30 8 0 29 -16 82 -60 6 -6 12 -8 12 -5 0 4 7 0 15 -7 34 -31 43 -36
49 -31 3 4 6 1 6 -6 0 -7 4 -9 10 -6 5 3 10 1 10 -6 0 -7 3 -9 6 -6 4 4 20 -3
35 -14 16 -11 29 -17 29 -13 0 4 10 -1 22 -12 14 -13 19 -14 14 -4 -6 12 -5
12 6 -1 7 -9 18 -14 24 -12 6 2 17 -3 23 -11 7 -8 20 -12 28 -9 11 4 14 2 9
-5 -5 -8 1 -12 18 -12 14 0 26 -6 26 -12 0 -9 4 -8 10 2 6 10 10 11 10 3 0 -7
7 -13 15 -13 8 0 15 -6 15 -12 0 -10 3 -9 9 1 6 9 11 10 15 2 4 -6 20 -11 36
-11 16 0 32 -5 35 -11 4 -6 13 -8 20 -5 8 3 16 0 19 -7 3 -9 5 -8 5 1 1 9 6
10 20 3 10 -6 21 -7 25 -4 3 3 6 2 6 -4 0 -6 14 -10 30 -9 17 1 30 -1 30 -6 0
-4 5 -8 11 -8 5 0 7 4 4 10 -3 6 1 7 9 4 9 -3 13 -10 10 -15 -3 -5 6 -5 20 1
14 5 26 6 26 2 0 -4 9 -8 20 -8 11 0 20 4 20 8 0 5 8 5 18 0 21 -11 162 -10
180 1 7 5 12 3 12 -3 0 -6 5 -8 10 -5 6 4 41 9 78 12 37 2 71 8 77 13 5 4 18
6 28 5 9 -2 17 0 17 4 0 4 10 7 23 6 12 -1 25 3 29 9 5 7 8 6 8 -3 0 -10 3
-11 13 -2 8 6 22 12 33 14 10 1 25 6 32 10 6 5 17 5 22 2 6 -3 10 -2 10 3 0 5
15 13 33 17 17 4 34 9 37 10 32 13 47 21 58 34 8 9 11 10 7 4 -3 -7 -1 -13 4
-13 6 0 11 5 11 10 0 6 9 10 20 10 11 0 20 4 20 9 0 5 14 12 30 16 17 4 30 11
30 16 0 5 9 9 20 9 11 0 20 4 20 9 0 5 10 11 23 15 12 3 34 17 49 31 15 14 32
25 38 25 5 0 10 5 10 12 0 6 3 8 7 5 3 -4 17 5 30 19 12 14 23 22 23 18 0 -4
16 9 36 29 20 20 41 34 45 31 5 -3 9 -1 9 4 0 4 37 47 83 93 45 47 93 100 107
118 14 18 31 39 38 47 7 8 10 14 6 14 -4 0 2 9 14 21 12 11 20 24 17 30 -4 5
1 9 10 9 9 0 13 5 10 10 -3 6 -1 10 5 10 6 0 9 4 5 9 -3 6 2 14 11 19 9 5 16
12 16 15 0 19 12 47 20 47 5 0 6 5 3 10 -3 6 -1 10 5 10 6 0 8 5 5 10 -3 6 -1
10 4 10 6 0 11 9 11 20 0 11 5 20 10 20 6 0 10 6 10 14 0 8 5 27 11 43 6 15
10 29 10 30 0 2 8 19 19 38 13 24 16 35 7 35 -7 0 -4 7 7 15 10 7 15 18 12 24
-4 5 -2 12 3 16 6 3 8 12 4 20 -3 8 1 15 8 15 7 0 9 3 6 7 -4 3 -2 12 4 20 9
10 8 13 0 13 -7 0 -9 5 -4 12 19 31 30 77 19 82 -7 3 -7 8 3 14 7 5 13 21 12
36 -2 45 3 103 13 126 3 8 7 57 8 107 2 71 0 94 -11 98 -11 4 -11 8 -1 20 10
12 10 15 0 15 -9 0 -10 3 -1 13 8 10 7 17 -1 25 -9 9 -9 12 3 12 10 0 11 2 2
8 -7 4 -14 30 -16 58 -2 28 -7 56 -11 62 -4 7 -5 16 -1 21 3 5 -2 17 -11 25
-9 9 -11 16 -4 16 6 0 8 5 3 13 -4 6 -9 23 -11 37 -2 13 -6 27 -10 30 -4 3 -9
16 -11 30 -1 14 -8 28 -13 31 -6 4 -8 14 -5 23 4 9 2 16 -4 16 -6 0 -8 4 -5 9
3 5 -1 11 -9 15 -8 3 -12 12 -9 21 4 9 -2 25 -12 37 -12 14 -14 18 -4 13 11
-6 10 -3 -3 12 -9 11 -14 23 -10 26 3 4 1 7 -6 7 -7 0 -9 5 -6 10 3 6 1 10 -4
10 -6 0 -11 9 -11 20 0 11 -3 20 -7 20 -10 0 -33 49 -33 68 0 7 -4 10 -10 7
-5 -3 -10 0 -10 8 0 7 -9 23 -19 34 -11 12 -17 23 -14 26 8 9 -23 37 -32 29
-5 -4 -5 -2 -1 5 3 6 -2 16 -11 22 -10 6 -14 11 -9 11 5 0 -1 8 -12 19 -12 10
-19 21 -15 25 3 3 -2 6 -12 6 -10 0 -15 3 -12 7 4 3 -7 19 -23 35 -17 15 -30
35 -30 43 0 9 -6 12 -15 9 -10 -4 -15 0 -15 12 0 9 -3 15 -6 11 -7 -6 -54 41
-54 54 0 5 -6 9 -14 9 -8 0 -17 9 -21 19 -4 13 -13 18 -25 16 -14 -3 -17 1
-13 12 4 11 2 14 -5 9 -7 -4 -15 -1 -18 8 -3 9 -10 14 -14 11 -4 -3 -10 2 -14
10 -3 8 -12 15 -21 15 -8 0 -15 7 -15 16 0 8 -4 12 -10 9 -5 -3 -10 -3 -10 2
0 4 -18 17 -40 27 -22 11 -40 24 -40 29 0 6 -3 7 -6 4 -4 -4 -19 2 -34 13 -16
11 -33 20 -39 20 -6 0 -11 5 -11 11 0 5 -4 8 -9 4 -5 -3 -15 0 -23 7 -7 7 -22
15 -33 16 -11 2 -23 8 -26 14 -4 5 -18 11 -32 11 -14 1 -23 5 -20 10 2 4 -5 7
-17 7 -14 0 -19 4 -14 13 5 9 4 9 -5 1 -10 -9 -19 -9 -39 2 -14 7 -29 11 -34
8 -4 -3 -8 0 -8 5 0 6 -13 11 -30 11 -16 0 -30 4 -30 9 0 5 -8 8 -17 7 -10 -2
-21 2 -25 8 -5 8 -8 7 -8 -2 0 -10 -5 -10 -20 -2 -11 6 -20 8 -20 5 0 -3 -13
1 -30 10 -16 9 -30 12 -30 7 0 -5 -11 -7 -25 -4 -14 2 -25 9 -25 14 0 5 -6 6
-12 1 -17 -10 -38 -13 -38 -5 0 6 -247 9 -260 3 -15 -7 -40 -8 -40 -2 0 12
-39 7 -44 -5z"/>
</g>
</svg>
