<?xml version="1.0" standalone="no"?>
<!DOCTYPE svg PUBLIC "-//W3C//DTD SVG 20010904//EN"
 "http://www.w3.org/TR/2001/REC-SVG-20010904/DTD/svg10.dtd">
<svg version="1.0" xmlns="http://www.w3.org/2000/svg"
 width="1200.000000pt" height="1200.000000pt" viewBox="0 0 1200.000000 1200.000000"
 preserveAspectRatio="xMidYMid meet">

<g transform="translate(0.000000,1200.000000) scale(0.100000,-0.100000)"
fill="#000000" stroke="none">
<path d="M5417 11994 c-3 -4 -72 -8 -152 -9 -81 -2 -149 -6 -152 -9 -10 -9 3
-18 39 -26 l33 -8 -42 -1 c-23 -1 -45 3 -48 9 -8 13 -142 5 -160 -10 -8 -6
-43 -14 -77 -17 -35 -3 -72 -12 -83 -19 -12 -9 -48 -14 -96 -14 -59 0 -78 -3
-83 -15 -4 -11 -20 -15 -54 -15 -34 0 -57 -6 -75 -20 -16 -12 -40 -20 -65 -20
-22 0 -42 -5 -44 -11 -2 -5 -23 -13 -48 -16 -24 -4 -53 -15 -65 -25 -15 -14
-28 -17 -56 -13 -28 5 -38 3 -42 -9 -4 -10 -19 -16 -40 -16 -19 0 -40 -7 -47
-15 -7 -8 -22 -15 -34 -15 -12 0 -38 -9 -59 -20 -20 -11 -47 -20 -59 -20 -13
0 -32 -7 -42 -15 -11 -8 -34 -15 -52 -15 -17 0 -37 -7 -44 -15 -7 -8 -20 -15
-30 -15 -10 0 -23 -6 -29 -14 -7 -8 -27 -17 -46 -20 -19 -4 -35 -11 -35 -16 0
-4 -18 -11 -39 -15 -22 -4 -42 -13 -45 -21 -3 -8 -19 -14 -36 -14 -16 0 -30
-5 -30 -11 0 -5 -15 -16 -34 -24 -19 -8 -37 -19 -41 -25 -3 -5 -17 -7 -30 -4
-17 4 -26 0 -35 -15 -6 -12 -20 -21 -31 -21 -11 0 -22 -7 -25 -15 -4 -8 -17
-15 -30 -15 -12 0 -43 -13 -67 -30 -25 -16 -48 -30 -52 -30 -4 0 -18 -9 -32
-20 -14 -11 -32 -20 -40 -20 -8 0 -21 -7 -29 -15 -9 -8 -24 -15 -35 -15 -10 0
-19 -7 -19 -15 0 -9 -12 -18 -30 -21 -30 -7 -38 -18 -20 -29 19 -12 0 -26 -20
-15 -28 15 -60 12 -60 -5 0 -8 -6 -15 -14 -15 -8 0 -16 -7 -20 -15 -3 -8 -14
-15 -25 -15 -11 0 -26 -7 -35 -15 -8 -8 -19 -15 -25 -15 -6 0 -16 -9 -23 -20
-7 -11 -21 -20 -31 -20 -10 0 -30 -13 -46 -29 -15 -16 -39 -32 -51 -36 l-23
-7 24 -19 c22 -16 22 -18 6 -25 -10 -4 -29 -1 -43 6 -20 11 -26 11 -37 -2 -19
-24 -103 -88 -114 -88 -6 0 -13 -7 -17 -15 -3 -8 -10 -15 -16 -15 -6 0 -23
-13 -38 -28 -15 -16 -43 -39 -62 -53 -34 -23 -62 -47 -137 -117 -19 -17 -46
-35 -59 -38 -13 -3 -24 -12 -24 -20 0 -8 -4 -14 -10 -14 -5 0 -40 -29 -77 -65
-37 -36 -71 -65 -75 -65 -5 0 -8 -7 -8 -15 0 -8 -7 -15 -15 -15 -8 0 -15 -6
-15 -14 0 -7 -10 -20 -22 -29 -40 -26 -108 -97 -108 -112 0 -8 -6 -15 -14 -15
-19 0 -196 -179 -196 -199 0 -9 -23 -36 -50 -60 -28 -24 -50 -50 -50 -57 0 -8
-6 -14 -12 -14 -7 0 -24 -16 -38 -36 -14 -19 -40 -50 -58 -68 -17 -18 -32 -38
-32 -43 0 -6 -7 -13 -15 -17 -8 -3 -15 -11 -15 -18 0 -7 -16 -30 -35 -51 -19
-21 -35 -42 -35 -48 0 -5 -7 -9 -15 -9 -18 0 -20 -41 -4 -57 7 -7 9 -20 5 -30
-7 -16 -9 -16 -26 7 -18 24 -19 24 -26 5 -4 -11 -20 -32 -36 -47 -15 -15 -28
-34 -28 -42 0 -8 -10 -22 -21 -30 -21 -15 -22 -35 -4 -78 4 -10 3 -18 -3 -18
-5 0 -12 9 -15 20 -8 31 -25 24 -29 -12 -2 -24 -10 -35 -36 -47 -30 -15 -33
-19 -28 -53 5 -32 4 -36 -14 -31 -13 4 -20 0 -20 -9 0 -8 -9 -23 -20 -33 -11
-10 -20 -26 -20 -35 0 -10 -7 -20 -15 -24 -8 -3 -15 -14 -15 -24 0 -11 -16
-40 -35 -65 -19 -25 -35 -52 -35 -60 0 -8 -7 -20 -15 -27 -8 -7 -15 -23 -15
-35 0 -12 -9 -34 -20 -48 -11 -14 -20 -32 -20 -41 0 -9 -6 -16 -12 -16 -14 -1
-42 -55 -54 -103 -3 -16 -13 -31 -20 -34 -8 -3 -14 -18 -14 -34 0 -17 -6 -32
-15 -35 -10 -4 -15 -20 -15 -45 0 -27 -4 -39 -14 -39 -8 0 -24 -21 -36 -47
-12 -27 -30 -66 -41 -89 -10 -23 -19 -53 -19 -66 0 -14 -7 -31 -15 -38 -8 -7
-15 -24 -15 -39 0 -14 -7 -35 -15 -45 -8 -11 -15 -27 -15 -37 0 -9 -9 -28 -20
-42 -11 -14 -20 -40 -20 -60 0 -19 -7 -40 -15 -47 -8 -7 -18 -30 -21 -51 -4
-21 -13 -44 -20 -50 -8 -6 -14 -27 -14 -45 0 -34 2 -40 35 -102 12 -24 14 -37
7 -44 -8 -8 -13 -3 -18 16 -3 14 -10 26 -14 26 -5 0 -12 9 -15 20 -11 35 -25
21 -25 -25 0 -32 -6 -51 -20 -65 -15 -15 -20 -33 -20 -69 0 -31 -5 -53 -15
-61 -10 -8 -15 -31 -15 -69 0 -37 -7 -69 -20 -94 -14 -26 -20 -56 -20 -105 0
-41 -5 -75 -14 -87 -7 -11 -15 -48 -18 -82 -3 -39 -10 -69 -21 -81 -14 -15
-17 -40 -17 -141 0 -90 -4 -132 -15 -156 -14 -28 -15 -111 -11 -691 5 -788 8
-863 30 -876 13 -8 16 -24 15 -80 -1 -50 2 -72 12 -79 9 -5 15 -35 18 -91 2
-49 9 -91 17 -103 8 -11 14 -46 14 -85 1 -41 6 -72 15 -84 8 -11 15 -37 15
-59 0 -24 8 -49 20 -64 14 -18 20 -41 20 -77 1 -47 2 -49 15 -31 8 11 18 25
23 30 4 6 11 18 15 28 4 10 11 16 16 13 11 -7 2 -46 -10 -46 -5 0 -9 -9 -9
-19 0 -11 -4 -23 -10 -26 -16 -10 -12 -94 5 -111 8 -9 15 -30 15 -48 0 -19 7
-39 15 -46 8 -7 15 -29 15 -50 0 -23 5 -40 14 -43 8 -3 17 -21 21 -39 4 -18
14 -42 21 -53 8 -11 14 -32 14 -48 0 -16 7 -35 15 -43 8 -9 15 -31 15 -50 0
-20 7 -42 15 -50 8 -9 15 -24 15 -33 0 -10 7 -24 15 -31 8 -7 15 -21 15 -31 0
-11 9 -27 20 -36 12 -11 20 -30 20 -50 0 -23 5 -33 15 -33 10 0 15 -10 15 -34
0 -19 4 -37 9 -41 11 -6 61 -108 61 -123 0 -6 7 -12 15 -16 8 -3 15 -14 15
-24 0 -11 7 -25 15 -32 8 -7 15 -25 15 -41 0 -16 4 -29 9 -29 5 0 19 -21 32
-48 12 -26 31 -55 41 -65 10 -10 18 -29 18 -42 0 -14 4 -25 9 -25 5 0 22 -27
38 -60 19 -41 33 -59 43 -57 12 3 14 -4 12 -35 -3 -28 0 -38 10 -38 20 0 44
-29 52 -62 3 -16 11 -28 16 -28 6 0 10 -9 10 -20 0 -10 9 -24 20 -30 11 -6 20
-18 20 -28 0 -16 40 -62 54 -62 3 0 6 9 6 20 0 11 5 20 10 20 14 0 13 -33 -1
-47 -13 -13 -5 -43 11 -43 5 0 10 7 10 15 0 8 7 15 15 15 17 0 21 -35 5 -45
-16 -10 -12 -45 5 -45 8 0 15 -5 15 -11 0 -6 16 -25 35 -43 19 -19 35 -43 35
-55 0 -12 6 -21 15 -21 8 0 15 -7 15 -15 0 -9 7 -18 15 -21 8 -4 15 -12 15
-20 0 -8 6 -14 14 -14 8 0 17 -13 21 -29 3 -16 13 -32 21 -35 8 -3 14 -12 14
-21 0 -8 6 -15 14 -15 7 0 21 -11 30 -24 8 -14 31 -40 50 -58 19 -18 38 -46
41 -61 4 -15 13 -27 20 -27 7 0 21 -12 30 -27 10 -14 46 -54 81 -88 35 -34 64
-66 64 -71 0 -5 16 -20 35 -34 19 -14 35 -31 35 -37 0 -7 7 -13 15 -13 8 0 15
-4 15 -9 0 -13 207 -221 219 -221 5 0 13 -9 16 -20 4 -13 15 -20 31 -20 13 0
24 -4 24 -9 0 -9 46 -61 54 -61 3 0 25 -20 50 -44 25 -23 59 -49 75 -56 17 -7
31 -16 31 -21 0 -14 33 -49 47 -49 7 0 13 -7 13 -15 0 -8 8 -15 18 -15 10 0
33 -16 52 -35 19 -19 41 -35 48 -35 6 0 12 -7 12 -16 0 -16 11 -16 67 1 28 9
31 -12 6 -31 -17 -12 -17 -13 2 -20 11 -4 32 -20 47 -36 14 -15 38 -30 52 -34
14 -3 26 -12 26 -20 0 -8 7 -14 15 -14 9 0 18 -7 21 -15 4 -8 14 -15 24 -15
10 0 26 -7 35 -16 9 -9 25 -14 35 -11 17 4 19 1 14 -20 -6 -23 -4 -25 17 -21
13 3 33 9 43 13 17 7 18 5 12 -20 l-7 -28 42 7 c41 7 42 6 26 -12 -20 -22 -13
-32 20 -32 13 0 23 -6 23 -14 0 -8 13 -17 29 -21 16 -3 35 -13 42 -21 6 -8 19
-14 29 -14 10 0 20 -7 24 -15 3 -8 15 -15 26 -15 11 0 23 -6 26 -14 3 -8 21
-17 40 -20 19 -4 34 -11 34 -16 0 -16 38 -21 59 -8 11 7 24 9 28 4 4 -4 0 -12
-10 -17 -26 -15 -20 -29 13 -29 18 0 33 -6 36 -15 4 -8 15 -15 25 -15 10 0 28
-9 39 -20 11 -11 28 -20 39 -20 10 0 24 -7 31 -15 7 -8 27 -17 46 -21 18 -3
38 -12 45 -20 6 -8 17 -14 25 -14 7 0 43 -16 81 -35 37 -19 80 -35 94 -35 15
0 32 -6 38 -14 6 -7 30 -16 53 -19 24 -3 44 -10 46 -16 2 -6 19 -13 39 -17 19
-4 37 -13 40 -20 3 -9 20 -14 43 -14 25 0 40 -5 44 -16 5 -12 14 -14 46 -9 22
4 40 3 40 -2 0 -15 57 -43 88 -43 17 0 32 -6 36 -15 3 -10 19 -15 47 -15 26 0
50 -7 66 -20 18 -14 41 -20 73 -20 28 0 52 -6 59 -14 7 -8 41 -15 89 -18 43
-3 90 -13 107 -22 17 -9 50 -16 75 -16 26 0 56 -7 69 -16 24 -17 95 -21 174
-9 38 5 40 5 23 -9 -34 -27 -8 -36 109 -36 77 0 129 -5 160 -15 39 -14 126
-15 683 -11 723 6 860 12 856 38 -2 15 9 16 87 15 88 -2 123 12 63 24 -16 4
23 4 87 1 98 -4 120 -2 140 12 17 11 45 16 100 16 59 0 78 3 83 15 3 9 18 15
38 15 18 0 50 9 71 20 20 11 54 20 74 20 21 0 47 7 57 15 11 8 32 15 48 15 15
0 46 9 68 21 26 14 49 19 65 15 18 -5 25 -2 25 9 0 11 11 15 39 15 22 0 46 7
55 15 8 8 21 15 28 15 7 0 30 9 51 20 20 11 49 20 64 20 16 0 37 7 47 15 11 8
32 15 47 15 14 0 51 14 82 30 31 17 63 30 72 30 8 0 20 9 27 20 9 14 24 20 49
20 24 0 39 5 43 15 3 9 18 15 35 15 16 0 31 6 34 14 3 8 19 17 36 21 16 3 35
13 42 21 6 8 19 12 28 9 21 -6 46 10 37 24 -4 6 -15 11 -24 11 -12 0 -13 3 -4
12 9 9 15 9 24 0 16 -16 43 -15 58 3 7 8 21 15 32 15 11 0 31 9 45 20 14 11
32 20 39 20 8 0 14 5 14 10 0 6 9 10 20 10 11 0 23 7 26 15 4 8 24 18 45 21
23 4 39 12 39 20 0 8 10 14 25 14 27 0 33 18 13 38 -9 9 -9 12 -1 12 7 0 15
-5 18 -10 4 -6 16 -8 28 -4 30 9 32 11 18 28 -16 19 3 30 28 16 31 -16 51 -12
51 10 0 11 7 20 15 20 8 0 15 5 15 10 0 6 11 10 24 10 14 0 31 7 40 15 8 8 19
15 25 15 6 0 15 9 21 20 6 12 21 20 35 20 15 0 25 6 25 14 0 8 9 18 20 21 11
3 20 10 20 15 0 4 12 11 27 15 l28 7 -25 18 c-23 17 -23 19 -7 26 10 4 29 1
41 -6 21 -11 27 -8 67 30 24 24 58 48 74 55 17 8 51 34 78 59 26 25 53 46 60
46 16 1 57 35 57 49 0 6 5 11 11 11 6 0 32 22 59 50 26 27 60 52 74 56 14 3
26 12 26 20 0 8 7 14 15 14 8 0 15 5 15 10 0 6 7 14 17 17 15 6 123 110 179
174 12 13 43 42 68 64 25 22 45 46 46 53 0 6 4 12 9 12 13 0 191 180 191 193
0 6 23 33 50 59 28 26 50 52 50 58 0 6 6 13 14 16 8 3 27 24 43 47 15 23 40
53 56 67 15 13 27 30 27 38 0 7 6 15 14 18 8 3 16 17 19 32 3 15 16 31 29 37
13 6 27 20 33 33 5 12 15 22 22 22 16 0 17 34 1 60 -10 15 -10 22 -1 31 10 10
15 6 23 -15 11 -30 30 -27 30 5 0 10 7 19 15 19 8 0 15 7 15 15 0 7 6 18 13
22 7 4 18 20 24 36 7 15 17 27 23 27 5 0 10 9 10 19 0 10 7 21 15 25 9 3 15
18 15 35 0 34 23 61 51 61 15 0 19 7 19 35 0 22 5 35 13 35 7 0 18 12 25 27
23 52 43 83 53 83 5 0 9 8 9 19 0 10 16 38 34 63 19 25 38 57 42 72 3 14 10
26 15 26 5 0 9 11 9 25 0 14 9 33 20 42 11 10 20 28 20 40 0 14 6 23 15 23 8
0 15 5 15 11 0 15 50 118 61 124 5 4 9 17 9 31 0 14 7 27 15 30 8 4 18 23 21
44 4 22 13 41 20 44 8 3 14 16 14 29 0 14 7 30 15 37 8 7 15 20 15 29 0 9 9
30 20 46 11 17 20 42 20 56 0 14 7 34 15 45 8 10 15 28 15 39 0 11 6 29 14 40
7 11 16 37 20 58 4 21 14 41 22 44 9 3 14 19 14 43 0 21 6 45 14 53 8 8 18 31
21 51 4 20 14 40 22 45 11 6 14 19 10 47 -9 66 -20 99 -35 110 -9 7 -13 18 -9
28 8 20 27 12 27 -10 0 -8 11 -27 25 -42 l25 -27 0 46 c0 33 6 51 20 64 15 13
20 31 20 65 0 25 7 55 15 66 8 11 14 42 15 74 0 36 7 69 20 93 15 28 20 56 20
116 0 58 4 82 15 91 10 9 15 32 15 76 0 52 3 65 19 73 16 9 19 26 23 133 3 68
10 133 16 145 9 16 12 188 11 640 -1 694 -8 940 -28 952 -7 5 -15 36 -18 72
-3 35 -10 70 -16 77 -6 8 -13 51 -15 98 -3 54 -9 88 -18 95 -10 8 -14 36 -14
91 0 57 -4 84 -15 94 -8 9 -15 33 -15 57 0 28 -7 48 -22 64 -17 18 -21 34 -19
66 2 34 0 40 -10 30 -24 -24 -28 -13 -22 53 5 56 3 68 -10 76 -12 6 -17 22
-17 49 0 23 -7 47 -15 55 -8 9 -15 30 -15 48 0 19 -6 39 -14 45 -8 6 -19 31
-25 56 -6 24 -15 47 -21 50 -5 3 -10 18 -10 33 0 15 -7 36 -15 46 -8 11 -15
34 -15 52 0 17 -7 37 -15 44 -8 7 -15 20 -15 29 0 9 -6 25 -14 36 -7 11 -17
35 -21 53 -3 17 -11 32 -15 32 -5 0 -12 15 -16 34 -3 19 -12 37 -20 40 -8 3
-14 17 -14 31 0 15 -7 33 -15 41 -8 9 -15 24 -15 35 0 11 -7 22 -15 25 -8 4
-15 17 -15 30 0 13 -9 28 -20 34 -11 6 -20 21 -20 34 0 13 -7 26 -15 30 -9 3
-15 18 -15 34 0 16 -6 35 -14 41 -8 7 -17 23 -20 36 -4 14 -11 25 -16 25 -6 0
-10 6 -10 14 0 7 -9 25 -20 39 -11 14 -20 32 -20 41 0 9 -4 16 -9 16 -5 0 -22
27 -38 60 -15 33 -34 60 -40 60 -8 0 -13 14 -13 35 0 24 -5 35 -15 35 -8 0
-15 6 -15 14 0 8 -7 16 -15 20 -8 3 -15 14 -15 25 0 11 -6 26 -14 33 -7 8 -16
23 -20 35 -4 12 -13 24 -21 27 -8 3 -15 15 -15 26 0 11 -4 20 -9 20 -5 0 -22
20 -38 45 -31 48 -43 56 -43 25 0 -11 -7 -20 -15 -20 -17 0 -21 35 -5 45 20
12 9 35 -40 87 -27 29 -50 60 -50 69 0 9 -7 19 -15 23 -8 3 -15 12 -15 20 0 8
-13 25 -29 38 -16 14 -32 34 -35 45 -4 12 -13 24 -21 27 -8 3 -15 12 -15 21 0
8 -7 15 -15 15 -8 0 -15 5 -15 11 0 11 -32 49 -77 94 -13 12 -23 29 -23 36 0
8 -16 27 -35 43 -19 16 -35 34 -35 40 0 6 -12 19 -28 29 -15 11 -38 34 -52 53
-14 18 -31 34 -37 34 -7 0 -13 4 -13 9 0 10 -279 291 -289 291 -3 0 -19 16
-35 35 -16 19 -38 35 -49 35 -10 0 -21 9 -24 20 -3 11 -12 20 -19 20 -8 0 -14
5 -14 10 0 13 -32 45 -53 53 -9 3 -17 11 -17 16 0 5 -24 25 -52 44 -29 19 -67
51 -85 71 -17 20 -39 36 -48 36 -9 0 -31 16 -49 35 -19 19 -38 35 -45 35 -6 0
-11 7 -11 16 0 16 -11 16 -67 -1 -28 -9 -31 12 -5 31 16 11 15 13 -10 23 -16
6 -28 15 -28 21 0 5 -7 10 -15 10 -8 0 -15 6 -15 14 0 7 -13 16 -30 20 -18 3
-30 12 -30 21 0 8 -9 15 -20 15 -11 0 -20 7 -20 15 0 9 -9 15 -24 15 -14 0
-31 7 -40 15 -8 8 -19 15 -25 15 -6 0 -11 10 -11 21 0 20 -4 21 -41 15 -38 -6
-40 -5 -34 15 7 20 4 21 -27 17 -31 -3 -34 -1 -30 19 3 18 0 23 -16 23 -11 0
-24 6 -30 13 -6 7 -36 24 -66 37 -31 14 -56 31 -56 38 0 6 -8 12 -19 12 -10 0
-24 6 -30 14 -7 8 -27 17 -46 20 -21 4 -35 13 -35 21 0 8 -8 15 -18 15 -10 0
-25 9 -35 20 -12 15 -24 19 -42 14 -18 -4 -27 -1 -31 10 -3 9 -15 16 -25 16
-10 0 -28 9 -39 20 -11 11 -29 20 -40 20 -11 0 -23 7 -26 15 -4 8 -24 18 -45
21 -21 4 -39 10 -39 15 0 4 -10 11 -22 15 -13 3 -54 22 -91 40 -37 19 -81 34
-98 34 -17 0 -32 6 -35 15 -4 9 -19 15 -39 15 -18 0 -38 7 -45 15 -7 8 -30 18
-52 22 -22 3 -42 12 -45 19 -3 8 -18 14 -33 14 -15 0 -34 7 -41 16 -9 11 -23
14 -47 10 -26 -4 -43 1 -70 19 -20 14 -49 25 -65 25 -15 0 -30 7 -33 15 -4 10
-21 15 -53 15 -34 0 -51 5 -64 20 -12 14 -29 20 -60 20 -23 0 -51 6 -62 14
-11 7 -55 15 -97 18 -43 3 -84 10 -92 17 -8 7 -45 17 -82 22 -37 5 -73 14 -80
20 -20 17 -164 25 -174 10 -4 -7 -16 -11 -26 -8 -17 4 -17 6 4 12 12 4 22 11
22 15 0 15 -32 20 -131 20 -66 0 -112 5 -136 15 -30 13 -129 15 -673 15 -350
0 -640 -3 -643 -6z m-389 -85 c-12 -7 -24 -7 -35 0 -15 9 -12 10 17 10 29 0
32 -1 18 -10z m2110 -16 c-10 -2 -26 -2 -35 0 -10 3 -2 5 17 5 19 0 27 -2 18
-5z m-2418 -109 c0 -2 -17 -4 -37 -3 -33 1 -35 2 -13 8 23 7 50 4 50 -5z
m2720 -24 c12 -8 9 -10 -12 -10 -16 0 -28 5 -28 10 0 13 20 13 40 0z m-3134
-39 c-5 -8 -56 -3 -56 5 0 2 14 4 31 4 16 0 28 -4 25 -9z m-96 -31 c0 -5 -4
-10 -10 -10 -5 0 -10 5 -10 10 0 6 5 10 10 10 6 0 10 -4 10 -10z m3645 0 c4
-6 -5 -10 -20 -10 -15 0 -24 4 -20 10 3 6 12 10 20 10 8 0 17 -4 20 -10z
m-3955 -200 c0 -5 -4 -10 -9 -10 -6 0 -13 5 -16 10 -3 6 1 10 9 10 9 0 16 -4
16 -10z m4330 -40 c0 -5 -7 -10 -16 -10 -8 0 -12 5 -9 10 3 6 10 10 16 10 5 0
9 -4 9 -10z m-4667 -21 c7 -1 1 -4 -13 -8 -29 -9 -43 -4 -34 10 3 6 13 8 21 5
8 -3 20 -6 26 -7z m-191 -41 c-9 -9 -15 -9 -24 0 -9 9 -7 12 12 12 19 0 21 -3
12 -12z m5218 -8 c0 -5 -12 -10 -26 -10 -14 0 -23 4 -19 10 3 6 15 10 26 10
10 0 19 -4 19 -10z m170 -40 c0 -5 -7 -10 -15 -10 -8 0 -15 5 -15 10 0 6 7 10
15 10 8 0 15 -4 15 -10z m-5437 -107 c-7 -2 -19 -2 -25 0 -7 3 -2 5 12 5 14 0
19 -2 13 -5z m5497 -53 c0 -5 -9 -10 -20 -10 -11 0 -20 5 -20 10 0 6 9 10 20
10 11 0 20 -4 20 -10z m-5776 -6 c22 -9 20 -24 -3 -24 -21 0 -34 13 -24 24 8
7 8 7 27 0z m6039 -71 c-7 -2 -21 -2 -30 0 -10 3 -4 5 12 5 17 0 24 -2 18 -5z
m-6286 -39 c-3 -3 -12 -4 -19 -1 -8 3 -5 6 6 6 11 1 17 -2 13 -5z m6530 -60
c-3 -3 -12 -4 -19 -1 -8 3 -5 6 6 6 11 1 17 -2 13 -5z m-6587 -77 c0 -13 -40
-37 -61 -37 -5 0 -2 11 8 25 19 26 53 34 53 12z m-180 -57 c0 -5 -5 -10 -11
-10 -5 0 -7 5 -4 10 3 6 8 10 11 10 2 0 4 -4 4 -10z m6846 -15 l23 -25 -24 0
c-26 0 -58 26 -50 41 10 15 27 10 51 -16z m-6876 -22 c0 -5 -4 -13 -8 -20 -6
-9 -11 -7 -20 7 -11 17 -10 20 8 20 11 0 20 -3 20 -7z m-114 -65 c-13 -9 -46
-10 -46 -2 0 3 10 14 23 24 20 17 22 17 28 2 4 -9 1 -20 -5 -24z m7134 32 c0
-5 -4 -10 -10 -10 -5 0 -10 5 -10 10 0 6 5 10 10 10 6 0 10 -4 10 -10z m44
-29 c3 -4 -1 -17 -9 -27 -14 -18 -14 -18 -15 9 0 26 13 36 24 18z m-7080 -30
c3 -5 -3 -11 -14 -14 -20 -5 -35 5 -23 17 9 9 31 7 37 -3z m7216 -48 c0 -2
-13 -3 -30 -3 -25 0 -30 4 -30 25 l0 26 30 -23 c17 -12 30 -23 30 -25z m-110
-21 c0 -14 -11 -21 -26 -15 -8 3 -11 9 -8 14 7 11 34 12 34 1z m-7230 -72 c0
-5 -7 -10 -15 -10 -8 0 -15 5 -15 10 0 6 7 10 15 10 8 0 15 -4 15 -10z m7340
-70 c0 -5 -7 -10 -15 -10 -8 0 -15 5 -15 10 0 6 7 10 15 10 8 0 15 -4 15 -10z
m-7700 -54 c0 -3 -4 -8 -10 -11 -5 -3 -10 -1 -10 4 0 6 5 11 10 11 6 0 10 -2
10 -4z m-40 -36 c0 -5 -4 -10 -10 -10 -5 0 -10 5 -10 10 0 6 5 10 10 10 6 0
10 -4 10 -10z m-36 -41 c-3 -5 -10 -7 -15 -3 -5 3 -7 10 -3 15 3 5 10 7 15 3
5 -3 7 -10 3 -15z m8126 -9 c0 -5 -2 -10 -4 -10 -3 0 -8 5 -11 10 -3 6 -1 10
4 10 6 0 11 -4 11 -10z m-8090 -20 c0 -5 -4 -10 -10 -10 -5 0 -10 5 -10 10 0
6 5 10 10 10 6 0 10 -4 10 -10z m8130 -80 c0 -5 -4 -10 -10 -10 -5 0 -10 5
-10 10 0 6 5 10 10 10 6 0 10 -4 10 -10z m-8470 -180 c0 -5 -4 -10 -10 -10 -5
0 -10 5 -10 10 0 6 5 10 10 10 6 0 10 -4 10 -10z m-30 -34 c0 -11 -19 -15 -25
-6 -3 5 1 10 9 10 9 0 16 -2 16 -4z m8830 -56 c0 -5 -4 -10 -10 -10 -5 0 -10
5 -10 10 0 6 5 10 10 10 6 0 10 -4 10 -10z m31 -33 c-1 -12 -15 -9 -19 4 -3 6
1 10 8 8 6 -3 11 -8 11 -12z m-9038 -212 c-1 -5 -11 -12 -22 -17 -17 -6 -21
-3 -21 13 0 15 5 20 23 17 12 -2 21 -7 20 -13z m37 -75 c0 -11 -4 -20 -10 -20
-5 0 -10 9 -10 20 0 11 5 20 10 20 6 0 10 -9 10 -20z m-180 -15 c0 -8 -9 -15
-20 -15 -22 0 -27 15 -7 23 21 9 27 7 27 -8z m9377 -1 c3 -8 1 -20 -6 -27 -8
-8 -11 -8 -11 1 0 7 -7 12 -15 12 -8 0 -15 7 -15 15 0 20 39 19 47 -1z m-67
-75 c0 -11 -4 -17 -10 -14 -5 3 -10 13 -10 21 0 8 5 14 10 14 6 0 10 -9 10
-21z m206 -20 c3 -5 -6 -9 -20 -9 -16 0 -26 6 -26 14 0 15 36 11 46 -5z
m-9719 -141 c-3 -7 -5 -2 -5 12 0 14 2 19 5 13 2 -7 2 -19 0 -25z m9613 2 c0
-5 -4 -10 -10 -10 -5 0 -10 5 -10 10 0 6 5 10 10 10 6 0 10 -4 10 -10z m-9640
-50 c0 -11 -4 -20 -9 -20 -5 0 -7 9 -4 20 3 11 7 20 9 20 2 0 4 -9 4 -20z m88
-31 c-31 -20 -39 0 -10 29 16 17 17 17 20 -2 2 -10 -2 -23 -10 -27z m9822 -21
c0 -5 -4 -8 -10 -8 -5 0 -10 10 -10 23 0 18 2 19 10 7 5 -8 10 -18 10 -22z
m-60 -45 c26 -23 25 -35 -2 -31 -15 2 -24 11 -26 26 -4 27 1 28 28 5z m93 -3
c3 -11 1 -20 -4 -20 -5 0 -9 9 -9 20 0 11 2 20 4 20 2 0 6 -9 9 -20z m59 -92
c-9 -9 -12 -7 -12 12 0 19 3 21 12 12 9 -9 9 -15 0 -24z m-10215 -340 c-3 -8
-6 -5 -6 6 -1 11 2 17 5 13 3 -3 4 -12 1 -19z m-27 -75 c0 -20 -3 -24 -11 -16
-7 7 -9 19 -6 27 10 24 17 19 17 -11z m10410 -97 c0 -14 -4 -28 -10 -31 -6 -4
-10 7 -10 24 0 17 5 31 10 31 6 0 10 -11 10 -24z m-2737 -317 c21 -10 52 -19
70 -19 18 0 46 -7 62 -16 20 -10 43 -14 68 -10 29 5 37 3 37 -9 0 -24 49 -38
87 -27 20 6 35 6 39 1 3 -5 -2 -9 -10 -9 -9 0 -16 -7 -16 -15 0 -11 11 -15 39
-15 22 0 46 -6 53 -13 7 -8 30 -19 51 -26 20 -7 39 -17 42 -22 4 -5 15 -9 26
-9 11 0 22 -6 25 -14 3 -8 20 -18 37 -22 17 -3 37 -13 45 -20 7 -8 24 -14 38
-14 14 0 27 -6 30 -14 3 -8 16 -17 30 -20 13 -4 24 -11 24 -16 0 -6 7 -10 15
-10 8 0 15 -9 15 -20 0 -15 7 -20 25 -20 13 0 28 -8 34 -17 8 -14 14 -15 45
-6 35 11 64 -1 32 -13 -19 -7 -21 -31 -3 -37 6 -2 20 0 30 5 16 8 18 7 13 -10
-4 -13 -1 -22 9 -26 9 -3 15 -18 15 -35 0 -20 6 -30 19 -34 25 -6 55 -105 53
-172 -1 -32 4 -55 14 -66 10 -11 13 -23 8 -31 -4 -7 -9 -184 -10 -393 -1 -209
-5 -636 -8 -950 -3 -313 -8 -811 -11 -1105 -6 -565 -12 -744 -26 -772 -14 -26
0 -49 25 -42 28 7 40 -8 54 -66 10 -43 25 -164 15 -127 -7 27 -31 20 -35 -10
-3 -28 -4 -28 -83 -31 -67 -2 -87 1 -125 20 -24 13 -51 29 -58 35 -7 7 -20 13
-28 13 -8 0 -17 7 -20 15 -4 8 -14 15 -24 15 -9 0 -25 9 -35 20 -10 11 -24 20
-32 20 -7 0 -16 7 -19 15 -4 9 -19 15 -35 15 -16 0 -32 6 -35 14 -3 8 -17 17
-31 21 -14 3 -32 13 -40 20 -8 8 -27 15 -43 15 -16 0 -33 6 -37 14 -4 7 -29
15 -55 18 -26 3 -54 13 -63 22 -9 9 -26 16 -38 16 -12 0 -35 7 -51 15 -15 8
-40 15 -55 15 -15 0 -36 6 -47 14 -11 8 -49 18 -85 21 -35 4 -73 13 -84 20
-50 30 -872 39 -944 9 -19 -8 -67 -14 -110 -14 -69 0 -80 -3 -98 -24 -18 -21
-26 -23 -62 -16 -28 5 -49 3 -68 -7 -16 -8 -50 -17 -78 -20 -27 -3 -54 -12
-58 -19 -5 -10 -29 -14 -72 -14 -37 0 -65 -5 -67 -11 -2 -6 -26 -13 -53 -16
-28 -3 -59 -12 -70 -19 -11 -8 -39 -14 -62 -14 -49 0 -55 -13 -15 -35 l27 -16
-40 6 c-77 11 -107 9 -117 -8 -6 -11 -22 -17 -46 -17 -20 0 -46 -7 -56 -15
-11 -8 -32 -15 -47 -15 -14 0 -32 -7 -39 -15 -7 -8 -27 -15 -45 -15 -18 0 -38
-7 -45 -15 -7 -8 -18 -15 -24 -15 -6 0 -24 -7 -41 -16 -16 -9 -57 -18 -90 -21
-33 -3 -67 -12 -76 -19 -8 -8 -34 -14 -57 -14 -31 0 -42 -4 -42 -15 0 -11 -11
-15 -39 -15 -42 0 -64 -16 -37 -26 34 -13 15 -27 -26 -19 -64 10 -88 9 -101
-8 -15 -19 -101 -47 -144 -47 -23 0 -33 -5 -33 -15 0 -11 -11 -15 -39 -15 -22
0 -44 -6 -51 -15 -7 -8 -24 -15 -37 -15 -14 0 -36 -9 -50 -20 -17 -13 -41 -20
-72 -20 -25 0 -55 -7 -65 -15 -11 -8 -39 -15 -62 -15 -33 0 -43 -4 -47 -20 -4
-17 -11 -19 -55 -13 -58 6 -79 -10 -35 -29 24 -9 25 -12 9 -16 -11 -2 -37 2
-59 9 -35 11 -43 11 -70 -4 -16 -10 -51 -20 -76 -24 -25 -3 -58 -12 -73 -19
-15 -8 -46 -14 -69 -14 -26 0 -50 -7 -62 -17 -15 -14 -34 -17 -93 -15 -51 1
-84 -3 -104 -13 -19 -10 -57 -15 -109 -15 -50 0 -96 -6 -120 -16 -33 -13 -84
-15 -333 -12 -220 2 -299 6 -310 16 -9 7 -53 15 -98 19 -54 4 -84 11 -87 20
-3 8 -22 13 -55 13 -44 0 -93 15 -183 55 -16 7 -48 16 -69 20 -21 4 -45 13
-53 21 -8 8 -28 14 -44 14 -17 0 -32 6 -35 15 -4 9 -19 15 -35 15 -17 0 -32 6
-35 14 -3 8 -19 18 -36 21 -16 4 -41 13 -56 21 -15 7 -34 11 -43 9 -19 -6 -69
31 -69 51 0 8 -10 14 -25 14 -14 0 -29 8 -35 20 -6 11 -17 20 -26 20 -8 0 -17
7 -21 16 -3 9 -12 13 -21 9 -17 -6 -112 87 -112 110 0 7 -7 18 -15 25 -8 7
-15 21 -15 31 0 10 -7 40 -17 66 -19 56 -19 78 -3 1783 15 1547 17 1679 33
1704 8 12 17 35 20 53 8 39 35 73 59 73 9 0 20 5 23 10 3 6 17 10 31 10 19 0
24 -5 24 -25 0 -21 5 -25 31 -25 17 0 39 5 50 10 13 7 19 7 19 0 0 -5 -7 -10
-15 -10 -24 0 -17 -30 10 -40 14 -5 25 -14 25 -21 0 -7 11 -8 30 -4 26 6 30 4
30 -14 0 -12 6 -21 14 -21 7 0 20 -7 27 -16 7 -9 22 -20 34 -25 11 -5 27 -13
35 -17 59 -33 101 -52 115 -52 9 0 18 -7 21 -15 4 -8 16 -15 29 -15 12 0 34
-9 48 -20 14 -11 36 -20 50 -20 14 0 28 -7 31 -16 5 -13 17 -16 62 -12 49 4
55 3 51 -13 -4 -14 5 -17 55 -21 33 -2 63 -9 66 -15 4 -5 31 -13 60 -16 29 -3
66 -13 82 -21 16 -8 78 -19 137 -26 59 -6 122 -15 139 -21 40 -12 266 -12 299
1 14 5 76 13 137 16 62 4 123 13 137 21 15 7 56 13 93 13 41 0 68 4 70 12 3 7
38 14 87 17 46 4 85 12 89 18 4 7 27 15 52 19 24 4 55 13 69 21 14 7 42 13 62
13 24 0 39 5 43 15 3 10 19 15 44 15 22 0 45 6 51 14 7 8 28 17 49 21 20 4 42
10 47 15 6 4 36 10 69 14 32 3 68 13 79 21 12 8 31 15 42 15 11 0 29 7 39 15
11 8 32 15 47 15 18 0 28 6 32 20 4 16 14 20 51 20 34 0 46 4 46 15 0 11 11
15 40 15 42 0 51 12 23 30 -14 8 -6 9 33 5 41 -5 52 -3 57 9 5 12 20 16 57 16
38 0 50 4 50 15 0 8 8 15 17 15 9 0 24 7 34 16 10 9 40 18 66 21 26 3 62 11
80 19 17 8 43 14 57 14 32 0 35 27 4 33 -13 2 3 2 35 -1 51 -4 60 -2 73 17 10
14 26 21 49 21 28 0 32 3 28 20 -5 19 -2 20 52 14 54 -7 58 -6 53 12 -4 17 0
19 39 15 32 -2 44 1 49 13 4 10 18 16 37 16 17 0 38 7 47 15 9 8 34 17 55 21
22 3 43 11 47 17 3 5 32 12 64 15 32 3 64 11 72 18 7 8 24 14 36 14 13 0 29 7
36 14 6 8 29 16 51 18 40 3 55 22 19 24 -38 3 -41 4 -35 14 3 6 19 10 36 10
16 0 29 -4 29 -10 0 -17 58 -11 97 10 21 11 54 20 75 20 20 0 39 4 43 9 3 6
27 13 53 17 26 3 52 11 59 16 7 5 36 14 65 18 112 19 174 31 213 42 59 16 272
23 590 20 253 -3 284 -5 318 -23z m497 -49 c0 -5 -7 -10 -15 -10 -8 0 -15 5
-15 10 0 6 7 10 15 10 8 0 15 -4 15 -10z m150 0 c0 -5 -11 -10 -25 -10 -14 0
-25 5 -25 10 0 6 11 10 25 10 14 0 25 -4 25 -10z m-2056 -6 c24 -9 9 -24 -24
-24 -29 0 -45 12 -33 24 8 8 37 8 57 0z m2137 -37 c-5 -5 -18 -7 -28 -3 -14 6
-15 9 -4 16 19 11 46 1 32 -13z m-2369 -9 c-17 -8 -26 -8 -34 0 -9 9 -4 12 23
11 32 0 33 -1 11 -11z m2558 -191 c0 -7 -9 -13 -20 -14 -11 -1 -20 4 -20 13 0
8 9 14 20 14 11 0 20 -6 20 -13z m-9030 -69 c0 -23 -3 -29 -11 -21 -6 6 -8 20
-4 32 9 30 15 26 15 -11z m-68 -120 c-5 -21 -6 -21 -12 -2 -8 21 -3 37 10 29
4 -3 6 -15 2 -27z m11341 -8 c-7 -28 -13 -25 -13 6 0 14 4 23 9 20 5 -3 7 -15
4 -26z m-1968 -80 c-5 -8 -11 -8 -17 -2 -6 6 -7 16 -3 22 5 8 11 8 17 2 6 -6
7 -16 3 -22z m-75 -70 c0 -19 -5 -30 -14 -30 -12 0 -12 5 -3 30 6 17 13 30 14
30 2 0 3 -13 3 -30z m-4380 -10 c0 -5 -5 -10 -11 -10 -5 0 -7 5 -4 10 3 6 8
10 11 10 2 0 4 -4 4 -10z m4433 -75 c1 -5 -6 -11 -15 -13 -11 -2 -18 3 -18 13
0 17 30 18 33 0z m-9326 -27 c-3 -7 -5 -2 -5 12 0 14 2 19 5 13 2 -7 2 -19 0
-25z m3028 -8 c3 -5 -1 -10 -9 -10 -9 0 -16 5 -16 10 0 6 4 10 9 10 6 0 13 -4
16 -10z m6353 -31 c-2 -6 -8 -10 -13 -10 -5 0 -11 4 -13 10 -2 6 4 11 13 11 9
0 15 -5 13 -11z m-6535 -6 c-7 -2 -21 -2 -30 0 -10 3 -4 5 12 5 17 0 24 -2 18
-5z m397 -73 c0 -5 -2 -10 -4 -10 -3 0 -8 5 -11 10 -3 6 -1 10 4 10 6 0 11 -4
11 -10z m-3213 -32 c-3 -7 -5 -2 -5 12 0 14 2 19 5 13 2 -7 2 -19 0 -25z
m4146 25 c-13 -2 -33 -2 -45 0 -13 2 -3 4 22 4 25 0 35 -2 23 -4z m7104 -3005
c-3 -7 -5 -2 -5 12 0 14 2 19 5 13 2 -7 2 -19 0 -25z m-11310 -40 c-3 -7 -5
-2 -5 12 0 14 2 19 5 13 2 -7 2 -19 0 -25z m11340 -100 c-3 -8 -6 -5 -6 6 -1
11 2 17 5 13 3 -3 4 -12 1 -19z m-2517 -139 c0 -14 -27 -22 -47 -14 -17 6 -17
7 0 20 19 14 47 10 47 -6z m-8850 -15 c0 -8 -4 -14 -10 -14 -5 0 -10 9 -10 21
0 11 5 17 10 14 6 -3 10 -13 10 -21z m8660 -16 c0 -16 -3 -19 -11 -11 -6 6 -8
16 -5 22 11 17 16 13 16 -11z m184 -48 c-21 -8 -37 -3 -29 10 3 4 15 6 27 2
21 -5 21 -6 2 -12z m-8781 -53 c-9 -16 -24 9 -17 28 7 18 8 18 14 -1 4 -10 5
-23 3 -27z m11347 13 c0 -21 -16 -35 -24 -22 -8 13 5 53 15 46 5 -3 9 -14 9
-24z m-5460 -90 c0 -5 -10 -10 -22 -10 -19 0 -20 2 -8 10 19 13 30 13 30 0z
m5390 -26 c0 -8 -4 -14 -10 -14 -5 0 -10 9 -10 21 0 11 5 17 10 14 6 -3 10
-13 10 -21z m-5620 -14 c0 -5 -7 -10 -15 -10 -8 0 -15 5 -15 10 0 6 7 10 15
10 8 0 15 -4 15 -10z m-3400 -29 c0 -13 -26 -32 -33 -24 -14 13 -6 33 13 33
11 0 20 -4 20 -9z m3638 -3 c-3 -7 -17 -13 -33 -13 -16 0 -30 6 -32 13 -3 8 7
12 32 12 25 0 35 -4 33 -12z m-821 -124 c-3 -3 -12 -4 -19 -1 -8 3 -5 6 6 6
11 1 17 -2 13 -5z m-2544 -11 c-7 -2 -21 -2 -30 0 -10 3 -4 5 12 5 17 0 24 -2
18 -5z m2552 -53 c4 -6 -6 -10 -22 -10 -22 0 -25 2 -13 10 19 12 27 12 35 0z
m-2649 -47 c-11 -11 -19 6 -11 24 8 17 8 17 12 0 3 -10 2 -21 -1 -24z m281 31
c-3 -3 -12 -4 -19 -1 -8 3 -5 6 6 6 11 1 17 -2 13 -5z m2126 -21 c-7 -2 -19
-2 -25 0 -7 3 -2 5 12 5 14 0 19 -2 13 -5z m-2050 -10 c-7 -2 -19 -2 -25 0 -7
3 -2 5 12 5 14 0 19 -2 13 -5z m2287 -27 c0 -9 -7 -12 -21 -9 -16 4 -17 8 -7
14 19 13 28 11 28 -5z m-2560 -6 c0 -5 -7 -10 -15 -10 -8 0 -15 5 -15 10 0 6
7 10 15 10 8 0 15 -4 15 -10z m195 1 c3 -5 1 -12 -4 -15 -12 -8 -41 3 -41 15
0 12 37 12 45 0z m-2285 -377 c0 -13 -4 -24 -10 -24 -5 0 -10 14 -10 31 0 17
4 28 10 24 6 -3 10 -17 10 -31z m10410 -89 c0 -8 -4 -17 -10 -20 -6 -4 -10 5
-10 20 0 15 4 24 10 20 6 -3 10 -12 10 -20z m-43 -87 c-3 -8 -6 -5 -6 6 -1 11
2 17 5 13 3 -3 4 -12 1 -19z m-10207 -340 c0 -16 -3 -19 -11 -11 -6 6 -8 16
-5 22 11 17 16 13 16 -11z m163 -70 c8 -31 2 -33 -22 -9 -26 26 -26 31 -2 31
11 0 21 -9 24 -22z m-106 -20 c-3 -7 -5 -2 -5 12 0 14 2 19 5 13 2 -7 2 -19 0
-25z m10013 -4 c0 -8 -4 -12 -10 -9 -5 3 -10 10 -10 16 0 5 5 9 10 9 6 0 10
-7 10 -16z m-140 -57 c0 -8 -9 -22 -20 -32 -20 -18 -20 -17 -20 8 0 23 10 34
33 36 4 1 7 -5 7 -12z m67 -39 c-3 -7 -5 -2 -5 12 0 14 2 19 5 13 2 -7 2 -19
0 -25z m-9627 -38 c0 -5 -5 -10 -11 -10 -5 0 -7 5 -4 10 3 6 8 10 11 10 2 0 4
-4 4 -10z m9597 -22 c-3 -7 -5 -2 -5 12 0 14 2 19 5 13 2 -7 2 -19 0 -25z
m-267 -68 c0 -5 -5 -10 -11 -10 -5 0 -7 5 -4 10 3 6 8 10 11 10 2 0 4 -4 4
-10z m-9410 -57 c0 -8 -3 -12 -7 -10 -5 2 -17 7 -28 11 -15 6 -17 9 -6 16 18
11 41 2 41 -17z m180 -12 c0 -11 -4 -23 -10 -26 -6 -4 -10 5 -10 19 0 14 5 26
10 26 6 0 10 -9 10 -19z m-40 -76 c0 -15 -43 -12 -48 3 -3 10 4 13 22 10 15
-2 26 -7 26 -13z m9370 6 c0 -5 -9 -11 -20 -14 -13 -3 -20 0 -20 9 0 8 9 14
20 14 11 0 20 -4 20 -9z m-200 -21 c0 -11 -4 -20 -10 -20 -5 0 -10 9 -10 20 0
11 5 20 10 20 6 0 10 -9 10 -20z m65 -80 c-7 -12 -38 -13 -49 -3 -4 4 3 15 16
25 20 14 24 15 31 2 4 -8 5 -19 2 -24z m-9065 -205 c0 -8 -4 -15 -9 -15 -13 0
-22 16 -14 24 11 11 23 6 23 -9z m30 -41 c0 -8 -4 -12 -10 -9 -5 3 -10 10 -10
16 0 5 5 9 10 9 6 0 10 -7 10 -16z m38 -32 c2 -7 -3 -12 -12 -12 -9 0 -16 7
-16 16 0 17 22 14 28 -4z m8795 -25 c-3 -5 -10 -4 -15 1 -6 6 -7 16 -3 22 6 9
9 9 16 -1 4 -7 5 -17 2 -22z m-37 -34 c-10 -10 -19 5 -10 18 6 11 8 11 12 0 2
-7 1 -15 -2 -18z m-26 -21 c0 -13 -12 -22 -22 -16 -10 6 -1 24 13 24 5 0 9 -4
9 -8z m-8430 -153 c0 -5 -7 -9 -15 -9 -15 0 -20 12 -9 23 8 8 24 -1 24 -14z
m8130 -80 c0 -5 -7 -9 -15 -9 -15 0 -20 12 -9 23 8 8 24 -1 24 -14z m28 -30
c-2 -6 -8 -10 -13 -10 -5 0 -11 4 -13 10 -2 6 4 11 13 11 9 0 15 -5 13 -11z
m-74 -80 c-3 -5 -10 -7 -15 -3 -5 3 -7 10 -3 15 3 5 10 7 15 3 5 -3 7 -10 3
-15z m-7694 -49 c0 -5 -4 -10 -10 -10 -5 0 -10 5 -10 10 0 6 5 10 10 10 6 0
10 -4 10 -10z m7340 -70 c0 -5 -7 -10 -15 -10 -8 0 -15 5 -15 10 0 6 7 10 15
10 8 0 15 -4 15 -10z m-7226 -71 c-7 -11 -34 -12 -34 -1 0 14 11 21 26 15 8
-3 11 -9 8 -14z m-84 -44 c0 -26 0 -26 -25 -8 -31 23 -31 33 0 33 20 0 25 -5
25 -25z m7193 -26 c-6 -6 -18 -6 -28 -3 -18 7 -18 8 1 14 23 9 39 1 27 -11z
m-7093 -9 c0 -11 -7 -20 -15 -20 -13 0 -14 4 -5 20 6 11 13 20 15 20 3 0 5 -9
5 -20z m7200 -17 c0 -5 -11 -16 -24 -25 -23 -17 -24 -16 -29 2 -3 10 -2 21 1
24 8 9 52 7 52 -1z m-7160 -27 c0 -3 -4 -8 -10 -11 -5 -3 -10 -1 -10 4 0 6 5
11 10 11 6 0 10 -2 10 -4z m7027 -48 c-16 -10 -29 5 -21 26 6 15 7 15 19 -1
10 -13 10 -20 2 -25z m-6863 -4 c17 -16 13 -34 -6 -34 -6 0 -21 11 -34 25
l-23 25 24 0 c13 0 31 -7 39 -16z m6826 -24 c0 -5 -4 -10 -9 -10 -6 0 -13 5
-16 10 -3 6 1 10 9 10 9 0 16 -4 16 -10z m-147 -45 c-19 -26 -53 -34 -53 -12
0 14 34 35 58 36 9 1 8 -6 -5 -24z m-6616 -91 c-3 -3 -12 -4 -19 -1 -8 3 -5 6
6 6 11 1 17 -2 13 -5z m6530 -60 c-3 -3 -12 -4 -19 -1 -8 3 -5 6 6 6 11 1 17
-2 13 -5z m-6262 -34 c8 -13 -20 -24 -41 -16 -20 8 -9 26 16 26 10 0 22 -5 25
-10z m6023 -67 c2 -8 -6 -13 -22 -13 -26 0 -40 12 -29 24 11 11 46 2 51 -11z
m-5768 -13 c0 -5 -6 -10 -14 -10 -8 0 -18 5 -21 10 -3 6 3 10 14 10 12 0 21
-4 21 -10z m5490 -50 c0 -5 -9 -10 -21 -10 -11 0 -17 5 -14 10 3 6 13 10 21
10 8 0 14 -4 14 -10z m-5255 -150 c-3 -5 -15 -10 -26 -10 -10 0 -19 5 -19 10
0 6 12 10 26 10 14 0 23 -4 19 -10z m5028 -51 c-5 -5 -20 -5 -33 -2 l-25 7 25
6 c28 8 46 2 33 -11z m-4688 -19 c-3 -5 -10 -10 -16 -10 -5 0 -9 5 -9 10 0 6
7 10 16 10 8 0 12 -4 9 -10z m4340 -40 c3 -5 -3 -10 -14 -10 -12 0 -21 5 -21
10 0 6 6 10 14 10 8 0 18 -4 21 -10z m-4040 -160 c3 -5 1 -10 -4 -10 -6 0 -11
5 -11 10 0 6 2 10 4 10 3 0 8 -4 11 -10z m86 -41 c-16 -6 -28 -6 -35 1 -7 7 1
10 25 9 32 0 33 -1 10 -10z m3557 -36 c-10 -2 -26 -2 -35 0 -10 3 -2 5 17 5
19 0 27 -2 18 -5z m-3138 -33 c0 -13 -30 -13 -50 0 -11 7 -7 10 18 10 17 0 32
-4 32 -10z m2750 -24 c0 -9 -50 -12 -62 -5 -8 6 1 9 25 9 20 0 37 -2 37 -4z
m-2443 -112 c-3 -3 -12 -4 -19 -1 -8 3 -5 6 6 6 11 1 17 -2 13 -5z"/>
<path d="M9570 4256 c0 -9 7 -16 16 -16 9 0 14 5 12 12 -6 18 -28 21 -28 4z"/>
</g>
</svg>
