<svg fill="#000000" xmlns="http://www.w3.org/2000/svg" viewBox="0 0 50 50" width="50px" height="50px"><path d="M 6.3125 12.5 C 6.023438 12.550781 5.773438 12.726563 5.621094 12.976563 C 5.472656 13.230469 5.4375 13.535156 5.53125 13.8125 C 5.53125 13.8125 5.6875 14.589844 5.625 14.8125 C 5.570313 15.003906 5.519531 15.28125 5.40625 15.78125 C 5.292969 16.28125 5.121094 16.941406 4.9375 17.75 C 4.570313 19.367188 4.105469 21.523438 3.59375 23.8125 C 2.570313 28.386719 1.410156 33.542969 0.8125 36.1875 C 0.8125 36.199219 0.8125 36.207031 0.8125 36.21875 C 0.667969 37.023438 0.34375 37.21875 0.34375 37.21875 C 0.0195313 37.492188 -0.101563 37.941406 0.046875 38.339844 C 0.195313 38.738281 0.574219 39.003906 1 39 L 10.59375 39 C 12.773438 39 14.808594 38.125 16.59375 36.6875 C 16.449219 37.242188 16.3125 37.75 16.3125 37.75 C 16.238281 38.054688 16.308594 38.375 16.503906 38.621094 C 16.699219 38.867188 17 39.007813 17.3125 39 L 22 39 C 22.457031 38.996094 22.851563 38.691406 22.96875 38.25 L 24 34.09375 L 28.71875 34.09375 L 29.71875 38.25 C 29.835938 38.691406 30.230469 38.996094 30.6875 39 L 35.90625 39 C 36.089844 39.089844 36.296875 39.125 36.5 39.09375 L 42.8125 39.09375 C 43.175781 39.082031 43.507813 38.875 43.675781 38.550781 C 43.84375 38.226563 43.824219 37.835938 43.625 37.53125 C 43.625 37.53125 43.496094 37.304688 43.34375 36.96875 C 43.195313 36.644531 43.089844 36.28125 43.09375 36.15625 C 43.09375 36.148438 43.09375 36.132813 43.09375 36.125 C 43.175781 35.578125 43.539063 34.09375 43.5625 34 C 43.5625 34 43.59375 33.9375 43.59375 33.9375 C 43.613281 33.871094 45.011719 29.355469 46.4375 24.75 C 47.15625 22.429688 47.859375 20.109375 48.40625 18.34375 C 48.679688 17.460938 48.929688 16.71875 49.09375 16.1875 C 49.253906 15.671875 49.355469 15.308594 49.34375 15.34375 C 49.335938 15.351563 49.332031 15.347656 49.34375 15.3125 C 49.378906 15.269531 49.480469 15.140625 49.5625 15.03125 C 49.679688 14.871094 49.78125 14.75 49.78125 14.75 C 50.035156 14.449219 50.085938 14.027344 49.917969 13.671875 C 49.753906 13.316406 49.394531 13.089844 49 13.09375 L 43.6875 13.09375 C 43.261719 13.113281 42.894531 13.398438 42.769531 13.800781 C 42.644531 14.207031 42.785156 14.648438 43.125 14.90625 C 43.125 14.90625 43.148438 14.929688 43.15625 14.9375 C 43.113281 15.078125 43.066406 15.246094 43 15.46875 C 42.863281 15.914063 42.679688 16.53125 42.46875 17.25 C 42.046875 18.6875 41.507813 20.542969 40.96875 22.40625 C 40.425781 24.292969 40.304688 24.765625 39.90625 26.15625 L 36.96875 13.78125 C 36.863281 13.328125 36.464844 13.007813 36 13 L 23.1875 13 C 23.125 12.996094 23.0625 12.996094 23 13 C 22.652344 13.066406 22.363281 13.3125 22.242188 13.644531 C 22.121094 13.976563 22.183594 14.347656 22.40625 14.625 C 22.40625 14.621094 22.425781 14.605469 22.40625 14.71875 C 22.402344 14.738281 22.089844 15.976563 21.96875 16.4375 C 21.132813 15 19.976563 14.046875 18.875 13.46875 C 17.828125 12.921875 16.839844 12.671875 16.15625 12.5625 C 15.921875 12.527344 15.777344 12.542969 15.625 12.53125 C 15.5625 12.527344 15.453125 12.503906 15.40625 12.5 C 15.394531 12.5 15.386719 12.5 15.375 12.5 C 15.316406 12.492188 15.316406 12.5 15.3125 12.5 L 6.5 12.5 C 6.4375 12.496094 6.375 12.496094 6.3125 12.5 Z M 7.59375 14.5 L 15.28125 14.5 C 15.285156 14.5 15.308594 14.5 15.3125 14.5 C 15.328125 14.5 15.382813 14.5 15.40625 14.5 C 15.511719 14.507813 15.640625 14.53125 15.84375 14.5625 C 16.367188 14.644531 17.144531 14.835938 17.9375 15.25 C 19.519531 16.078125 21.1875 17.652344 21.1875 21.59375 C 21.1875 25.625 19.882813 29.550781 17.875 32.40625 C 17.839844 32.445313 17.808594 32.488281 17.78125 32.53125 C 15.785156 35.308594 13.167969 37 10.59375 37 L 2.625 37 C 2.671875 36.855469 2.75 36.789063 2.78125 36.625 C 2.785156 36.613281 2.777344 36.605469 2.78125 36.59375 C 3.382813 33.933594 4.539063 28.8125 5.5625 24.25 C 6.074219 21.960938 6.539063 19.800781 6.90625 18.1875 C 7.089844 17.378906 7.261719 16.710938 7.375 16.21875 C 7.488281 15.726563 7.566406 15.359375 7.5625 15.375 C 7.660156 15.039063 7.597656 14.789063 7.59375 14.5 Z M 24.40625 15 L 28.8125 15 C 28.820313 15.050781 28.800781 15.042969 28.8125 15.09375 C 28.859375 15.328125 28.878906 15.332031 28.9375 15.53125 C 28.996094 15.730469 29.085938 16.007813 29.1875 16.34375 C 29.390625 17.011719 29.660156 17.9375 30 19.03125 C 30.679688 21.222656 31.574219 24.082031 32.46875 26.9375 C 34.050781 31.992188 35.285156 35.914063 35.625 37 L 31.5 37 L 30.46875 32.875 C 30.363281 32.421875 29.964844 32.101563 29.5 32.09375 L 23.1875 32.09375 C 22.722656 32.101563 22.324219 32.421875 22.21875 32.875 L 21.21875 37 L 18.625 37 C 18.808594 36.292969 18.976563 35.523438 19.5625 33.46875 C 21.792969 30.257813 23.21875 26.019531 23.21875 21.59375 C 23.21875 21.035156 23.1875 20.496094 23.125 20 C 23.148438 19.949219 23.171875 19.898438 23.1875 19.84375 C 23.886719 17.050781 24.375 15.15625 24.375 15.15625 C 24.386719 15.125 24.398438 15.09375 24.40625 15.0625 C 24.410156 15.039063 24.402344 15.023438 24.40625 15 Z M 30.875 15 L 35.21875 15 L 38.8125 30.34375 C 38.910156 30.804688 39.3125 31.140625 39.785156 31.148438 C 40.257813 31.15625 40.671875 30.832031 40.78125 30.375 C 40.78125 30.375 41.832031 26.691406 42.90625 22.96875 C 43.445313 21.105469 43.984375 19.242188 44.40625 17.8125 C 44.617188 17.097656 44.773438 16.496094 44.90625 16.0625 C 44.972656 15.84375 45.023438 15.652344 45.0625 15.53125 C 45.074219 15.496094 45.078125 15.472656 45.09375 15.4375 C 45.148438 15.332031 45.140625 15.339844 45.125 15.375 C 45.140625 15.285156 45.109375 15.191406 45.125 15.09375 L 47.3125 15.09375 C 47.265625 15.242188 47.246094 15.300781 47.15625 15.59375 C 46.992188 16.125 46.773438 16.867188 46.5 17.75 C 45.953125 19.515625 45.21875 21.835938 44.5 24.15625 C 43.0625 28.792969 41.625 33.40625 41.625 33.40625 C 41.625 33.425781 41.625 33.449219 41.625 33.46875 C 41.625 33.46875 41.214844 34.984375 41.09375 35.84375 C 41.09375 35.855469 41.09375 35.863281 41.09375 35.875 C 41.039063 36.371094 41.21875 36.71875 41.34375 37.09375 L 37.78125 37.09375 C 37.609375 36.550781 36.101563 31.757813 34.40625 26.34375 C 33.511719 23.488281 32.617188 20.59375 31.9375 18.40625 C 31.597656 17.3125 31.296875 16.414063 31.09375 15.75 C 30.996094 15.429688 30.929688 15.1875 30.875 15 Z M 11.6875 16 C 11.304688 16.078125 11 16.371094 10.90625 16.75 L 6.71875 34.15625 C 6.644531 34.457031 6.710938 34.773438 6.902344 35.015625 C 7.089844 35.257813 7.378906 35.402344 7.6875 35.40625 L 10.5 35.40625 C 11.621094 35.40625 12.574219 34.777344 13.40625 33.9375 C 14.238281 33.097656 14.996094 31.980469 15.65625 30.71875 C 16.976563 28.199219 17.90625 25.101563 17.90625 22.3125 C 17.90625 19.589844 17.195313 17.925781 16.21875 17 C 15.242188 16.074219 14.101563 16 13.6875 16 L 11.90625 16 C 11.832031 15.992188 11.761719 15.992188 11.6875 16 Z M 12.6875 18 L 13.6875 18 C 13.875 18 14.371094 18.019531 14.84375 18.46875 C 15.316406 18.917969 15.90625 19.933594 15.90625 22.3125 C 15.90625 24.625 15.023438 27.527344 13.84375 29.78125 C 13.253906 30.90625 12.597656 31.867188 11.96875 32.5 C 11.339844 33.132813 10.78125 33.40625 10.5 33.40625 L 8.96875 33.40625 Z M 26.3125 20.875 C 26.269531 20.882813 26.226563 20.894531 26.1875 20.90625 C 25.839844 20.976563 25.554688 21.226563 25.4375 21.5625 L 22.84375 29.28125 C 22.746094 29.589844 22.800781 29.925781 22.996094 30.183594 C 23.1875 30.445313 23.488281 30.597656 23.8125 30.59375 L 28.6875 30.59375 C 29.003906 30.59375 29.300781 30.445313 29.488281 30.191406 C 29.679688 29.941406 29.742188 29.617188 29.65625 29.3125 L 27.375 21.625 C 27.25 21.148438 26.800781 20.832031 26.3125 20.875 Z M 26.34375 25.21875 L 27.34375 28.59375 L 25.1875 28.59375 Z"/></svg>