<?xml version="1.0" standalone="no"?>
<!DOCTYPE svg PUBLIC "-//W3C//DTD SVG 20010904//EN"
 "http://www.w3.org/TR/2001/REC-SVG-20010904/DTD/svg10.dtd">
<svg version="1.0" xmlns="http://www.w3.org/2000/svg"
 width="512.000000pt" height="512.000000pt" viewBox="0 0 512.000000 512.000000"
 preserveAspectRatio="xMidYMid meet">
 <title>bruteforce icon</title>
<g transform="translate(0.000000,512.000000) scale(0.100000,-0.100000)"  stroke="none">
<path d="M2905 3495 c-16 -15 -25 -36 -25 -55 0 -51 38 -80 105 -80 l55 0 0 -80 0 -80 -1175 0 -1176 0 -24 -25 -25 -24 0 -591 0 -591 25 -24 24 -25 1176 0 1175 0 0 -80 0 -80 -55 0 c-67 0 -105 -29 -105 -80 0 -19 9 -40 25 -55 24 -25 26 -25 215 -25 189 0 191 0 215 25 16 15 25 36 25 55 0 51 -38 80 -105 80 l-55 0 0 800 0 800 55 0 c67 0 105 29 105 80 0 19 -9 40 -25 55 -24 25 -26 25 -215 25 -189 0 -191 0 -215 -25z m135 -935 l0 -480 -1120 0 -1120 0 0 480 0 480 1120 0 1120 0 0 -480z"/>
<path d="M1215 2706 c-101 -44 -125 -178 -46 -257 65 -65 157 -65 222 0 124 124 -15 327 -176 257z"/>
<path d="M1695 2706 c-101 -44 -125 -178 -46 -257 65 -65 157 -65 222 0 124 124 -15 327 -176 257z"/>
<path d="M2175 2706 c-101 -44 -125 -178 -46 -257 65 -65 157 -65 222 0 124 124 -15 327 -176 257z"/>
<path d="M2655 2706 c-101 -44 -125 -178 -46 -257 65 -65 157 -65 222 0 124 124 -15 327 -176 257z"/>
<path d="M3360 3120 l0 -80 480 0 480 0 0 -480 0 -480 -480 0 -480 0 0 -80 0 -80 535 0 536 0 24 25 25 24 0 591 0 591 -25 24 -24 25 -536 0 -535 0 0 -80z"/>
<path d="M3714 2786 c-31 -22 -187 -371 -180 -401 9 -35 45 -65 77 -65 41 0 72 35 109 122 19 43 36 76 38 73 3 -2 20 -37 38 -77 42 -93 64 -118 104 -118 38 0 80 39 80 75 0 15 -36 106 -80 204 -63 138 -87 181 -106 190 -33 15 -55 14 -80 -3z"/>
</g>
</svg>
