<?xml version="1.0" standalone="no"?>
<!DOCTYPE svg PUBLIC "-//W3C//DTD SVG 20010904//EN"
 "http://www.w3.org/TR/2001/REC-SVG-20010904/DTD/svg10.dtd">
<svg version="1.0" xmlns="http://www.w3.org/2000/svg"
 width="3264.000000pt" height="3264.000000pt" viewBox="0 0 3264.000000 3264.000000"
 preserveAspectRatio="xMidYMid meet">

<g transform="translate(0.000000,3264.000000) scale(0.100000,-0.100000)" stroke="none">
<path d="M15600 32231 c0 -5 -29 -12 -65 -16 -36 -3 -65 -11 -65 -16 0 -5 -20
-9 -45 -9 -25 0 -45 -4 -45 -9 0 -4 -27 -11 -60 -15 -33 -4 -60 -11 -60 -16 0
-6 -11 -10 -25 -10 -14 0 -25 -4 -25 -10 0 -5 -15 -10 -34 -10 -19 0 -36 -4
-38 -10 -1 -5 -58 -13 -125 -16 -68 -4 -123 -11 -123 -16 0 -4 -38 -8 -85 -8
-50 0 -85 -4 -85 -10 0 -6 -33 -10 -79 -10 -44 0 -81 -4 -83 -9 -1 -5 -121
-13 -265 -17 -145 -4 -263 -11 -263 -15 0 -5 -58 -9 -130 -9 -80 0 -130 -4
-130 -10 0 -6 -42 -10 -105 -10 -63 0 -105 -4 -105 -10 0 -6 -32 -10 -75 -10
-54 0 -78 -4 -87 -15 -59 -70 -108 -107 -149 -112 -21 -3 -39 -10 -39 -14 0
-5 -13 -9 -30 -9 -16 0 -30 -4 -30 -10 0 -5 -15 -10 -34 -10 -19 0 -36 -4 -38
-9 -2 -5 -58 -13 -125 -17 -68 -4 -123 -11 -123 -15 0 -5 -38 -9 -85 -9 -47 0
-85 -4 -85 -8 0 -5 -64 -12 -142 -16 -79 -3 -144 -11 -146 -16 -2 -6 -32 -10
-68 -10 -60 0 -64 -2 -70 -25 -3 -14 -10 -25 -15 -25 -5 0 -9 -7 -9 -15 0 -22
-32 -55 -52 -55 -10 0 -18 -4 -18 -10 0 -5 -7 -10 -15 -10 -8 0 -15 -4 -15
-10 0 -5 -13 -10 -30 -10 -16 0 -30 -4 -30 -9 0 -5 -27 -12 -60 -16 -33 -4
-60 -11 -60 -16 0 -5 -18 -9 -40 -9 -22 0 -40 -4 -40 -9 0 -5 -58 -12 -130
-16 -71 -4 -130 -11 -130 -16 0 -5 -36 -9 -80 -9 -47 0 -80 -4 -80 -10 0 -5
-12 -10 -28 -10 -31 0 -56 -24 -66 -63 -3 -14 -15 -29 -26 -32 -11 -3 -20 -11
-20 -16 0 -5 -7 -9 -15 -9 -8 0 -15 -4 -15 -10 0 -5 -9 -10 -20 -10 -11 0 -20
-4 -20 -10 0 -5 -14 -10 -31 -10 -17 0 -45 -7 -62 -16 -18 -9 -40 -21 -50 -26
-9 -4 -58 -11 -107 -15 -50 -3 -90 -10 -90 -14 0 -5 -20 -9 -45 -9 -25 0 -45
-4 -45 -10 0 -6 -27 -10 -60 -10 -33 0 -60 -4 -60 -10 0 -5 -20 -10 -45 -10
-43 0 -44 -1 -51 -37 -4 -21 -15 -45 -26 -54 -10 -9 -18 -21 -18 -28 0 -6 -6
-11 -13 -11 -7 0 -19 -9 -27 -20 -8 -11 -25 -20 -37 -20 -13 0 -23 -4 -23 -9
0 -5 -29 -13 -65 -16 -36 -4 -68 -11 -71 -16 -3 -5 -23 -9 -44 -9 -21 0 -42
-4 -45 -10 -3 -5 -37 -10 -76 -10 -38 0 -69 -4 -69 -8 0 -5 -21 -13 -47 -18
-42 -8 -48 -12 -51 -36 -2 -16 -7 -28 -12 -28 -4 0 -11 -11 -14 -25 -4 -14
-11 -25 -16 -25 -5 0 -20 -11 -34 -25 -14 -14 -30 -25 -36 -25 -5 0 -10 -4
-10 -9 0 -5 -20 -12 -45 -15 -25 -4 -45 -11 -45 -17 0 -5 -11 -9 -25 -9 -14 0
-25 -4 -25 -10 0 -5 -20 -10 -45 -10 -25 0 -45 -4 -45 -9 0 -4 -33 -10 -72
-13 -40 -3 -82 -10 -93 -16 -11 -6 -28 -13 -37 -16 -10 -3 -18 -15 -18 -26 0
-11 -4 -20 -10 -20 -5 0 -10 -7 -10 -15 0 -19 -55 -75 -75 -75 -8 0 -15 -4
-15 -9 0 -5 -13 -12 -30 -16 -16 -4 -30 -11 -30 -16 0 -5 -9 -9 -20 -9 -11 0
-20 -4 -20 -10 0 -5 -11 -10 -25 -10 -14 0 -25 -4 -25 -9 0 -5 -43 -12 -95
-16 -52 -4 -95 -11 -95 -16 0 -5 -9 -9 -20 -9 -11 0 -20 -4 -20 -9 0 -5 -9
-11 -20 -14 -13 -3 -22 -17 -26 -36 -4 -17 -10 -31 -15 -31 -5 0 -9 -6 -9 -14
0 -25 -68 -86 -95 -86 -14 0 -25 -4 -25 -9 0 -5 -18 -11 -40 -15 -22 -3 -40
-11 -40 -16 0 -6 -13 -10 -30 -10 -16 0 -30 -4 -30 -10 0 -5 -22 -10 -50 -10
-27 0 -50 -4 -50 -10 0 -5 -17 -10 -37 -10 -65 0 -83 -9 -83 -41 0 -15 -4 -30
-9 -33 -4 -3 -11 -19 -15 -36 -7 -39 -47 -79 -86 -86 -16 -4 -30 -10 -30 -15
0 -5 -15 -9 -33 -9 -34 0 -87 -19 -87 -32 0 -4 -20 -10 -45 -14 -25 -3 -45
-10 -45 -15 0 -5 -10 -9 -22 -9 -22 0 -58 -45 -58 -72 0 -13 -26 -38 -41 -38
-7 0 -29 -18 -50 -40 -21 -22 -45 -40 -54 -40 -8 0 -15 -4 -15 -10 0 -5 -8
-10 -18 -10 -10 0 -22 -4 -28 -10 -5 -5 -43 -13 -84 -16 -54 -5 -79 -12 -91
-26 -9 -10 -21 -18 -28 -18 -6 0 -11 -7 -11 -16 0 -23 -33 -118 -43 -123 -5
-1 -19 -14 -32 -27 -13 -13 -33 -24 -45 -24 -11 0 -20 -4 -20 -9 0 -4 -21 -11
-46 -14 -26 -2 -49 -9 -53 -14 -3 -5 -21 -16 -38 -24 -18 -8 -33 -17 -33 -21
0 -5 -7 -8 -15 -8 -8 0 -15 -7 -15 -15 0 -8 -4 -15 -10 -15 -5 0 -10 -7 -10
-15 0 -8 -4 -15 -10 -15 -5 0 -10 -7 -10 -16 0 -21 -22 -42 -56 -50 -25 -6
-56 -29 -106 -76 -10 -10 -25 -18 -33 -18 -8 0 -15 -4 -15 -9 0 -5 -26 -12
-57 -16 -32 -3 -66 -10 -75 -15 -10 -6 -26 -10 -37 -10 -12 0 -21 -9 -24 -27
-18 -93 -32 -128 -58 -154 -17 -16 -36 -29 -44 -29 -8 0 -15 -4 -15 -9 0 -5
-31 -12 -68 -16 -96 -9 -127 -40 -148 -145 -7 -34 -15 -45 -69 -85 -33 -24
-59 -33 -102 -34 -43 -1 -113 -67 -113 -104 0 -14 -4 -29 -10 -32 -5 -3 -10
-13 -10 -20 0 -17 -54 -75 -70 -75 -5 0 -10 -4 -10 -9 0 -5 -24 -12 -52 -16
-48 -7 -88 -32 -88 -56 0 -4 -13 -12 -28 -17 -25 -8 -30 -17 -35 -55 -9 -64
-68 -125 -131 -133 -25 -4 -46 -10 -46 -15 0 -12 -53 -59 -65 -59 -12 0 -45
-67 -45 -91 0 -25 -86 -99 -114 -99 -14 0 -26 -4 -26 -10 0 -5 -5 -10 -10 -10
-14 0 -110 -96 -110 -110 0 -5 -4 -10 -10 -10 -5 0 -10 -11 -10 -24 0 -38 -84
-116 -125 -116 -8 0 -15 -4 -15 -10 0 -5 -6 -10 -14 -10 -16 0 -31 -13 -60
-54 -10 -14 -25 -26 -32 -26 -8 0 -14 -11 -14 -25 0 -38 -30 -104 -50 -110
-11 -3 -22 -15 -25 -25 -5 -14 -19 -21 -55 -26 -41 -5 -50 -11 -60 -35 -7 -16
-20 -31 -29 -34 -23 -7 -38 -39 -45 -93 -5 -33 -16 -53 -47 -83 -22 -21 -49
-39 -59 -39 -11 0 -20 -4 -20 -10 0 -5 -11 -10 -25 -10 -17 0 -39 -14 -64 -40
-33 -35 -39 -48 -45 -103 -3 -34 -11 -64 -16 -65 -12 -4 -30 -22 -49 -50 -11
-15 -30 -23 -70 -28 -72 -9 -121 -54 -121 -111 0 -53 -30 -132 -62 -165 -19
-20 -42 -30 -73 -35 -25 -3 -48 -10 -51 -14 -3 -5 -16 -9 -30 -9 -20 0 -24 -5
-24 -30 0 -17 -4 -38 -9 -48 -6 -9 -13 -38 -16 -64 -3 -27 -10 -48 -16 -48 -5
0 -9 -7 -9 -16 0 -8 -16 -32 -35 -52 -19 -20 -43 -55 -54 -77 -10 -22 -31 -47
-45 -54 -14 -8 -26 -18 -26 -23 0 -4 -7 -8 -15 -8 -8 0 -15 -4 -15 -10 0 -5
-7 -10 -15 -10 -8 0 -15 -7 -15 -15 0 -8 -4 -15 -10 -15 -5 0 -10 -7 -10 -15
0 -8 -4 -15 -10 -15 -5 0 -10 -9 -10 -19 0 -11 -5 -21 -11 -23 -6 -2 -13 -25
-16 -51 -3 -26 -10 -47 -14 -47 -5 0 -9 -8 -9 -17 0 -10 -11 -31 -25 -47 -14
-16 -25 -33 -25 -37 0 -4 -18 -10 -40 -14 -22 -4 -42 -11 -46 -16 -3 -5 -14
-9 -25 -9 -11 0 -23 -8 -26 -17 -4 -10 -14 -23 -22 -29 -10 -8 -17 -39 -22
-94 -4 -45 -12 -87 -18 -93 -6 -6 -11 -17 -11 -24 0 -8 -20 -33 -45 -57 -25
-25 -45 -48 -45 -54 0 -16 -34 -47 -65 -57 -16 -6 -36 -23 -45 -40 -8 -17 -18
-32 -21 -35 -3 -3 -9 -23 -12 -44 -4 -22 -10 -42 -14 -45 -15 -11 -33 -61 -33
-91 0 -17 -4 -30 -9 -30 -5 0 -11 -14 -15 -31 -7 -38 -60 -89 -92 -89 -13 0
-24 -4 -24 -10 0 -5 -13 -10 -28 -10 -34 0 -52 -31 -52 -87 0 -43 -17 -100
-54 -186 -9 -21 -16 -47 -16 -57 0 -11 -4 -20 -10 -20 -5 0 -10 -11 -10 -25 0
-14 -4 -25 -10 -25 -5 0 -10 -6 -10 -13 0 -24 -36 -57 -69 -63 -17 -4 -31 -10
-31 -15 0 -5 -9 -9 -20 -9 -13 0 -22 -9 -26 -25 -3 -14 -10 -25 -15 -25 -5 0
-9 -9 -9 -19 0 -11 -4 -22 -8 -25 -5 -3 -12 -45 -16 -93 -3 -48 -11 -89 -16
-91 -6 -2 -10 -15 -10 -28 0 -13 -4 -24 -10 -24 -5 0 -10 -9 -10 -20 0 -11 -4
-20 -9 -20 -5 0 -12 -13 -16 -30 -4 -16 -11 -30 -16 -30 -5 0 -9 -7 -9 -16 0
-19 -15 -34 -57 -59 -18 -11 -33 -23 -33 -27 0 -4 -8 -8 -18 -8 -25 0 -55 -71
-60 -145 -2 -33 -8 -64 -13 -69 -5 -6 -9 -23 -9 -38 0 -16 -4 -36 -9 -46 -23
-43 -41 -92 -41 -111 0 -12 -4 -21 -10 -21 -5 0 -10 -9 -10 -20 0 -11 -4 -20
-10 -20 -5 0 -10 -7 -10 -15 0 -8 -4 -15 -9 -15 -5 0 -13 -9 -16 -20 -3 -11
-17 -23 -31 -26 -13 -3 -24 -10 -24 -15 0 -5 -11 -9 -25 -9 -17 0 -26 -7 -30
-22 -17 -75 -28 -129 -35 -173 -5 -27 -14 -72 -20 -100 -6 -27 -16 -78 -22
-112 -6 -35 -15 -63 -20 -63 -4 0 -8 -7 -8 -15 0 -8 -4 -15 -10 -15 -5 0 -10
-7 -10 -15 0 -16 -54 -75 -70 -75 -5 0 -10 -4 -10 -9 0 -6 -15 -11 -32 -13
-38 -3 -33 11 -69 -223 -6 -38 -15 -79 -19 -90 -5 -11 -11 -59 -14 -107 -3
-48 -10 -96 -15 -107 -6 -12 -15 -30 -21 -41 -5 -10 -13 -37 -16 -60 -4 -22
-10 -40 -15 -40 -5 0 -9 -9 -9 -19 0 -11 -9 -22 -19 -26 -11 -3 -23 -15 -26
-25 -4 -11 -18 -23 -33 -27 -66 -16 -75 -45 -101 -333 -6 -63 -16 -131 -21
-151 -6 -20 -10 -53 -10 -73 0 -20 -4 -36 -9 -36 -4 0 -11 -27 -15 -60 -4 -33
-11 -60 -16 -60 -6 0 -10 -13 -10 -30 0 -16 -4 -30 -10 -30 -5 0 -10 -5 -10
-11 0 -10 -6 -18 -37 -51 -22 -23 -42 -38 -53 -38 -5 0 -10 -4 -10 -10 0 -5
-7 -10 -15 -10 -21 0 -25 -25 -50 -285 -8 -82 -19 -188 -24 -235 -6 -47 -16
-140 -22 -207 -7 -68 -16 -123 -21 -123 -4 0 -8 -18 -8 -40 0 -22 -4 -40 -10
-40 -5 0 -10 -11 -10 -25 0 -14 -4 -25 -9 -25 -5 0 -12 -16 -15 -35 -4 -19
-11 -35 -16 -35 -6 0 -10 -7 -10 -16 0 -17 -36 -54 -52 -54 -27 0 -42 -37 -50
-119 -34 -359 -43 -474 -59 -821 -6 -140 -15 -256 -20 -258 -5 -2 -9 -46 -9
-98 0 -56 -4 -94 -10 -94 -6 0 -10 -32 -10 -75 0 -41 -4 -75 -9 -75 -5 0 -12
-58 -16 -130 -4 -71 -11 -130 -16 -130 -5 0 -9 -16 -9 -35 0 -19 -4 -35 -10
-35 -5 0 -10 -16 -10 -35 0 -19 -4 -35 -9 -35 -5 0 -13 -36 -17 -80 -3 -44
-11 -80 -15 -80 -5 0 -9 -7 -9 -15 0 -8 -4 -15 -9 -15 -13 0 -29 -53 -36 -120
-9 -83 -12 -1301 -4 -1665 7 -305 16 -395 39 -395 6 0 10 -7 10 -15 0 -8 4
-15 9 -15 5 0 12 -30 16 -67 6 -63 13 -90 36 -135 5 -10 9 -36 9 -58 0 -22 4
-40 9 -40 5 0 12 -56 16 -125 4 -69 11 -128 16 -131 5 -3 9 -36 9 -74 0 -38 5
-72 10 -75 6 -3 10 -46 10 -94 0 -48 4 -91 9 -96 5 -6 14 -125 21 -265 16
-360 31 -571 59 -818 10 -87 24 -122 49 -122 16 0 52 -37 52 -54 0 -9 4 -16 9
-16 5 0 12 -14 16 -30 4 -16 11 -30 16 -30 5 0 9 -13 9 -30 0 -16 5 -30 10
-30 6 0 10 -14 10 -30 0 -17 4 -38 10 -48 5 -9 14 -69 20 -132 6 -63 15 -151
21 -195 5 -44 16 -150 24 -235 22 -230 29 -271 48 -285 10 -7 29 -21 43 -31
40 -29 74 -67 74 -84 0 -5 5 -10 10 -10 6 0 10 -9 10 -19 0 -11 4 -22 9 -26 5
-3 13 -31 17 -63 3 -31 10 -61 14 -67 9 -11 12 -36 35 -235 35 -308 40 -331
80 -345 29 -10 89 -65 111 -102 6 -10 15 -34 18 -53 7 -32 12 -48 38 -105 4
-11 13 -60 18 -110 5 -49 14 -112 20 -140 6 -27 15 -79 20 -115 21 -141 22
-144 59 -156 32 -10 111 -74 111 -89 0 -4 8 -19 18 -33 11 -15 24 -54 30 -87
15 -82 21 -114 32 -155 5 -19 17 -78 26 -130 18 -102 26 -120 55 -120 11 0 19
-4 19 -9 0 -5 11 -12 25 -15 14 -4 25 -10 25 -15 0 -5 7 -16 14 -24 23 -22 53
-80 61 -115 3 -18 11 -34 16 -37 5 -4 9 -17 9 -30 0 -13 4 -27 10 -30 5 -3 10
-21 10 -40 0 -19 4 -36 9 -39 4 -3 11 -34 13 -69 3 -35 10 -72 16 -83 6 -10
13 -27 16 -37 3 -11 15 -21 26 -24 11 -3 20 -9 20 -13 0 -5 9 -11 20 -15 34
-11 89 -75 96 -111 3 -19 10 -34 15 -34 5 0 9 -9 9 -20 0 -11 5 -20 10 -20 6
0 10 -8 10 -18 0 -10 4 -22 10 -28 5 -5 13 -49 16 -97 4 -48 11 -90 16 -93 4
-3 8 -14 8 -25 0 -10 4 -19 9 -19 5 0 12 -11 15 -25 5 -18 13 -25 32 -25 43 0
90 -36 118 -90 33 -61 36 -69 36 -86 0 -9 6 -28 14 -42 33 -64 41 -92 56 -196
4 -32 12 -61 17 -66 4 -4 33 -16 63 -26 59 -20 120 -73 120 -105 0 -10 4 -21
10 -24 5 -3 10 -21 10 -40 0 -19 5 -37 10 -40 6 -3 10 -15 10 -26 0 -10 4 -19
9 -19 5 0 12 -15 16 -33 14 -66 36 -102 74 -120 21 -10 44 -28 52 -40 8 -12
31 -38 52 -59 20 -22 37 -43 37 -48 0 -6 5 -10 10 -10 6 0 10 -9 10 -19 0 -11
5 -21 10 -23 6 -2 13 -37 16 -78 4 -50 12 -84 25 -102 10 -15 19 -32 19 -37 0
-6 31 -20 70 -32 38 -11 70 -25 70 -30 0 -5 11 -19 25 -31 14 -12 25 -30 25
-39 0 -10 5 -21 10 -24 6 -3 10 -18 10 -33 0 -56 65 -153 138 -206 38 -29 62
-53 62 -65 0 -10 16 -35 35 -54 19 -19 35 -40 35 -46 0 -6 3 -11 8 -11 11 0
32 -53 38 -97 3 -21 10 -47 14 -58 5 -11 10 -31 12 -45 3 -22 9 -26 58 -33 30
-4 57 -12 58 -17 2 -6 10 -10 18 -10 42 0 104 -114 104 -190 0 -59 48 -102
129 -114 33 -5 54 -17 83 -46 35 -35 40 -46 45 -99 5 -53 10 -64 46 -100 22
-23 46 -41 54 -41 73 0 149 -70 160 -146 5 -37 14 -57 40 -82 18 -19 33 -38
33 -42 0 -4 22 -15 49 -24 73 -23 141 -98 141 -154 0 -10 10 -27 23 -38 12
-11 33 -33 47 -49 14 -17 49 -41 78 -55 58 -26 112 -79 112 -110 0 -31 109
-140 165 -166 69 -32 85 -49 123 -127 18 -37 38 -67 45 -67 7 0 23 -13 37 -29
16 -20 40 -34 71 -41 66 -16 119 -73 126 -134 4 -33 11 -47 25 -52 10 -3 33
-20 49 -39 22 -24 41 -34 72 -37 46 -5 117 -45 117 -65 0 -7 5 -13 10 -13 6 0
10 -9 10 -19 0 -11 5 -23 10 -26 6 -3 10 -17 10 -31 0 -33 54 -82 100 -90 85
-13 173 -76 185 -129 23 -109 27 -114 140 -141 38 -9 79 -22 90 -28 41 -23 74
-64 81 -102 3 -21 10 -43 14 -49 5 -5 10 -21 12 -35 3 -23 9 -26 66 -33 55 -7
146 -39 162 -57 24 -27 97 -80 111 -80 23 0 64 -40 84 -84 19 -39 110 -99 167
-111 52 -10 91 -27 118 -52 14 -13 27 -23 31 -23 3 0 14 -29 24 -65 24 -82 60
-110 150 -118 75 -6 148 -39 197 -89 21 -21 43 -38 49 -38 16 0 33 -21 48 -58
13 -32 73 -72 110 -72 9 0 39 -12 66 -25 28 -14 66 -25 85 -25 55 0 140 -70
140 -115 0 -13 5 -27 10 -30 6 -3 10 -13 10 -21 0 -24 41 -53 75 -54 28 -1
104 -16 185 -38 19 -5 57 -19 83 -31 27 -11 53 -21 58 -21 28 0 99 -91 99
-126 0 -16 54 -57 95 -72 17 -6 62 -13 101 -15 66 -5 164 -38 172 -59 2 -4 10
-8 19 -8 49 0 153 -97 153 -142 0 -19 74 -46 155 -57 118 -16 205 -38 205 -51
0 -4 20 -11 44 -14 23 -4 52 -15 62 -24 10 -10 27 -21 36 -25 22 -8 68 -80 68
-107 0 -13 9 -22 28 -26 15 -3 41 -10 57 -14 17 -5 67 -14 112 -20 45 -6 104
-17 130 -24 26 -8 69 -17 95 -21 26 -3 50 -10 53 -16 4 -5 15 -9 26 -9 10 0
19 -4 19 -9 0 -5 11 -12 25 -15 14 -4 25 -12 25 -19 0 -7 8 -22 19 -33 10 -12
22 -35 26 -52 4 -22 14 -33 28 -36 12 -2 47 -9 77 -15 71 -14 103 -19 230 -35
58 -8 132 -24 165 -36 33 -12 78 -27 100 -34 53 -15 115 -46 115 -56 0 -5 8
-11 18 -14 10 -4 26 -24 36 -45 16 -38 20 -40 89 -55 40 -8 116 -17 169 -21
54 -3 109 -10 124 -15 14 -6 44 -10 67 -10 41 -1 122 -19 142 -31 6 -4 34 -10
62 -14 29 -4 55 -11 59 -16 3 -5 15 -9 27 -9 12 0 33 -9 47 -20 14 -11 29 -20
35 -20 14 0 56 -51 67 -82 8 -22 17 -28 51 -32 23 -2 83 -10 132 -16 50 -7
131 -16 180 -21 92 -9 191 -19 375 -39 58 -6 109 -16 115 -21 5 -5 21 -9 36
-9 15 0 31 -4 34 -10 3 -5 17 -10 30 -10 13 0 27 -4 30 -10 3 -5 18 -10 33
-10 29 0 63 -22 121 -81 34 -34 42 -37 131 -49 179 -22 494 -47 780 -59 229
-11 396 -26 446 -42 17 -5 60 -9 97 -9 37 0 67 -4 67 -8 0 -5 55 -12 123 -16
67 -3 124 -11 125 -16 2 -6 19 -10 38 -10 19 0 34 -4 34 -9 0 -5 23 -12 50
-16 28 -4 50 -11 50 -16 0 -5 16 -9 35 -9 19 0 35 -4 35 -10 0 -5 20 -10 45
-10 25 0 45 -4 45 -9 0 -5 44 -15 98 -22 143 -21 1851 -20 2000 0 56 8 102 18
102 23 0 4 20 8 45 8 25 0 45 5 45 10 0 6 16 10 35 10 19 0 35 4 35 9 0 5 23
12 50 16 27 4 50 11 50 16 0 5 15 9 34 9 19 0 36 4 38 10 2 5 58 13 126 16 67
4 122 11 122 15 0 4 35 10 78 12 42 2 88 7 102 10 69 15 217 29 420 38 300 13
602 36 795 60 87 11 102 16 120 38 11 14 28 32 39 41 10 8 24 21 32 28 8 7 30
16 49 19 19 3 35 10 35 14 0 5 13 9 29 9 17 0 33 4 36 10 3 5 19 10 34 10 15
0 31 4 36 9 6 6 64 15 130 22 66 6 154 15 195 20 41 5 116 13 165 18 303 31
346 40 361 68 21 44 57 83 75 83 11 0 19 5 19 10 0 6 7 10 15 10 8 0 15 5 15
10 0 6 11 10 25 10 14 0 25 4 25 9 0 5 26 12 58 16 31 4 62 10 67 13 20 13
101 31 142 32 23 0 53 4 67 10 15 5 70 12 124 15 53 4 130 13 169 21 65 14 74
18 80 42 3 15 16 35 27 44 12 10 26 22 33 28 7 5 17 10 23 10 5 0 10 5 10 10
0 6 9 10 20 10 11 0 20 3 20 8 0 4 19 13 43 19 23 6 74 22 112 36 39 13 106
28 150 31 44 4 96 11 115 16 19 5 67 14 105 20 115 19 113 17 120 52 4 17 16
40 26 52 11 11 19 26 19 33 0 7 11 15 25 19 14 3 25 10 25 15 0 5 9 9 19 9 11
0 22 4 25 9 4 5 25 12 49 16 23 3 78 14 122 25 44 10 105 21 135 24 30 4 69
11 85 15 17 5 42 12 58 15 18 4 27 13 27 26 0 27 46 99 68 107 9 4 26 15 36
25 10 9 39 20 62 24 24 3 44 10 44 14 0 13 91 36 203 50 82 11 157 38 157 56
0 41 85 129 134 140 17 3 33 10 36 13 16 23 112 53 179 58 77 6 155 33 178 63
7 8 13 26 13 39 0 14 17 40 43 65 38 38 62 50 167 87 19 6 44 16 55 20 11 4
54 13 95 19 87 14 140 37 140 62 0 9 5 20 10 23 6 3 10 17 10 30 0 44 85 115
137 115 18 0 57 11 87 25 30 14 60 25 67 25 34 0 87 35 105 69 20 38 51 71 67
71 5 0 23 15 41 33 42 46 118 79 196 86 71 7 130 40 130 72 0 10 4 20 9 23 4
3 11 23 15 45 4 27 12 42 25 46 11 3 22 14 25 23 5 16 39 30 120 48 55 13 140
73 165 117 28 49 57 77 82 77 10 0 34 16 55 35 20 19 41 35 45 35 5 0 9 5 9
10 0 6 9 10 20 10 11 0 20 4 20 8 0 12 66 32 130 40 l55 7 9 58 c4 31 12 57
17 57 5 0 9 7 9 15 0 16 43 62 76 81 11 6 51 19 89 28 112 27 118 33 140 139
3 15 15 39 27 52 28 33 104 75 134 75 55 0 124 52 124 94 0 14 4 27 9 30 4 3
11 18 14 33 8 38 77 84 133 91 32 3 51 12 68 32 12 15 32 33 44 39 15 8 22 21
22 41 0 17 5 30 10 30 6 0 10 7 10 15 0 29 69 92 113 104 54 14 136 90 168
156 29 60 49 79 114 109 58 27 159 130 168 173 4 15 17 39 30 53 24 26 103 70
125 70 6 0 12 4 12 8 0 4 20 28 45 53 24 24 45 52 45 62 0 43 72 137 104 137
8 0 18 5 21 10 3 6 15 10 25 10 11 0 25 7 32 15 7 9 27 30 44 48 22 23 33 46
37 81 4 28 11 52 15 55 4 4 18 21 31 39 14 21 31 32 46 32 13 0 27 5 30 10 3
6 16 10 28 10 45 1 97 66 97 122 0 20 5 40 10 43 5 3 10 13 10 22 0 8 17 33
38 54 29 28 50 40 83 45 81 12 107 34 118 101 18 103 74 203 115 203 8 0 16 4
18 10 2 5 28 13 58 17 l55 8 8 60 c4 33 12 69 16 80 5 11 15 35 23 53 7 17 16
32 20 32 5 0 8 5 8 11 0 6 16 27 35 46 19 19 35 43 35 52 0 20 49 67 94 92 16
8 37 29 45 45 9 16 26 45 39 65 12 20 22 50 22 67 0 17 5 34 10 37 5 3 10 13
10 21 0 8 11 26 25 40 14 14 25 29 25 34 0 5 32 19 70 30 39 11 70 25 70 31 0
5 8 19 19 30 13 15 20 41 24 102 3 45 10 83 16 85 6 2 11 12 11 23 0 10 5 19
10 19 6 0 10 5 10 12 0 13 48 58 62 58 4 0 8 6 8 13 0 22 32 53 78 77 27 14
42 29 42 41 0 10 4 19 9 19 5 0 12 20 15 45 4 25 11 45 17 45 5 0 9 9 9 19 0
11 5 23 10 26 5 3 10 21 10 40 0 19 4 44 9 57 11 28 73 98 88 98 27 0 103 41
103 55 0 8 4 15 9 15 5 0 12 21 15 48 9 79 18 122 26 122 4 0 10 18 14 40 3
22 11 40 16 40 6 0 10 11 10 25 0 14 5 25 10 25 6 0 10 11 10 25 0 14 5 25 10
25 6 0 10 6 10 13 0 29 67 82 111 89 13 1 28 13 34 26 5 12 13 22 17 22 5 0 8
9 8 19 0 11 4 22 9 25 4 3 12 46 15 96 4 49 12 92 17 95 5 4 9 15 9 26 0 10 5
19 10 19 6 0 10 9 10 20 0 11 4 20 10 20 5 0 12 16 16 35 3 19 10 35 15 35 5
0 9 5 9 11 0 15 44 56 70 64 11 3 20 10 20 15 0 4 8 10 19 13 28 7 52 64 58
140 3 37 10 70 14 73 5 3 9 20 9 39 0 19 5 37 10 40 6 3 10 14 10 24 0 10 7
32 15 47 8 16 15 37 15 47 0 9 5 17 10 17 6 0 10 9 10 20 0 11 5 20 10 20 6 0
10 6 10 13 0 27 38 58 120 97 16 7 48 138 49 197 1 17 6 35 11 38 5 3 10 24
10 45 0 21 4 41 9 44 5 3 12 35 16 71 3 36 11 65 16 65 5 0 9 7 9 15 0 8 5 15
10 15 6 0 10 8 10 17 0 25 77 90 115 97 30 6 34 11 39 49 4 23 11 69 16 102 5
33 16 110 24 170 24 173 27 186 56 245 4 9 11 35 15 58 4 23 11 42 16 42 5 0
9 9 9 19 0 11 9 23 20 26 11 3 20 10 20 14 0 16 36 47 65 56 21 7 31 18 33 35
2 14 7 30 12 35 4 6 11 62 14 125 4 63 11 119 17 124 5 6 9 40 9 77 0 37 5 71
10 74 5 3 10 26 10 50 0 24 4 46 9 50 5 3 13 34 16 70 4 36 11 65 16 65 5 0 9
11 9 25 0 14 5 25 10 25 6 0 10 7 10 15 0 8 4 15 10 15 5 0 12 11 16 25 4 15
13 25 24 25 10 0 22 9 25 20 3 11 15 20 25 20 29 0 34 15 48 150 7 69 17 159
22 200 5 41 12 113 16 160 4 47 10 90 14 95 4 6 11 62 14 125 4 63 11 117 17
118 5 2 9 21 9 43 0 21 5 39 10 39 6 0 10 14 10 30 0 17 4 30 9 30 5 0 12 14
16 30 4 16 11 30 16 30 5 0 9 7 9 15 0 20 31 55 48 55 30 0 44 32 54 118 30
292 45 492 58 812 6 140 15 263 20 272 6 10 10 56 10 102 0 47 4 88 10 91 5 3
10 37 10 75 0 38 4 71 9 74 5 3 12 62 16 131 4 69 11 125 16 125 5 0 9 20 9
44 0 25 4 47 9 51 5 3 12 31 16 63 3 31 10 65 15 74 6 10 10 29 10 43 0 14 5
25 10 25 6 0 10 5 10 11 0 6 6 17 14 24 31 31 37 147 39 805 5 1038 -6 1370
-44 1370 -5 0 -9 7 -9 15 0 8 -4 15 -10 15 -5 0 -10 16 -10 35 0 19 -4 35 -9
35 -4 0 -11 30 -14 67 -4 38 -11 69 -17 71 -5 2 -10 24 -10 48 0 24 -4 44 -9
44 -5 0 -12 58 -16 130 -4 71 -11 130 -16 130 -5 0 -9 34 -9 75 0 43 -4 75
-10 75 -6 0 -10 38 -10 94 0 52 -4 96 -9 98 -5 2 -14 120 -20 263 -13 277 -24
455 -40 625 -6 58 -14 144 -19 191 -8 86 -23 119 -54 119 -17 0 -48 35 -48 55
0 8 -4 15 -10 15 -5 0 -12 16 -16 35 -3 19 -10 35 -15 35 -5 0 -9 11 -9 25 0
14 -4 25 -10 25 -5 0 -10 18 -10 39 0 22 -4 41 -9 43 -5 2 -13 58 -17 126 -4
67 -10 122 -14 122 -4 0 -10 39 -14 88 -4 48 -9 121 -12 162 -4 41 -10 80 -14
85 -4 6 -11 60 -14 120 -8 127 -12 145 -32 145 -8 0 -14 5 -14 10 0 6 -5 10
-11 10 -10 0 -18 6 -51 37 -23 22 -38 42 -38 53 0 5 -4 10 -10 10 -5 0 -10 14
-10 30 0 17 -4 30 -10 30 -5 0 -12 27 -16 60 -4 33 -10 60 -14 60 -8 0 -14 45
-26 175 -2 33 -9 69 -14 80 -5 11 -14 72 -19 135 -12 144 -20 180 -37 180 -8
0 -14 4 -14 9 0 5 -13 11 -29 14 -17 4 -32 14 -36 26 -3 11 -15 23 -26 26 -10
4 -19 15 -19 26 0 10 -4 19 -9 19 -5 0 -12 23 -16 50 -4 28 -10 50 -15 50 -8
0 -17 35 -27 105 -3 22 -9 45 -13 50 -4 6 -11 55 -14 110 -4 55 -11 104 -16
110 -4 5 -10 30 -14 55 -16 132 -15 129 -52 136 -19 3 -34 10 -34 15 0 5 -5 9
-10 9 -17 0 -70 56 -70 74 0 9 -4 16 -10 16 -5 0 -10 7 -10 15 0 8 -4 15 -9
15 -5 0 -12 29 -16 65 -3 36 -11 67 -16 70 -5 4 -9 24 -9 45 0 21 -4 42 -10
45 -5 3 -10 18 -10 33 0 25 -24 155 -36 195 -3 10 -15 17 -30 17 -13 0 -24 5
-24 10 0 6 -7 10 -15 10 -8 0 -26 11 -40 25 -14 14 -25 32 -25 40 0 8 -4 15
-10 15 -5 0 -10 9 -10 20 0 11 -4 20 -9 20 -5 0 -12 20 -15 45 -4 25 -11 45
-17 45 -5 0 -9 11 -9 25 0 14 -4 25 -10 25 -5 0 -10 15 -10 34 0 19 -4 37 -9
40 -4 3 -11 40 -14 82 -3 42 -10 80 -15 83 -5 3 -12 16 -16 29 -4 12 -15 22
-24 22 -10 0 -24 9 -32 20 -8 11 -21 20 -30 20 -19 0 -50 34 -50 55 0 8 -4 15
-9 15 -5 0 -12 14 -16 30 -4 17 -11 30 -16 30 -5 0 -9 9 -9 20 0 11 -4 20 -10
20 -5 0 -10 11 -10 24 0 13 -4 26 -10 28 -5 2 -12 45 -16 96 -4 50 -11 92 -15
92 -5 0 -9 9 -9 20 0 11 -4 20 -9 20 -5 0 -12 11 -15 25 -4 16 -13 25 -26 25
-11 0 -20 4 -20 9 0 5 -15 13 -32 17 -34 7 -68 37 -68 61 0 7 -4 13 -10 13 -5
0 -10 11 -10 25 0 14 -4 25 -10 25 -5 0 -10 14 -10 30 0 17 -4 30 -10 30 -5 0
-12 12 -16 28 -3 15 -9 36 -13 47 -21 53 -31 95 -31 131 -1 45 -28 84 -59 84
-12 0 -21 4 -21 9 0 5 -14 11 -30 15 -30 6 -80 46 -80 65 0 5 -5 11 -11 13 -6
2 -13 32 -16 66 -3 34 -10 62 -14 62 -5 0 -9 7 -9 15 0 8 -4 15 -9 15 -6 0
-13 20 -17 45 -3 25 -10 45 -15 45 -5 0 -9 8 -9 18 -1 26 -23 50 -56 58 -28 7
-64 38 -64 56 0 5 -20 29 -45 52 -25 24 -45 50 -45 58 0 8 -4 18 -10 24 -5 5
-13 45 -17 89 -4 56 -11 83 -25 97 -10 10 -18 25 -18 33 0 9 -9 15 -25 15 -14
0 -25 4 -25 9 0 5 -20 12 -45 15 -25 4 -45 11 -45 15 0 4 -11 21 -25 37 -14
16 -25 37 -25 47 0 9 -4 17 -9 17 -4 0 -11 21 -14 47 -3 26 -10 49 -16 51 -6
2 -11 12 -11 23 0 10 -4 19 -10 19 -5 0 -10 7 -10 15 0 8 -4 15 -10 15 -5 0
-10 7 -10 15 0 8 -7 15 -15 15 -8 0 -15 5 -15 10 0 6 -7 10 -15 10 -21 0 -85
67 -85 90 0 11 -4 20 -10 20 -5 0 -10 4 -10 10 0 5 -16 24 -35 43 -19 19 -35
41 -35 51 0 9 -4 16 -10 16 -5 0 -10 11 -10 25 0 14 -4 25 -9 25 -5 0 -12 32
-16 70 -7 69 -8 70 -35 70 -16 0 -31 4 -34 9 -3 4 -24 11 -46 15 -70 11 -122
89 -139 207 -10 64 -42 94 -111 103 -49 7 -90 32 -90 57 0 4 -9 11 -20 14 -14
4 -20 15 -20 36 0 16 -4 29 -10 29 -5 0 -10 18 -10 39 0 31 -7 47 -35 75 -22
23 -44 36 -60 36 -14 0 -25 5 -25 10 0 6 -9 10 -21 10 -11 0 -38 18 -59 39
-32 32 -40 49 -46 93 -6 48 -31 88 -54 88 -4 0 -13 13 -19 29 -10 24 -20 30
-57 35 -68 9 -134 88 -134 161 0 14 -6 25 -14 25 -7 0 -22 12 -32 26 -31 43
-44 54 -65 54 -10 0 -19 3 -19 8 0 4 -15 13 -32 21 -44 19 -98 78 -98 107 0
13 -4 24 -10 24 -5 0 -10 5 -10 10 0 14 -96 110 -110 110 -5 0 -10 5 -10 10 0
6 -11 10 -25 10 -32 0 -104 72 -112 112 -3 15 -9 28 -14 28 -5 0 -9 6 -9 13 0
6 -14 23 -32 37 -17 14 -41 34 -53 46 -12 12 -38 24 -59 28 -39 7 -116 75
-116 102 0 8 -4 14 -10 14 -5 0 -10 14 -10 30 0 23 -6 33 -25 42 -14 6 -25 14
-25 18 0 23 -40 48 -88 55 -28 4 -52 11 -52 16 0 5 -5 9 -10 9 -19 0 -70 57
-70 79 0 11 -4 21 -10 21 -5 0 -10 12 -10 26 0 41 -70 104 -116 104 -72 0
-156 60 -169 121 -21 106 -49 134 -143 144 -40 4 -72 11 -72 16 0 5 -7 9 -15
9 -19 0 -75 55 -75 75 0 8 -4 15 -10 15 -5 0 -12 27 -16 60 -6 57 -8 60 -35
60 -15 0 -30 4 -33 9 -3 4 -33 11 -66 15 -33 4 -60 11 -60 16 0 6 -7 10 -16
10 -9 0 -31 16 -50 35 -18 19 -37 35 -43 35 -6 0 -11 4 -11 9 0 5 -14 11 -31
15 -35 7 -59 27 -59 50 0 9 -4 16 -10 16 -5 0 -10 7 -10 15 0 8 -4 15 -10 15
-5 0 -10 7 -10 15 0 8 -7 15 -15 15 -8 0 -15 5 -15 10 0 6 -9 10 -20 10 -11 0
-20 5 -20 10 0 6 -6 10 -14 10 -8 0 -16 5 -18 11 -2 6 -25 13 -51 16 -26 3
-47 10 -47 14 0 5 -13 9 -29 9 -21 0 -32 6 -36 19 -3 11 -14 23 -25 26 -12 4
-21 19 -25 45 -4 22 -11 42 -16 46 -5 3 -9 16 -9 30 0 13 -5 24 -11 24 -7 0
-19 8 -28 18 -12 14 -37 21 -91 26 -41 3 -79 11 -84 16 -6 6 -18 10 -28 10
-10 0 -18 5 -18 10 0 6 -7 10 -15 10 -8 0 -33 18 -55 40 -22 22 -45 40 -51 40
-16 0 -39 27 -39 44 0 9 -4 16 -10 16 -5 0 -12 11 -16 25 -4 18 -13 25 -30 25
-13 0 -24 4 -24 9 0 6 -20 13 -45 17 -25 3 -45 10 -45 15 0 5 -9 9 -19 9 -11
0 -23 5 -26 10 -3 6 -22 10 -41 10 -19 0 -34 4 -34 9 0 5 -14 11 -30 15 -39 7
-79 47 -86 86 -4 17 -11 33 -15 36 -5 3 -9 18 -9 33 0 24 -5 30 -31 35 -17 3
-44 6 -60 6 -16 0 -29 5 -29 10 0 6 -25 10 -55 10 -30 0 -55 5 -55 10 0 6 -11
10 -25 10 -14 0 -25 4 -25 10 0 5 -18 13 -40 16 -22 4 -40 10 -40 15 0 5 -11
9 -25 9 -38 0 -106 72 -112 121 -5 31 -11 41 -29 45 -13 3 -24 10 -24 15 0 5
-9 9 -20 9 -11 0 -20 4 -20 9 0 5 -43 12 -95 16 -52 4 -95 11 -95 16 0 5 -11
9 -25 9 -14 0 -25 5 -25 10 0 6 -9 10 -20 10 -11 0 -20 4 -20 10 0 5 -16 12
-35 16 -19 3 -35 10 -35 15 0 5 -5 9 -10 9 -16 0 -70 59 -70 75 0 8 -4 15 -9
15 -5 0 -11 10 -13 22 -2 13 -11 24 -23 27 -11 2 -23 8 -26 13 -3 5 -43 12
-88 15 -44 3 -81 10 -81 14 0 5 -20 9 -45 9 -25 0 -45 5 -45 10 0 6 -11 10
-25 10 -14 0 -25 4 -25 9 0 6 -20 13 -45 17 -25 3 -45 10 -45 15 0 5 -5 9 -10
9 -6 0 -22 11 -36 25 -14 14 -29 25 -34 25 -5 0 -12 11 -16 25 -3 14 -10 25
-14 25 -5 0 -10 12 -12 28 -3 24 -9 28 -50 36 -27 5 -48 13 -48 18 0 4 -31 8
-70 8 -40 0 -70 4 -70 10 0 6 -20 10 -44 10 -25 0 -47 4 -50 9 -3 5 -35 12
-71 16 -36 3 -65 11 -65 16 0 5 -10 9 -23 9 -12 0 -29 9 -37 20 -8 11 -20 20
-27 20 -7 0 -13 5 -13 11 0 7 -8 19 -18 28 -11 9 -22 33 -26 54 -7 36 -8 37
-51 37 -25 0 -45 5 -45 10 0 6 -27 10 -60 10 -33 0 -60 4 -60 10 0 6 -20 10
-45 10 -25 0 -45 4 -45 9 0 4 -40 11 -90 14 -49 4 -98 11 -107 16 -47 25 -93
41 -117 41 -14 0 -26 5 -26 10 0 6 -9 10 -20 10 -11 0 -20 5 -20 10 0 6 -5 10
-11 10 -6 0 -16 6 -23 13 -8 6 -23 18 -34 26 -11 8 -23 29 -27 48 -5 30 -9 33
-40 33 -19 0 -35 5 -35 10 0 6 -33 10 -80 10 -44 0 -80 4 -80 9 0 5 -58 12
-130 16 -71 4 -130 11 -130 16 0 5 -18 9 -40 9 -22 0 -40 4 -40 9 0 5 -29 13
-65 16 -36 4 -65 11 -65 16 0 5 -11 9 -25 9 -14 0 -25 5 -25 10 0 6 -7 10 -15
10 -8 0 -15 5 -15 10 0 6 -8 10 -18 10 -20 0 -52 33 -52 55 0 8 -4 15 -10 15
-5 0 -10 5 -10 11 0 25 -30 39 -83 39 -31 0 -57 4 -59 10 -1 5 -67 13 -145 16
-79 4 -143 11 -143 16 0 4 -38 8 -85 8 -47 0 -85 4 -85 9 0 4 -55 11 -122 15
-68 4 -124 12 -126 17 -2 5 -19 9 -38 9 -19 0 -34 5 -34 10 0 6 -16 10 -35 10
-19 0 -35 4 -35 9 0 4 -16 11 -35 14 -25 4 -51 22 -92 64 l-57 58 -78 4 c-43
2 -78 7 -78 12 0 5 -47 9 -105 9 -63 0 -105 4 -105 10 0 6 -50 10 -130 10 -71
0 -130 4 -130 9 0 4 -120 12 -267 16 -148 4 -269 11 -271 16 -2 5 -37 9 -78 9
-43 0 -74 4 -74 10 0 6 -35 10 -85 10 -47 0 -85 4 -85 8 0 5 -55 12 -122 16
-68 3 -124 11 -126 16 -2 6 -19 10 -38 10 -19 0 -34 5 -34 10 0 6 -11 10 -25
10 -14 0 -25 4 -25 10 0 5 -27 12 -60 16 -33 4 -60 11 -60 15 0 5 -20 9 -45 9
-25 0 -45 4 -45 9 0 5 -29 12 -65 16 -36 3 -65 11 -65 16 0 5 -386 9 -970 9
-555 0 -970 -4 -970 -9z m6975 -9460 c749 -30 962 -56 1018 -127 10 -13 24
-24 32 -24 7 0 33 -20 57 -44 29 -30 54 -45 78 -49 19 -2 76 -12 125 -20 50
-9 131 -19 180 -22 115 -9 267 -42 318 -68 27 -14 72 -57 78 -75 2 -5 20 -28
41 -50 33 -36 43 -41 105 -50 37 -6 86 -16 108 -22 22 -6 60 -15 85 -20 124
-23 158 -38 199 -82 8 -10 21 -18 29 -18 15 0 112 -94 112 -110 0 -5 7 -10 15
-10 8 0 23 -4 33 -9 36 -18 119 -44 180 -56 95 -18 139 -54 174 -141 l29 -70
62 -14 c34 -7 73 -19 87 -27 14 -7 30 -13 36 -13 30 0 94 -130 94 -191 0 -31
4 -39 19 -39 50 0 117 -45 156 -104 25 -38 45 -208 55 -463 6 -149 10 -1958 9
-4528 0 -4465 -1 -4605 -41 -4732 -17 -52 -56 -86 -124 -108 -45 -14 -88 -16
-266 -13 l-213 3 -77 38 c-43 20 -82 37 -87 37 -14 0 -80 38 -98 56 -8 7 -18
14 -23 14 -5 0 -11 13 -15 30 -4 16 -11 32 -16 35 -5 4 -9 14 -9 23 0 22 -89
68 -145 76 -124 18 -157 29 -249 89 -41 27 -95 86 -102 111 -4 17 -15 28 -33
33 -14 3 -44 14 -66 23 -23 10 -79 21 -130 24 -49 4 -94 11 -99 16 -6 6 -20
10 -32 10 -13 0 -25 4 -28 9 -3 4 -26 11 -52 15 -25 3 -58 15 -74 26 -15 11
-31 20 -35 20 -10 0 -38 30 -50 54 -25 47 -40 71 -50 78 -5 4 -39 10 -75 13
-61 6 -267 33 -410 54 -36 6 -87 13 -115 16 -95 11 -150 25 -227 59 -20 9 -41
16 -47 16 -6 0 -11 5 -11 10 0 6 -7 10 -15 10 -8 0 -15 5 -15 10 0 6 -9 10
-19 10 -10 0 -21 7 -25 15 -3 8 -13 15 -22 15 -9 0 -24 8 -33 19 -22 25 -143
38 -496 52 -374 15 -1218 6 -1454 -16 -163 -15 -176 -18 -196 -41 -11 -13 -26
-24 -33 -24 -6 0 -17 -9 -24 -20 -7 -11 -22 -20 -33 -20 -11 0 -29 -7 -39 -15
-11 -8 -34 -15 -52 -15 -18 0 -36 -4 -39 -10 -3 -5 -19 -10 -35 -10 -16 0 -32
-5 -35 -10 -3 -6 -19 -10 -35 -10 -16 0 -31 -4 -34 -9 -3 -5 -43 -12 -88 -15
-46 -4 -119 -11 -163 -16 -44 -5 -125 -14 -180 -20 -55 -5 -181 -19 -281 -30
-99 -11 -183 -20 -187 -20 -4 0 -7 -5 -7 -12 0 -14 -80 -98 -93 -98 -4 0 -25
-13 -45 -30 -28 -22 -54 -32 -107 -39 -39 -6 -96 -17 -129 -26 -32 -8 -100
-18 -150 -21 -102 -6 -364 -52 -383 -67 -7 -5 -13 -18 -13 -28 0 -18 -78 -109
-94 -109 -4 0 -22 -6 -39 -14 -56 -25 -100 -35 -202 -46 -167 -18 -226 -27
-332 -51 -93 -22 -104 -27 -114 -52 -7 -15 -20 -32 -30 -38 -11 -5 -19 -16
-19 -24 0 -8 -4 -15 -9 -15 -5 0 -16 -6 -23 -13 -54 -52 -129 -73 -418 -112
-146 -20 -210 -35 -210 -47 0 -6 -12 -29 -26 -52 -58 -91 -306 -171 -590 -191
-110 -7 -140 -19 -148 -55 -3 -16 -21 -45 -41 -65 -19 -20 -35 -41 -35 -46 0
-5 -18 -12 -40 -15 -22 -4 -43 -11 -46 -15 -3 -5 -14 -9 -25 -9 -11 0 -46 -9
-78 -20 -32 -11 -103 -24 -157 -28 -55 -5 -124 -16 -154 -25 -30 -8 -73 -18
-95 -22 -36 -6 -75 -36 -75 -57 0 -4 -7 -8 -15 -8 -8 0 -15 -6 -15 -13 0 -16
-33 -57 -45 -57 -5 0 -16 -6 -24 -14 -9 -7 -41 -23 -72 -34 -51 -19 -94 -26
-324 -52 -44 -5 -105 -14 -135 -20 -30 -7 -65 -14 -78 -16 -12 -3 -28 -17 -35
-32 -7 -15 -26 -40 -42 -57 -34 -33 -143 -91 -190 -100 -16 -3 -48 -10 -70
-15 -64 -16 -213 -38 -300 -45 -44 -3 -111 -13 -148 -22 -56 -13 -70 -20 -78
-40 -18 -49 -113 -115 -204 -142 -22 -7 -47 -15 -55 -18 -40 -16 -224 -42
-295 -42 -85 -1 -337 -47 -344 -64 -7 -17 -82 -86 -102 -92 -10 -4 -19 -10
-19 -15 0 -5 -17 -12 -37 -15 -21 -4 -47 -11 -58 -16 -94 -43 -586 -86 -1390
-120 -411 -18 -847 -6 -1490 41 -387 28 -410 31 -494 56 -47 14 -95 28 -106
32 -35 10 -115 73 -115 90 -1 46 -72 71 -255 92 -163 18 -282 40 -322 61 -20
10 -41 19 -45 19 -11 0 -88 76 -88 87 0 5 -12 23 -28 40 -30 34 -56 43 -230
78 -62 13 -124 30 -137 39 -13 9 -30 16 -37 16 -15 0 -88 65 -88 78 0 5 -12
20 -28 33 -15 14 -34 35 -42 47 -10 15 -32 25 -67 32 -28 5 -71 18 -95 29 -24
11 -63 23 -88 26 -87 14 -160 87 -179 179 -8 37 -53 61 -140 75 -47 8 -72 18
-92 37 -31 30 -64 99 -75 159 -8 46 -24 65 -54 65 -27 0 -86 25 -106 44 -8 9
-23 21 -32 28 -19 14 -43 103 -69 258 -16 87 -17 483 -20 4765 l-4 4670 22
134 c23 151 42 194 91 220 71 35 142 45 237 33 49 -7 112 -12 141 -12 66 0
160 -34 193 -69 13 -14 32 -51 41 -81 20 -67 43 -79 186 -105 91 -17 156 -44
173 -72 4 -7 17 -13 29 -13 28 0 118 -89 118 -117 0 -15 6 -23 18 -23 17 0 79
-20 97 -32 6 -3 46 -9 90 -12 84 -7 116 -14 232 -52 39 -13 78 -24 86 -24 27
0 108 -88 114 -124 5 -32 7 -34 72 -45 62 -11 130 -18 376 -41 276 -25 435
-62 595 -139 37 -17 90 -64 90 -80 0 -5 84 -12 188 -15 103 -3 257 -11 342
-16 230 -15 1023 -12 1443 5 l368 15 26 30 c13 17 31 30 39 30 8 0 14 4 14 8
0 12 56 42 79 42 12 0 32 7 44 15 32 20 143 45 282 62 66 8 152 18 190 24 96
13 239 26 435 39 91 6 175 15 188 21 13 5 33 9 45 9 16 0 31 13 52 45 15 25
40 52 54 60 128 71 270 104 541 125 74 6 144 15 155 20 21 9 59 16 138 26 26
4 47 12 47 18 1 15 120 129 150 143 80 36 117 43 425 83 242 31 255 35 255 70
0 10 15 25 35 34 19 9 35 21 35 26 0 21 98 78 155 90 168 35 254 48 376 60 59
5 119 14 133 20 15 5 43 10 62 10 20 0 34 5 34 13 0 6 30 42 68 78 96 94 172
120 427 144 77 7 158 19 180 25 22 7 55 14 73 17 18 3 32 11 32 19 0 25 57 79
118 111 127 69 164 77 482 113 89 10 224 41 232 54 20 32 87 94 108 101 14 4
32 13 40 19 67 51 111 61 478 105 226 28 220 26 292 97 82 81 125 104 225 121
44 8 103 18 130 23 28 6 113 14 190 20 146 9 249 21 410 46 28 5 53 19 85 49
79 73 155 103 352 135 149 24 233 30 598 44 234 10 522 21 640 26 225 9 696 5
1055 -9z"/>
</g>
</svg>
