<?xml version="1.0" standalone="no"?>
<!DOCTYPE svg PUBLIC "-//W3C//DTD SVG 20010904//EN"
 "http://www.w3.org/TR/2001/REC-SVG-20010904/DTD/svg10.dtd">
<svg version="1.0" xmlns="http://www.w3.org/2000/svg"
 width="50.000000pt" height="50.000000pt" viewBox="0 0 50.000000 50.000000"
 preserveAspectRatio="xMidYMid meet">
 <title>Icon by 4k17</title>

<g transform="translate(0.000000,50.000000) scale(0.100000,-0.100000)" stroke="none">
<path d="M371 476 c-13 -14 -20 -30 -16 -36 10 -16 -15 -41 -34 -35 -21 6
-267 -237 -256 -255 4 -6 -1 -20 -11 -31 -13 -15 -15 -22 -6 -31 9 -9 5 -20
-20 -45 -41 -43 -28 -56 15 -15 25 25 36 29 45 20 9 -9 16 -8 30 5 11 10 25
15 33 12 19 -7 264 238 254 254 -10 17 15 42 35 36 10 -3 26 5 40 20 l24 25
-49 50 c-27 28 -52 50 -55 50 -4 0 -17 -11 -29 -24z m69 -41 c27 -27 31 -38
22 -47 -10 -10 -20 -5 -48 24 -20 20 -33 41 -30 47 11 17 20 14 56 -24z m-40
-41 c11 -12 10 -18 -3 -32 -16 -15 -18 -15 -34 0 -13 14 -14 20 -3 32 7 9 16
16 20 16 4 0 13 -7 20 -16z m-50 -49 l34 -35 -112 -113 -112 -112 -37 37 c-29
29 -35 40 -25 50 9 9 16 7 32 -7 26 -24 39 -11 15 15 -23 26 -6 52 20 30 20
-17 32 -5 15 15 -22 26 4 43 30 20 26 -24 39 -11 15 15 -18 20 -18 21 30 70
27 28 52 50 55 50 3 0 21 -16 40 -35z m-240 -240 c10 -12 10 -19 2 -27 -15
-15 -48 14 -38 31 10 15 21 14 36 -4z"/>
<path d="M276 321 c-22 -24 -17 -55 10 -59 25 -4 57 30 52 55 -5 25 -41 28
-62 4z m44 -10 c0 -13 -29 -35 -37 -28 -7 8 15 37 28 37 5 0 9 -4 9 -9z"/>
</g>
</svg>
