<?xml version="1.0" standalone="no"?>
<!DOCTYPE svg PUBLIC "-//W3C//DTD SVG 20010904//EN"
 "http://www.w3.org/TR/2001/REC-SVG-20010904/DTD/svg10.dtd">
<svg version="1.0" xmlns="http://www.w3.org/2000/svg"
 width="1200.000000pt" height="1200.000000pt" viewBox="0 0 1200.000000 1200.000000"
 preserveAspectRatio="xMidYMid meet">

<g transform="translate(0.000000,1200.000000) scale(0.100000,-0.100000)" stroke="none">
<path d="M5384 11810 c-48 -20 -198 -40 -330 -44 -166 -5 -199 -10 -279 -41
-40 -15 -101 -27 -180 -34 -190 -18 -206 -20 -234 -35 -14 -7 -40 -21 -57 -30
-17 -9 -74 -23 -125 -32 -52 -9 -96 -20 -99 -24 -12 -18 -74 -40 -161 -56 -60
-12 -110 -28 -139 -45 -25 -15 -67 -33 -95 -40 -27 -6 -64 -20 -81 -30 -17
-10 -62 -28 -100 -40 -38 -12 -81 -32 -96 -44 -15 -13 -51 -28 -80 -35 -60
-14 -99 -32 -117 -53 -6 -9 -35 -21 -64 -27 -65 -16 -78 -22 -115 -60 -19 -18
-41 -30 -57 -30 -31 0 -73 -21 -99 -49 -10 -11 -40 -27 -66 -36 -26 -9 -55
-24 -65 -35 -9 -10 -40 -31 -69 -46 -28 -15 -64 -37 -80 -51 -15 -13 -44 -30
-62 -38 -19 -8 -34 -18 -34 -24 0 -5 -20 -21 -45 -36 -25 -14 -60 -39 -78 -54
-18 -16 -46 -35 -63 -44 -18 -9 -46 -29 -63 -44 -59 -54 -107 -90 -156 -119
-27 -16 -61 -41 -73 -56 -13 -16 -29 -28 -36 -28 -7 0 -44 -29 -81 -65 -38
-36 -78 -68 -89 -71 -12 -4 -58 -43 -102 -88 -45 -44 -109 -108 -143 -141 -33
-33 -61 -63 -61 -67 0 -4 -39 -47 -88 -96 -81 -83 -168 -177 -259 -282 -22
-25 -51 -66 -66 -91 -14 -25 -33 -52 -42 -59 -9 -8 -28 -35 -41 -62 -13 -26
-28 -48 -32 -48 -5 0 -16 -16 -25 -35 -9 -18 -27 -41 -41 -50 -14 -9 -37 -38
-52 -63 -15 -26 -40 -62 -56 -80 -15 -18 -28 -39 -28 -47 0 -8 -15 -32 -34
-53 -19 -21 -42 -58 -52 -82 -9 -25 -30 -58 -46 -74 -15 -15 -28 -33 -28 -39
0 -7 -16 -37 -35 -69 -20 -32 -43 -80 -51 -107 -9 -33 -21 -52 -34 -56 -14 -5
-27 -29 -45 -89 -14 -45 -36 -97 -49 -115 -14 -18 -28 -52 -31 -74 -9 -50 -21
-75 -50 -103 -15 -13 -28 -47 -39 -97 -9 -41 -25 -86 -35 -99 -10 -13 -24 -45
-31 -73 -7 -27 -28 -81 -46 -120 -17 -38 -39 -110 -49 -160 -9 -50 -27 -108
-40 -131 -17 -29 -28 -72 -39 -153 -8 -62 -21 -123 -30 -136 -14 -22 -16 -160
-16 -1420 0 -1236 2 -1398 15 -1419 9 -13 20 -61 25 -107 12 -106 24 -146 51
-175 14 -15 23 -43 29 -93 9 -70 24 -110 59 -166 11 -16 24 -59 30 -94 6 -39
20 -78 36 -102 15 -20 35 -70 45 -109 10 -40 27 -82 38 -94 28 -30 39 -55 47
-106 4 -25 20 -65 36 -90 15 -25 35 -63 44 -84 9 -22 29 -55 44 -75 15 -20 36
-56 47 -81 10 -25 24 -49 31 -55 7 -5 23 -41 36 -80 18 -53 30 -73 53 -85 22
-13 33 -30 47 -76 9 -32 26 -66 36 -74 11 -8 26 -31 34 -50 8 -20 26 -43 40
-53 15 -10 32 -36 42 -67 11 -32 34 -69 62 -98 84 -88 101 -107 113 -132 7
-14 19 -29 27 -33 7 -5 29 -39 48 -76 19 -38 41 -71 50 -75 9 -3 22 -21 30
-41 9 -19 28 -41 44 -50 17 -8 38 -28 48 -45 9 -16 25 -32 33 -35 9 -3 24 -21
33 -41 10 -19 30 -43 47 -52 16 -9 34 -27 39 -39 6 -12 24 -29 41 -38 16 -8
30 -20 30 -26 0 -6 19 -30 42 -54 24 -24 48 -48 53 -54 103 -106 260 -253 283
-265 17 -9 40 -28 52 -43 12 -16 34 -35 49 -43 43 -24 181 -130 181 -139 0 -5
20 -18 45 -30 24 -11 49 -30 55 -40 6 -11 31 -29 57 -41 25 -11 65 -37 89 -58
84 -72 119 -99 144 -112 14 -7 34 -21 45 -30 11 -10 45 -28 75 -40 30 -12 67
-35 82 -51 15 -16 37 -29 50 -29 26 0 61 -22 100 -62 20 -20 37 -28 63 -28 43
0 71 -13 107 -52 16 -17 36 -28 53 -28 34 0 65 -16 90 -46 15 -18 38 -27 84
-35 59 -11 93 -30 102 -58 2 -6 33 -16 69 -22 85 -13 95 -16 128 -43 15 -13
50 -28 77 -35 28 -7 77 -26 111 -42 34 -16 92 -35 130 -43 81 -17 123 -32 144
-51 8 -7 62 -23 119 -35 99 -20 129 -30 194 -66 20 -11 77 -17 215 -23 139 -6
197 -12 226 -24 35 -16 127 -17 1026 -17 882 0 990 2 1019 16 24 12 67 16 184
17 123 2 158 5 182 19 69 40 116 59 181 72 38 8 87 22 108 31 22 9 80 25 130
36 54 12 106 30 127 45 20 14 73 36 118 50 44 14 81 29 81 34 0 15 50 37 113
50 40 8 67 21 87 40 19 18 56 37 102 51 40 11 86 31 103 44 16 12 45 27 63 33
19 6 47 23 63 37 17 13 54 32 82 40 30 9 64 27 79 44 16 16 49 36 74 45 25 8
60 28 79 44 18 17 55 35 85 42 36 9 54 19 62 35 5 12 26 30 45 39 19 9 51 30
71 46 21 15 56 34 80 40 29 7 46 19 54 35 6 13 26 31 45 42 19 10 41 28 49 40
8 13 37 34 65 48 30 16 58 39 70 59 25 43 90 95 129 103 23 4 36 15 48 39 10
22 27 37 49 45 19 6 38 22 45 37 7 14 23 31 35 37 25 13 373 362 373 376 0 5
18 20 39 34 24 14 41 34 43 47 2 13 15 28 31 36 15 7 34 28 41 47 8 18 28 41
44 49 19 10 33 26 36 44 4 15 40 63 81 107 41 44 81 96 91 116 9 20 27 42 41
48 13 6 30 26 38 45 8 19 25 42 37 53 13 10 31 44 41 76 14 44 26 63 48 75 16
10 33 30 39 45 5 16 23 44 40 63 16 19 30 41 30 49 0 27 33 83 56 95 13 8 26
26 29 44 10 52 37 105 56 111 11 4 27 33 44 85 14 43 32 84 40 90 8 6 27 41
44 76 17 36 37 71 44 79 8 7 20 41 26 76 9 46 20 68 42 88 23 21 33 43 45 101
17 81 27 105 50 118 9 5 20 39 30 92 10 62 21 91 38 110 24 24 48 93 61 175 4
22 15 54 25 71 9 17 25 75 35 128 13 72 25 108 49 143 l31 48 2 165 c1 176 12
241 45 277 24 26 36 119 38 278 0 93 14 176 51 308 11 39 17 47 36 47 l23 0 0
305 0 305 -24 0 c-47 0 -64 95 -86 480 -9 156 -13 179 -34 210 -34 53 -37 71
-45 266 -6 175 -7 182 -33 220 -23 32 -29 56 -36 135 -7 75 -15 107 -36 145
-15 26 -38 93 -51 148 -14 55 -33 109 -44 120 -20 24 -37 64 -46 116 -4 19
-17 51 -30 70 -13 19 -32 66 -41 104 -10 42 -28 81 -44 100 -15 17 -36 63 -48
101 -12 40 -29 75 -40 82 -10 6 -28 38 -40 70 -12 33 -31 68 -42 78 -11 10
-28 43 -36 72 -9 30 -29 69 -45 88 -16 18 -36 51 -44 74 -7 22 -29 56 -48 75
-19 19 -38 51 -44 74 -11 42 -29 70 -94 145 -20 23 -49 65 -63 94 -15 28 -34
57 -43 64 -8 7 -25 33 -38 58 -13 25 -54 80 -92 122 -37 42 -86 102 -108 134
-22 32 -64 82 -92 111 -29 28 -53 55 -53 60 0 5 -28 39 -62 75 -35 36 -81 87
-103 113 -55 65 -334 346 -343 346 -5 0 -42 34 -84 75 -42 41 -81 75 -87 75
-5 0 -25 13 -43 28 -18 16 -55 44 -81 63 -26 19 -74 53 -105 77 -31 23 -70 50
-86 60 -16 9 -43 31 -60 48 -17 18 -52 39 -78 49 -25 9 -55 28 -67 41 -11 13
-38 32 -60 44 -22 11 -44 26 -48 33 -4 8 -32 22 -61 31 -36 12 -60 28 -78 52
-15 19 -31 34 -38 34 -31 0 -88 24 -121 50 -21 17 -49 30 -62 30 -38 0 -94 28
-100 49 -5 20 -33 33 -102 46 -19 4 -46 21 -61 37 -22 23 -39 31 -86 37 -49 7
-62 14 -86 41 -24 30 -36 35 -109 46 -63 10 -88 19 -108 38 -19 19 -48 30
-106 41 -60 11 -85 21 -101 38 -24 28 -50 36 -163 47 -70 8 -88 13 -111 35
-27 26 -66 35 -214 51 -44 4 -64 12 -81 30 -32 34 -74 44 -186 44 -116 0 -197
14 -265 46 -43 20 -75 25 -215 34 -97 5 -205 18 -264 31 -91 20 -132 23 -470
25 -203 2 -379 -1 -391 -6z m751 -2311 c211 -9 263 -17 345 -52 19 -8 80 -18
135 -22 124 -8 173 -20 205 -50 29 -27 106 -45 190 -45 51 0 64 -4 92 -28 21
-19 58 -35 103 -46 42 -10 80 -27 95 -41 15 -14 57 -32 105 -45 44 -12 89 -30
100 -40 11 -10 41 -28 67 -39 26 -11 51 -29 57 -40 6 -11 32 -29 58 -41 80
-36 131 -67 212 -126 31 -23 66 -45 79 -48 12 -4 30 -19 39 -32 9 -14 33 -32
53 -40 21 -8 42 -25 48 -38 6 -13 35 -37 65 -54 31 -17 59 -38 64 -45 4 -8 27
-26 51 -41 23 -14 42 -32 42 -40 0 -17 30 -43 55 -48 11 -2 25 -14 31 -26 17
-35 116 -142 131 -142 7 0 22 -19 34 -42 12 -24 41 -64 65 -90 24 -26 44 -52
44 -58 0 -6 16 -24 35 -41 19 -17 35 -37 35 -45 0 -7 11 -23 24 -36 13 -13 34
-46 46 -74 12 -28 34 -61 50 -73 18 -13 32 -34 35 -55 4 -18 24 -59 45 -90 21
-31 42 -70 45 -87 4 -18 16 -34 29 -39 22 -8 32 -32 51 -122 3 -15 20 -43 38
-61 26 -25 36 -47 46 -94 6 -34 18 -63 26 -67 26 -10 45 -65 56 -168 10 -86
16 -107 36 -129 31 -34 40 -74 49 -217 6 -103 9 -115 29 -128 13 -8 28 -27 33
-42 15 -38 22 -560 13 -922 -8 -313 -11 -333 -51 -372 -13 -12 -19 -41 -25
-115 -9 -127 -21 -180 -49 -223 -14 -20 -29 -64 -35 -103 -14 -80 -26 -115
-50 -142 -10 -11 -22 -38 -25 -60 -8 -43 -108 -257 -137 -290 -9 -11 -25 -46
-34 -77 -10 -35 -26 -65 -41 -77 -15 -12 -32 -44 -45 -85 -15 -49 -26 -70 -44
-78 -13 -6 -26 -21 -29 -33 -3 -13 -21 -36 -40 -53 -19 -17 -47 -54 -62 -82
-15 -29 -33 -54 -40 -57 -7 -2 -20 -20 -29 -40 -9 -19 -31 -43 -48 -53 -18
-11 -38 -32 -45 -48 -7 -16 -23 -35 -36 -42 -14 -7 -27 -23 -31 -37 -3 -13
-21 -33 -40 -44 -18 -11 -41 -31 -49 -44 -9 -14 -29 -31 -45 -39 -16 -9 -32
-27 -35 -41 -3 -13 -19 -33 -34 -42 -15 -10 -41 -33 -58 -50 -17 -18 -38 -33
-47 -33 -8 0 -25 -16 -37 -35 -12 -19 -26 -35 -31 -35 -5 0 -26 -15 -46 -32
-21 -18 -54 -42 -73 -52 -19 -10 -46 -29 -60 -41 -14 -13 -45 -33 -70 -45 -25
-13 -50 -31 -57 -40 -6 -9 -39 -29 -71 -43 -33 -15 -65 -34 -72 -41 -6 -8 -40
-25 -76 -36 -35 -12 -69 -30 -74 -40 -5 -10 -35 -28 -67 -40 -31 -11 -69 -32
-85 -45 -16 -14 -36 -25 -43 -25 -30 0 -111 -33 -135 -55 -36 -32 -58 -41
-120 -49 -30 -4 -68 -16 -85 -26 -16 -10 -90 -30 -164 -45 -74 -15 -144 -33
-155 -41 -34 -22 -133 -43 -255 -54 -63 -6 -149 -20 -190 -31 -159 -44 -709
-32 -951 21 -47 10 -110 21 -140 24 -175 20 -229 30 -272 52 -28 14 -96 32
-164 44 -64 11 -135 29 -159 40 -23 11 -73 27 -110 35 -37 7 -83 25 -103 39
-21 14 -66 33 -102 42 -36 9 -74 24 -85 34 -11 10 -43 29 -72 44 -29 14 -56
33 -61 41 -5 9 -38 27 -74 40 -36 13 -82 35 -102 49 -20 13 -52 30 -70 36 -18
6 -47 28 -65 50 -18 22 -38 40 -45 40 -23 0 -162 101 -274 198 -88 76 -321
310 -403 404 -139 160 -158 185 -178 232 -13 28 -31 50 -50 60 -16 9 -32 24
-35 34 -3 9 -19 32 -35 49 -17 19 -34 53 -41 85 -7 31 -24 65 -40 83 -15 17
-38 50 -50 75 -12 25 -30 54 -40 65 -10 11 -28 46 -40 79 -12 32 -31 66 -42
75 -28 23 -40 56 -48 131 -7 63 -14 84 -46 141 -7 15 -21 64 -30 110 -8 45
-26 104 -40 130 -13 27 -29 81 -35 121 -6 40 -27 143 -47 228 l-36 155 -1 445
0 445 32 65 c27 55 34 86 48 210 13 117 22 157 45 208 16 35 36 98 44 141 8
43 26 111 40 152 14 41 30 93 36 115 5 23 24 58 40 79 17 21 37 62 46 91 8 29
23 63 33 76 10 13 30 46 44 73 13 28 34 58 46 69 11 10 28 41 37 70 9 28 29
69 45 91 15 22 50 78 78 125 56 96 103 161 143 200 15 15 43 49 64 76 20 27
69 81 108 120 39 39 84 85 99 102 16 16 42 36 57 42 16 7 32 20 35 30 3 10 18
26 33 36 15 9 46 35 70 58 56 53 120 113 164 152 19 17 56 39 84 50 27 10 57
29 67 41 10 13 32 30 49 39 17 9 40 26 52 39 11 12 49 30 83 40 34 10 64 24
67 32 3 8 32 25 63 39 32 14 72 38 88 53 17 15 49 33 72 40 23 6 50 22 60 34
27 34 33 36 143 52 70 11 113 23 138 39 22 14 75 31 127 41 50 9 100 23 113
31 44 28 103 43 215 55 80 8 125 18 159 35 65 33 151 43 372 43 104 1 191 3
194 6 8 8 199 6 437 -6z m2990 -1800 c-8 -23 -8 -23 -15 -4 -9 26 -1 50 12 37
6 -6 7 -21 3 -33z m2372 -3121 c-3 -8 -6 -5 -6 6 -1 11 2 17 5 13 3 -3 4 -12
1 -19z"/>
<path d="M5610 8291 c-25 -5 -72 -15 -105 -24 -55 -15 -218 -39 -355 -54 -37
-4 -63 -13 -80 -28 -14 -12 -50 -31 -80 -40 -30 -10 -65 -24 -77 -32 -12 -8
-52 -25 -89 -39 -38 -13 -80 -35 -94 -48 -14 -13 -41 -32 -60 -41 -19 -10 -51
-30 -70 -45 -19 -15 -51 -32 -71 -39 -19 -6 -64 -37 -100 -69 -74 -66 -266
-260 -324 -327 -22 -25 -56 -62 -76 -83 -20 -20 -40 -48 -44 -62 -4 -14 -22
-42 -40 -63 -18 -21 -58 -89 -90 -152 -32 -63 -61 -115 -66 -115 -16 0 -37
-56 -44 -120 -9 -87 -21 -132 -43 -161 -19 -24 -36 -80 -47 -154 -3 -22 -17
-60 -29 -85 -30 -58 -33 -73 -51 -265 -17 -181 -19 -384 -5 -592 7 -115 14
-157 39 -230 17 -48 35 -116 40 -150 5 -34 18 -76 28 -93 48 -85 53 -97 53
-150 0 -54 26 -130 49 -145 7 -4 23 -32 37 -63 14 -31 33 -66 44 -77 10 -11
23 -38 29 -61 6 -23 25 -53 43 -71 52 -47 97 -109 120 -160 20 -46 64 -96 226
-258 87 -87 127 -118 174 -138 20 -8 40 -22 44 -30 5 -9 38 -30 74 -47 36 -17
79 -40 95 -51 78 -53 167 -99 220 -113 32 -8 71 -24 87 -36 38 -28 70 -39 147
-50 37 -5 94 -22 127 -37 55 -25 72 -27 264 -36 218 -9 602 -3 736 12 59 7 90
16 117 34 22 15 59 28 90 32 91 11 145 26 163 46 9 10 48 28 85 39 65 20 105
46 191 125 33 31 58 40 126 50 48 6 54 10 67 41 8 19 24 38 37 43 28 11 118
96 141 134 10 15 24 27 32 27 8 0 19 9 25 20 6 11 29 32 50 45 23 15 46 40 54
59 8 19 23 39 34 45 10 6 25 24 32 41 7 17 26 38 41 46 16 8 29 22 29 32 1 21
17 42 51 64 18 11 30 32 38 65 26 101 35 123 57 138 15 9 28 33 35 60 6 25 25
65 41 90 17 25 37 76 45 113 8 37 24 82 35 100 11 19 33 93 48 166 15 73 36
148 45 167 39 73 38 855 0 928 -15 30 -45 164 -60 265 -4 27 -19 72 -35 100
-15 28 -36 78 -45 111 -9 33 -25 71 -34 85 -10 14 -25 46 -35 73 -10 26 -33
63 -51 83 -26 27 -35 47 -40 87 -10 77 -13 84 -45 96 -19 6 -34 22 -44 45 -8
20 -22 39 -31 42 -9 4 -23 21 -32 38 -9 17 -32 48 -52 68 -20 20 -43 44 -52
53 -9 10 -28 29 -42 42 -13 14 -32 33 -41 42 -93 93 -178 170 -193 175 -10 3
-26 20 -35 36 -19 33 -23 35 -81 45 -24 4 -52 19 -75 41 -20 19 -42 34 -50 34
-7 0 -29 15 -48 34 -24 23 -52 38 -87 46 -62 15 -88 27 -105 51 -15 21 -58 35
-135 44 -38 4 -66 14 -85 29 -33 29 -44 31 -269 56 -100 11 -199 28 -220 37
-43 18 -247 27 -323 14z"/>
</g>
</svg>
