<?xml version="1.0" standalone="no"?>
<!DOCTYPE svg PUBLIC "-//W3C//DTD SVG 20010904//EN"
 "http://www.w3.org/TR/2001/REC-SVG-20010904/DTD/svg10.dtd">
<svg version="1.0" xmlns="http://www.w3.org/2000/svg"
 width="3264.000000pt" height="3264.000000pt" viewBox="0 0 3264.000000 3264.000000"
 preserveAspectRatio="xMidYMid meet" width="128px" height="128px">

<g transform="translate(0.000000,3264.000000) scale(0.100000,-0.100000)" stroke="">
<path d="M348 20303 c-2 -1990 -2 -4737 0 -6105 l2 -2488 15830 0 15829 0 3
2243 c3 1906 5 2246 17 2270 8 15 18 27 22 27 5 0 22 14 39 30 17 16 36 30 42
30 6 0 9 3 6 6 -3 3 9 21 27 41 59 64 63 71 80 130 8 32 23 83 32 113 9 30 16
75 17 100 1 52 -22 197 -35 222 -5 10 -12 42 -15 73 -4 30 -10 55 -14 55 -4 0
-11 17 -15 38 -4 20 -10 42 -15 47 -4 6 -13 271 -20 591 -10 465 -10 628 0
819 23 428 -14 1065 -62 1065 -4 0 -8 7 -8 15 0 8 -4 15 -9 15 -5 0 -12 14
-16 30 -4 17 -10 30 -15 30 -4 0 -19 21 -32 48 l-23 47 -3 2063 -3 2062
-15830 0 -15829 0 -2 -3617z m6052 2887 c214 -19 310 -31 395 -49 50 -11 115
-25 145 -31 59 -12 161 -35 225 -51 22 -5 72 -16 110 -24 39 -7 90 -18 115
-24 55 -12 199 -58 222 -71 10 -6 23 -10 31 -10 7 0 29 -9 50 -20 93 -50 295
-110 370 -110 111 0 157 -11 194 -46 19 -18 32 -38 28 -44 -3 -5 -1 -10 4 -10
6 0 11 -4 11 -9 0 -5 5 -22 12 -38 6 -15 13 -37 15 -48 7 -38 12 -43 60 -50
26 -4 53 -10 58 -14 6 -4 36 -15 68 -26 31 -10 57 -22 57 -26 0 -4 14 -10 30
-14 17 -4 30 -10 30 -14 0 -4 11 -13 25 -19 14 -6 25 -18 25 -27 0 -8 7 -15
15 -15 8 0 15 -6 15 -14 0 -8 7 -16 15 -20 8 -3 19 -16 25 -30 5 -14 26 -31
49 -42 23 -10 41 -21 41 -26 0 -4 7 -8 15 -8 8 0 15 -4 15 -9 0 -5 16 -12 35
-15 19 -4 35 -11 35 -16 0 -6 6 -10 13 -10 7 0 29 -11 49 -25 20 -14 44 -25
53 -25 8 0 18 -7 21 -15 4 -8 13 -15 20 -15 17 0 63 -45 114 -110 44 -56 87
-100 98 -100 11 0 46 -27 98 -75 41 -38 96 -85 120 -104 6 -5 21 -12 33 -16
31 -10 140 -119 156 -158 7 -17 23 -43 34 -56 12 -13 21 -30 21 -38 0 -7 4
-13 10 -13 5 0 12 -11 16 -25 3 -13 14 -27 24 -30 11 -3 22 -15 25 -26 4 -10
10 -19 14 -19 5 0 14 -13 20 -29 7 -15 39 -53 72 -82 112 -101 189 -179 189
-194 0 -8 4 -15 10 -15 5 0 19 -21 30 -47 11 -27 24 -55 29 -63 4 -8 17 -49
27 -90 10 -41 22 -77 25 -80 4 -3 10 -20 14 -37 3 -18 11 -33 16 -33 5 0 14
-11 20 -24 8 -17 22 -26 49 -30 45 -7 120 -38 141 -57 8 -8 26 -22 42 -32 l27
-17 0 -133 c0 -139 5 -157 45 -157 43 0 145 -70 145 -100 0 -5 4 -10 8 -10 18
0 33 -95 23 -145 -9 -46 -24 -191 -23 -225 1 -45 16 -156 22 -165 4 -5 10 -41
14 -79 7 -74 26 -146 38 -146 5 0 8 -9 8 -20 0 -11 7 -23 15 -26 8 -3 17 -21
21 -40 3 -19 10 -34 15 -34 5 0 9 -9 9 -19 0 -11 4 -22 9 -25 4 -3 11 -29 15
-58 4 -29 11 -57 15 -63 8 -11 35 -211 47 -355 10 -115 11 -1060 1 -1185 -13
-175 -28 -318 -39 -370 -6 -27 -14 -70 -19 -95 -11 -53 -53 -166 -86 -229 -13
-24 -23 -52 -23 -61 0 -9 -3 -20 -7 -24 -4 -4 -13 -37 -20 -74 -7 -37 -20 -96
-28 -132 -28 -115 -35 -153 -45 -270 -6 -63 -15 -116 -20 -118 -6 -2 -10 -12
-10 -23 0 -10 -4 -19 -9 -19 -5 0 -12 -8 -15 -17 -12 -32 -31 -58 -73 -100
-24 -22 -43 -48 -43 -57 0 -9 -4 -16 -9 -16 -4 0 -16 -26 -25 -57 -10 -32 -21
-67 -26 -78 -5 -11 -12 -31 -16 -45 -4 -14 -17 -41 -30 -60 -13 -19 -24 -38
-24 -42 0 -15 -75 -98 -89 -98 -4 0 -16 -16 -27 -35 -10 -19 -22 -35 -25 -35
-4 0 -10 -14 -14 -30 -4 -17 -10 -30 -15 -30 -4 0 -11 -25 -15 -55 -3 -30 -11
-57 -16 -60 -5 -4 -9 -15 -9 -26 0 -10 -4 -19 -9 -19 -5 0 -12 -13 -16 -30 -4
-16 -11 -30 -16 -30 -5 0 -9 -9 -9 -20 0 -11 -7 -23 -15 -26 -8 -4 -15 -19
-15 -34 0 -16 -4 -31 -9 -34 -5 -4 -12 -24 -16 -46 -4 -22 -11 -40 -16 -40 -5
0 -9 -9 -9 -20 0 -12 -11 -32 -25 -46 -14 -14 -25 -29 -25 -34 0 -6 -4 -10 -9
-10 -5 0 -16 -6 -23 -13 -16 -16 -90 -52 -100 -49 -5 1 -8 -1 -8 -5 0 -5 -20
-17 -45 -28 -29 -12 -50 -30 -58 -47 -6 -16 -15 -28 -19 -28 -5 0 -8 -9 -8
-20 0 -11 -6 -23 -14 -26 -7 -3 -22 -22 -32 -42 -28 -55 -137 -172 -159 -172
-4 0 -12 -6 -19 -12 -8 -7 -24 -20 -36 -28 -13 -8 -59 -50 -102 -92 -44 -43
-83 -78 -88 -78 -12 0 -82 -71 -118 -118 -31 -42 -60 -72 -67 -72 -5 0 -18
-10 -48 -36 -7 -6 -25 -14 -41 -18 -16 -4 -35 -14 -43 -21 -8 -8 -23 -15 -34
-15 -10 0 -19 -4 -19 -10 0 -5 -7 -10 -15 -10 -8 0 -15 -4 -15 -10 0 -5 -6
-10 -13 -10 -7 0 -29 -9 -50 -20 -20 -11 -44 -20 -53 -20 -19 0 -54 -37 -54
-56 0 -7 -9 -16 -20 -19 -11 -3 -20 -15 -20 -25 0 -10 -9 -22 -20 -25 -11 -3
-20 -10 -20 -15 0 -5 -10 -12 -22 -16 -12 -3 -30 -15 -41 -25 -11 -9 -37 -21
-58 -24 -22 -4 -39 -10 -39 -15 0 -4 -22 -10 -50 -14 -27 -4 -50 -11 -50 -16
0 -6 -11 -10 -25 -10 -14 0 -25 -4 -25 -10 0 -5 -9 -10 -21 -10 -27 0 -66 -36
-84 -78 -8 -18 -28 -40 -45 -50 -16 -9 -30 -20 -30 -24 0 -4 -17 -10 -37 -14
-21 -4 -42 -10 -48 -14 -5 -4 -38 -11 -72 -15 -35 -4 -63 -11 -63 -16 0 -5 -8
-9 -17 -9 -10 0 -36 -7 -58 -15 -22 -8 -55 -14 -72 -15 -18 0 -33 -4 -33 -9 0
-5 -13 -12 -30 -16 -16 -4 -30 -11 -30 -16 0 -5 -7 -9 -15 -9 -8 0 -15 -4 -15
-10 0 -5 -5 -10 -11 -10 -5 0 -29 -9 -52 -19 -24 -11 -62 -26 -85 -33 -23 -7
-42 -16 -42 -20 0 -3 -26 -10 -57 -14 -32 -3 -63 -10 -69 -15 -6 -5 -39 -12
-73 -15 -33 -4 -61 -11 -61 -15 0 -5 -15 -9 -34 -9 -19 0 -37 -4 -40 -9 -3 -5
-35 -12 -71 -16 -36 -3 -65 -10 -65 -14 0 -4 -28 -13 -62 -19 -107 -21 -118
-24 -118 -32 0 -4 -25 -11 -55 -15 -30 -3 -55 -10 -55 -15 0 -4 -56 -11 -125
-15 -69 -4 -125 -11 -125 -16 0 -5 -47 -9 -105 -9 -63 0 -105 -4 -105 -10 0
-6 -65 -10 -174 -10 -106 0 -177 4 -181 10 -4 6 -73 10 -174 10 -92 0 -171 4
-176 9 -6 5 -79 11 -164 15 -85 4 -159 10 -165 15 -6 5 -45 11 -86 15 -41 4
-79 11 -84 16 -6 6 -23 10 -38 10 -15 0 -28 4 -28 9 0 5 -29 12 -65 16 -36 3
-65 10 -65 15 0 4 -29 11 -65 15 -36 3 -65 11 -65 16 0 5 -18 9 -40 9 -22 0
-40 4 -40 9 0 5 -30 12 -67 16 -38 4 -70 11 -73 16 -3 4 -43 11 -88 15 -45 4
-82 11 -82 15 0 5 -22 9 -50 9 -27 0 -50 4 -50 9 0 5 -27 11 -61 13 -33 2 -64
9 -67 15 -4 6 -18 14 -31 18 -13 4 -35 18 -48 31 -13 13 -28 24 -34 24 -5 0
-20 11 -33 25 -13 14 -26 25 -30 25 -4 0 -14 7 -22 15 -9 8 -26 15 -40 15 -13
0 -24 4 -24 9 0 5 -22 12 -50 16 -27 4 -50 11 -50 16 0 5 -11 9 -25 9 -14 0
-25 4 -25 9 0 4 -16 11 -35 14 -19 3 -42 13 -51 21 -8 9 -24 16 -35 16 -10 0
-19 5 -19 10 0 6 -6 10 -14 10 -8 0 -16 7 -20 15 -3 8 -14 15 -25 15 -10 0
-21 7 -25 15 -3 8 -12 15 -21 15 -8 0 -15 5 -15 10 0 6 -7 10 -15 10 -8 0 -15
5 -15 10 0 6 -6 10 -14 10 -8 0 -21 6 -28 13 -7 8 -26 17 -43 21 -16 4 -36 15
-44 25 -9 10 -26 21 -38 25 -13 4 -23 11 -23 16 0 5 -10 12 -22 16 -11 3 -38
23 -59 43 -55 51 -67 61 -79 61 -5 0 -10 4 -10 9 0 5 -10 13 -22 17 -20 6 -31
13 -63 42 -7 6 -19 12 -25 12 -10 0 -20 7 -53 36 -7 6 -23 15 -35 18 -12 4
-22 11 -22 16 0 5 -10 12 -22 16 -23 7 -31 15 -78 74 -36 46 -80 90 -90 90 -5
0 -11 9 -15 19 -3 11 -16 23 -27 27 -22 7 -28 11 -79 57 -17 15 -35 27 -40 27
-5 0 -9 5 -9 10 0 17 -15 34 -98 108 -90 81 -122 115 -122 131 0 5 -7 11 -15
15 -8 3 -15 12 -15 21 0 17 -69 85 -85 85 -13 0 -155 151 -155 165 0 8 -4 15
-9 15 -5 0 -11 8 -15 18 -5 17 -26 52 -36 62 -9 9 -30 45 -41 70 -9 23 -27 45
-72 88 -9 9 -17 20 -17 25 0 5 -16 24 -35 43 -19 18 -35 38 -35 43 0 6 -11 21
-25 35 -14 14 -25 30 -25 36 0 6 -6 13 -14 16 -8 3 -16 18 -20 34 -5 28 -20
51 -58 92 -10 10 -18 23 -18 28 0 6 -4 10 -9 10 -5 0 -13 10 -17 22 -3 12 -13
28 -20 36 -8 7 -14 20 -14 28 0 8 -4 14 -10 14 -5 0 -10 7 -10 15 0 8 -4 15
-10 15 -5 0 -13 18 -16 40 -4 22 -10 40 -15 40 -5 0 -12 18 -15 40 -4 22 -10
40 -15 40 -5 0 -9 11 -9 25 0 14 -4 25 -9 25 -5 0 -12 19 -15 43 -6 39 -19 58
-68 104 -21 20 -38 42 -38 50 0 4 -10 17 -23 28 -25 22 -67 103 -67 129 0 9
-4 16 -10 16 -5 0 -10 22 -10 49 0 28 -4 52 -9 55 -5 3 -12 39 -16 81 -4 41
-10 77 -15 80 -4 3 -11 30 -15 60 -3 30 -11 55 -16 55 -5 0 -9 13 -9 29 0 17
-4 32 -9 35 -4 3 -11 28 -15 55 -4 28 -11 53 -15 56 -5 3 -12 28 -16 55 -4 27
-11 52 -16 56 -5 3 -9 18 -9 35 0 16 -4 29 -9 29 -4 0 -12 31 -15 70 -4 38
-11 72 -16 75 -4 3 -11 45 -15 95 -4 50 -11 93 -16 96 -5 3 -9 30 -9 60 0 30
-4 54 -9 54 -5 0 -12 62 -16 138 -4 75 -11 142 -16 148 -14 17 -15 810 -1 826
5 7 13 70 17 141 4 70 11 130 16 133 5 3 9 32 9 64 0 32 4 61 9 64 5 3 12 49
16 101 4 52 10 95 15 95 4 0 11 36 15 80 4 44 11 80 16 80 5 0 9 18 9 40 0 22
4 40 10 40 5 0 12 27 16 60 4 33 10 60 14 60 6 0 19 46 37 133 3 15 9 27 14
27 4 0 11 21 14 48 3 26 10 55 15 64 6 10 13 43 16 75 4 32 8 63 9 70 0 7 4
16 8 19 4 4 7 22 7 41 0 18 4 33 9 33 4 0 11 19 14 42 3 24 11 44 16 46 6 2
11 12 11 23 0 11 13 33 30 51 16 17 30 35 30 41 0 5 15 24 34 42 40 37 76 100
76 132 0 12 5 25 10 28 6 3 10 15 10 26 0 10 4 19 9 19 6 0 13 20 17 45 3 25
10 45 14 45 5 0 11 14 15 30 4 17 11 30 16 30 5 0 9 9 9 19 0 11 3 21 8 23 4
2 16 21 27 42 11 21 32 52 47 69 16 16 28 35 28 43 0 8 4 14 8 14 5 0 17 17
28 37 10 21 25 44 32 51 6 7 12 18 12 23 0 5 9 19 19 31 11 13 29 34 40 47 12
13 21 27 21 30 0 3 23 30 50 59 28 30 50 58 50 63 0 5 4 9 9 9 5 0 13 10 17
22 3 12 13 28 20 36 8 7 14 20 14 28 0 8 5 14 10 14 6 0 10 7 10 15 0 8 4 15
9 15 5 0 13 10 17 22 3 12 13 28 20 36 8 7 14 20 14 27 0 8 9 17 20 20 11 3
23 17 26 31 3 13 11 24 16 24 11 0 16 4 90 77 29 28 60 61 68 73 8 12 27 36
42 54 15 17 28 36 28 41 1 6 24 28 52 50 28 22 80 73 116 113 36 39 69 72 74
72 4 0 16 8 26 18 11 9 39 33 63 52 24 19 55 47 69 62 77 83 100 105 130 128
17 14 37 30 44 35 6 6 34 21 61 35 27 14 58 33 69 42 11 10 29 21 40 24 12 4
23 10 26 13 5 6 50 43 103 84 15 12 40 32 54 45 14 12 32 22 39 22 8 0 14 4
14 8 0 4 15 15 33 23 55 26 102 54 105 62 2 4 11 7 21 7 10 0 32 13 49 28 18
16 49 38 70 48 20 10 39 21 42 24 14 14 70 40 87 40 10 0 24 5 30 11 6 6 29
15 50 19 51 10 163 52 183 68 8 6 35 30 59 52 24 22 48 40 53 40 5 0 18 9 30
20 33 31 104 49 218 56 58 3 138 15 177 25 40 11 101 24 135 29 140 23 371 78
399 96 14 9 69 20 167 34 35 5 66 12 71 14 4 3 50 8 102 11 52 3 135 10 184
16 50 5 108 11 130 13 90 6 637 3 725 -4z m20665 0 c50 -5 161 -14 248 -20 87
-5 162 -12 167 -15 4 -3 32 -8 62 -11 29 -3 67 -9 83 -14 62 -18 182 -53 240
-71 65 -19 173 -44 245 -54 25 -4 50 -11 55 -15 14 -11 46 -16 342 -59 29 -4
66 -17 82 -29 17 -12 35 -22 42 -22 12 0 92 -59 97 -72 2 -5 9 -8 17 -8 7 0
18 -6 24 -14 7 -8 28 -17 48 -21 19 -3 43 -10 52 -15 30 -15 66 -29 130 -50
34 -11 79 -32 99 -45 20 -14 42 -25 49 -25 7 0 13 -4 13 -10 0 -5 5 -10 12
-10 6 0 21 -9 33 -20 19 -18 94 -60 193 -108 17 -9 32 -20 32 -24 0 -4 6 -8
13 -8 12 0 103 -64 152 -107 11 -10 54 -40 95 -68 41 -27 77 -53 78 -57 2 -5
9 -8 16 -8 7 0 26 -11 42 -25 16 -14 36 -27 44 -30 8 -3 24 -17 35 -31 45 -57
192 -202 213 -208 12 -4 22 -11 22 -16 0 -4 11 -11 25 -14 14 -4 25 -10 25
-15 0 -8 15 -24 72 -78 7 -7 18 -18 25 -25 6 -7 41 -38 76 -68 36 -30 66 -59
66 -64 2 -18 161 -196 177 -196 9 0 53 -52 82 -96 17 -27 36 -54 41 -60 5 -6
18 -29 30 -51 11 -22 32 -54 46 -71 14 -16 25 -35 25 -40 0 -6 10 -19 23 -29
12 -10 44 -46 70 -80 26 -34 50 -63 54 -65 10 -4 85 -120 114 -177 12 -24 32
-54 43 -66 12 -13 35 -50 51 -84 17 -33 33 -61 38 -61 4 0 7 -7 7 -15 0 -8 11
-38 24 -67 13 -29 33 -85 46 -125 21 -69 34 -89 99 -158 15 -16 41 -52 56 -80
16 -27 37 -61 47 -74 10 -13 18 -37 18 -53 0 -17 7 -60 15 -97 8 -36 19 -88
24 -116 5 -27 16 -70 24 -95 8 -25 23 -74 32 -110 9 -36 28 -97 41 -137 13
-39 24 -82 24 -96 0 -13 7 -44 15 -67 8 -23 15 -54 15 -69 0 -15 11 -71 25
-125 14 -54 25 -117 25 -139 0 -23 6 -82 14 -131 8 -50 20 -145 26 -211 6 -66
16 -172 21 -235 12 -127 4 -549 -11 -665 -6 -38 -14 -119 -19 -180 -15 -174
-31 -293 -53 -385 -11 -47 -24 -107 -29 -135 -11 -67 -33 -155 -59 -240 -11
-38 -27 -92 -35 -120 -8 -27 -24 -83 -36 -124 -12 -41 -25 -101 -30 -135 -21
-159 -36 -212 -74 -275 -21 -34 -49 -71 -62 -81 -13 -10 -23 -25 -23 -34 0 -9
-7 -16 -15 -16 -8 0 -15 -5 -15 -11 0 -7 -7 -17 -16 -23 -14 -11 -37 -70 -74
-193 -7 -24 -17 -43 -22 -43 -4 0 -8 -6 -8 -12 0 -16 -61 -139 -77 -156 -7 -7
-13 -18 -13 -23 0 -6 -10 -20 -22 -32 -13 -12 -32 -40 -43 -62 -11 -22 -22
-42 -25 -45 -3 -3 -21 -30 -40 -60 -19 -30 -42 -62 -50 -70 -8 -9 -26 -31 -40
-49 -22 -30 -49 -62 -84 -101 -21 -24 -96 -146 -96 -157 0 -5 -9 -18 -20 -28
-11 -10 -22 -27 -26 -39 -6 -20 -63 -78 -166 -169 -24 -21 -48 -41 -53 -45 -6
-4 -22 -26 -37 -49 -30 -46 -304 -323 -319 -323 -10 0 -31 -15 -52 -38 -7 -7
-18 -18 -25 -25 -16 -15 -47 -47 -115 -119 -30 -32 -59 -58 -66 -58 -6 0 -11
-4 -11 -10 0 -5 -6 -10 -14 -10 -8 0 -21 -6 -28 -13 -7 -8 -26 -17 -43 -21
-16 -4 -36 -16 -45 -26 -9 -10 -28 -22 -43 -25 -15 -4 -27 -11 -27 -15 0 -4
-11 -11 -25 -14 -14 -4 -25 -11 -25 -16 0 -6 -4 -10 -10 -10 -5 0 -41 -30 -80
-67 -100 -98 -115 -110 -138 -118 -12 -3 -22 -10 -22 -15 0 -5 -16 -12 -35
-16 -19 -3 -35 -10 -35 -15 0 -5 -7 -9 -15 -9 -8 0 -15 -4 -15 -10 0 -5 -6
-10 -14 -10 -8 0 -21 -6 -28 -14 -8 -7 -25 -17 -38 -21 -14 -4 -32 -16 -40
-26 -9 -9 -33 -20 -53 -24 -20 -4 -37 -11 -37 -16 0 -4 -16 -11 -35 -15 -19
-3 -35 -10 -35 -15 0 -5 -9 -9 -20 -9 -11 0 -20 -4 -20 -10 0 -5 -16 -12 -35
-16 -19 -3 -35 -10 -35 -14 0 -4 -16 -11 -35 -14 -19 -4 -35 -11 -35 -16 0 -6
-7 -10 -15 -10 -8 0 -15 -4 -15 -10 0 -5 -6 -10 -13 -10 -8 0 -24 -9 -37 -20
-13 -11 -27 -20 -33 -20 -5 0 -17 -8 -26 -19 -9 -10 -32 -22 -51 -26 -19 -4
-38 -12 -41 -17 -3 -5 -43 -12 -88 -15 -44 -3 -81 -10 -81 -14 0 -5 -29 -9
-65 -9 -36 0 -65 -4 -65 -9 0 -5 -43 -12 -95 -16 -52 -4 -97 -10 -100 -15 -3
-4 -47 -11 -97 -15 -51 -4 -97 -11 -103 -15 -14 -11 -201 -35 -465 -60 -58 -6
-118 -15 -134 -20 -16 -6 -47 -10 -70 -10 -23 0 -56 -4 -73 -9 -18 -5 -109
-13 -203 -17 -93 -4 -170 -10 -170 -14 0 -4 -43 -11 -95 -15 -52 -4 -95 -11
-95 -16 0 -12 -387 -12 -392 1 -1 5 -45 12 -95 16 -51 4 -93 10 -93 15 0 4
-40 11 -90 15 -49 3 -90 10 -90 15 0 5 -13 9 -30 9 -16 0 -30 4 -30 9 0 4 -27
11 -60 15 -33 4 -60 11 -60 16 0 4 -27 11 -60 15 -33 4 -60 11 -60 16 0 5 -13
9 -29 9 -17 0 -32 4 -35 9 -3 5 -33 12 -66 16 -33 4 -60 10 -60 15 0 4 -24 10
-52 13 -29 4 -54 11 -56 17 -2 5 -14 10 -27 10 -13 0 -26 4 -29 9 -3 5 -26 12
-51 15 -25 4 -45 11 -45 15 0 5 -20 12 -45 15 -25 4 -45 11 -45 17 0 5 -9 9
-20 9 -11 0 -20 4 -20 9 0 5 -25 12 -55 16 -30 3 -55 10 -55 15 0 5 -29 12
-65 15 -36 4 -65 11 -65 16 0 5 -7 9 -15 9 -8 0 -15 4 -15 9 0 5 -11 12 -25
15 -14 4 -25 11 -25 16 0 6 -6 10 -14 10 -8 0 -28 12 -44 28 -43 38 -75 62
-83 62 -4 0 -10 9 -14 19 -3 11 -19 22 -36 26 -17 4 -42 13 -57 21 -15 8 -37
14 -49 14 -13 0 -23 5 -23 10 0 6 -11 10 -25 10 -14 0 -25 4 -25 9 0 5 -18 12
-40 16 -22 4 -40 10 -40 15 0 4 -11 11 -25 14 -14 4 -25 11 -25 16 0 6 -5 10
-10 10 -6 0 -16 5 -23 10 -46 39 -61 50 -68 50 -4 0 -10 8 -13 18 -12 37 -82
100 -120 107 -20 4 -36 11 -36 15 0 5 -15 12 -32 16 -18 3 -40 14 -48 24 -8 9
-26 21 -40 25 -13 4 -30 13 -37 19 -33 29 -43 36 -54 36 -6 0 -43 30 -81 68
-133 127 -144 137 -182 157 -21 11 -41 25 -43 32 -3 7 -11 13 -19 13 -8 0 -14
4 -14 8 0 5 -13 24 -30 42 -16 18 -30 37 -30 42 0 4 -5 8 -10 8 -6 0 -29 14
-52 30 -22 17 -47 30 -55 30 -7 0 -13 5 -13 10 0 6 -7 10 -15 10 -24 0 -79 59
-110 118 -15 28 -30 52 -34 52 -5 0 -16 16 -27 35 -16 31 -59 54 -86 47 -5 -1
-8 2 -8 8 0 5 -15 16 -33 25 -19 9 -47 33 -63 55 -16 22 -32 40 -36 40 -5 0
-8 5 -8 11 0 6 -10 19 -22 29 -35 28 -85 138 -95 210 -3 19 -9 40 -14 45 -21
27 -68 136 -79 185 -18 79 -63 165 -112 215 -54 54 -82 89 -86 106 -3 14 -25
64 -45 104 -26 50 -36 74 -52 125 -14 43 -31 68 -79 115 -34 33 -73 84 -88
115 -27 54 -29 65 -55 325 -3 28 -16 85 -29 128 -13 43 -24 92 -24 110 -1 18
-7 43 -15 57 -8 14 -14 35 -15 46 0 12 -7 27 -15 34 -21 17 -65 99 -65 121 0
10 -11 47 -24 81 -57 148 -59 188 -60 1093 0 759 1 837 17 910 38 168 88 310
127 353 16 18 32 71 56 181 7 36 20 83 28 105 8 23 17 73 20 111 11 164 27
238 59 287 18 26 40 50 50 53 9 4 17 11 17 16 0 5 7 9 15 9 8 0 15 4 15 9 0 5
8 12 18 15 20 7 62 86 62 118 0 38 40 177 72 247 19 43 99 131 118 131 6 0 15
11 20 25 5 14 14 25 20 25 5 0 10 9 10 19 0 11 5 23 10 26 6 3 10 15 10 27 0
36 44 161 77 218 8 14 20 39 28 56 15 33 43 63 146 154 34 30 68 62 76 70 8 8
28 31 46 51 18 20 44 44 60 54 15 9 27 24 27 31 0 8 3 14 8 14 4 0 16 17 27
38 11 20 26 43 32 50 7 7 13 20 13 27 0 8 10 25 23 40 12 14 33 39 47 55 13
17 28 30 32 30 5 0 21 11 36 25 15 14 30 25 35 25 9 0 16 6 77 60 25 23 67 60
94 83 61 53 156 148 156 156 0 12 86 101 98 101 7 0 12 4 12 9 0 5 12 14 28
20 15 5 38 17 52 25 14 8 52 28 85 44 106 52 180 94 184 106 8 21 104 116 117
116 8 0 14 4 14 9 0 5 10 13 22 17 12 3 31 15 42 26 11 10 32 21 46 24 14 3
32 9 40 13 9 5 31 12 50 15 35 7 44 10 112 40 20 9 40 16 46 16 5 0 12 7 16
15 3 8 12 15 20 15 8 0 17 8 20 18 3 9 23 28 43 42 21 13 47 34 59 45 25 25
53 44 77 51 9 4 17 10 17 15 0 5 10 9 23 9 12 0 35 7 51 15 15 8 36 15 46 15
10 0 31 7 46 15 16 8 38 15 49 15 11 0 29 7 39 15 11 8 58 26 105 40 47 14
115 35 151 45 36 11 92 25 125 31 33 6 94 18 135 26 41 8 89 16 105 19 17 3
39 9 50 14 11 5 47 14 80 19 33 6 89 16 125 22 36 6 81 14 100 19 99 24 240
40 510 59 150 11 529 11 635 1z m-11985 -200 c3 -4 29 -10 58 -13 64 -7 120
-44 158 -105 15 -24 40 -56 56 -71 15 -15 44 -60 65 -101 29 -60 37 -87 37
-135 1 -64 -18 -210 -37 -285 -15 -61 -16 -542 0 -595 37 -128 37 -166 3 -235
-4 -9 -11 -31 -15 -49 -7 -32 -27 -73 -71 -148 -10 -17 -32 -39 -49 -49 -16
-10 -33 -22 -37 -28 -10 -15 -111 -11 -151 5 -48 21 -396 20 -420 -1 -31 -27
-42 -37 -69 -67 -14 -17 -32 -33 -39 -35 -21 -7 -16 -77 9 -127 12 -24 24 -60
28 -80 9 -55 49 -166 64 -181 3 -3 20 -35 38 -72 18 -36 37 -68 43 -70 6 -2
13 -24 16 -48 3 -25 9 -49 13 -55 5 -5 11 -36 15 -68 4 -31 11 -60 16 -63 5
-3 9 -12 9 -21 0 -14 40 -72 82 -118 53 -59 80 -85 89 -85 5 0 11 -11 15 -25
3 -14 10 -25 15 -25 4 0 11 -17 14 -37 13 -76 58 -259 71 -290 8 -17 14 -37
14 -45 0 -7 9 -24 20 -38 11 -14 20 -31 20 -39 0 -17 41 -102 58 -119 11 -12
34 -59 77 -157 7 -16 25 -61 40 -100 14 -38 30 -74 35 -79 6 -6 10 -18 10 -28
0 -44 73 -184 121 -231 22 -21 39 -42 39 -47 0 -6 5 -10 11 -10 11 0 45 -32
79 -74 11 -14 17 -59 21 -180 4 -107 13 -194 28 -260 21 -98 27 -108 80 -146
12 -8 21 -20 21 -26 0 -7 4 -14 8 -16 13 -5 72 -133 72 -156 0 -11 4 -23 9
-26 5 -4 12 -30 16 -59 3 -28 15 -71 26 -94 10 -24 19 -50 19 -60 0 -27 40
-102 58 -108 15 -4 102 -167 102 -190 0 -6 6 -22 14 -36 7 -14 19 -50 26 -80
7 -30 17 -61 21 -69 19 -36 59 -128 59 -137 0 -5 11 -20 25 -33 14 -13 25 -31
25 -39 0 -9 7 -25 15 -35 8 -11 15 -27 15 -36 0 -9 9 -34 19 -56 11 -22 22
-51 24 -65 19 -93 31 -145 37 -154 4 -5 10 -28 14 -50 10 -56 58 -220 79 -265
16 -34 59 -76 88 -85 13 -4 29 -14 37 -21 7 -8 19 -14 25 -14 7 0 21 -11 31
-25 10 -14 25 -25 33 -25 8 0 21 -7 30 -15 23 -24 43 -15 67 30 11 22 24 42
27 45 4 3 14 21 22 40 9 19 23 46 31 60 8 14 26 50 40 80 14 30 33 69 42 85
10 17 22 39 27 50 48 95 59 119 67 157 31 143 40 179 55 233 10 33 21 76 25
95 28 120 71 217 119 268 28 29 121 204 121 228 0 8 5 14 10 14 6 0 10 7 10
16 0 14 13 48 42 109 5 12 13 55 18 95 15 125 31 188 54 213 12 13 28 38 35
55 7 17 19 33 27 36 8 3 14 12 14 20 0 8 6 21 13 28 27 30 55 96 62 143 21
168 46 229 125 314 17 18 34 46 37 62 3 16 9 29 13 29 4 0 10 14 14 31 7 39
132 370 159 424 11 22 26 47 34 56 7 8 17 35 22 60 21 101 43 176 61 215 11
22 20 48 20 56 0 20 28 74 53 102 9 11 17 24 17 28 0 11 58 68 69 68 13 0 51
86 51 117 0 16 4 33 8 39 5 5 16 43 26 84 22 90 54 191 67 206 11 14 59 148
59 166 0 27 63 174 88 208 48 63 72 101 72 114 0 7 11 23 25 36 14 13 25 29
25 35 0 7 6 25 14 41 16 33 36 161 36 233 0 45 -4 52 -53 102 -89 90 -147 133
-160 120 -6 -6 -25 -11 -42 -11 -18 0 -35 -3 -39 -7 -18 -19 -174 -30 -281
-22 -116 10 -165 20 -230 50 -71 32 -82 47 -105 146 -29 120 -25 175 21 288
40 97 54 243 53 525 0 142 -13 319 -25 366 -9 33 31 137 83 217 21 32 38 61
38 65 0 14 56 70 85 84 17 9 67 24 113 33 68 15 92 16 135 7 122 -26 276 -34
497 -28 124 3 637 6 1140 7 904 1 916 1 960 -19 57 -27 73 -42 137 -127 29
-39 61 -81 73 -94 11 -13 20 -34 20 -47 0 -12 6 -24 13 -26 16 -6 25 -202 19
-438 -4 -185 -23 -299 -63 -368 -10 -18 -19 -41 -19 -51 0 -9 -7 -26 -15 -37
-8 -10 -15 -27 -15 -37 0 -11 -7 -35 -16 -55 -9 -21 -19 -46 -24 -57 -4 -11
-17 -45 -30 -75 -12 -30 -26 -68 -30 -85 -14 -48 -39 -114 -60 -156 -11 -21
-20 -43 -20 -49 0 -6 -18 -48 -40 -94 -22 -46 -40 -88 -40 -94 0 -6 -6 -26
-14 -44 -8 -18 -22 -52 -32 -75 -9 -24 -21 -43 -26 -43 -4 0 -8 -4 -8 -10 0
-5 -18 -39 -40 -75 -22 -36 -40 -69 -40 -73 0 -4 -16 -23 -35 -42 -66 -65 -83
-117 -88 -271 -5 -168 1 -156 -169 -338 -43 -46 -58 -70 -58 -91 0 -32 -25
-157 -42 -210 -21 -65 -61 -175 -73 -200 -7 -14 -20 -50 -29 -80 -17 -54 -56
-150 -82 -202 -8 -14 -14 -32 -14 -39 0 -6 -11 -35 -24 -63 -13 -28 -31 -76
-41 -106 -10 -30 -24 -69 -32 -87 -7 -17 -13 -34 -13 -37 0 -3 -11 -30 -25
-61 -13 -30 -24 -58 -24 -60 -1 -3 -23 -28 -51 -55 -27 -27 -50 -56 -50 -63 0
-7 -7 -22 -15 -33 -8 -10 -15 -26 -15 -34 0 -9 -11 -31 -23 -50 -13 -19 -26
-46 -29 -60 -3 -14 -11 -38 -16 -55 -6 -16 -23 -84 -38 -150 -27 -121 -48
-166 -101 -220 -16 -16 -38 -45 -48 -62 -11 -18 -22 -33 -26 -33 -10 0 -28
-78 -39 -174 -13 -109 -46 -182 -112 -247 -27 -26 -48 -52 -48 -57 0 -5 -10
-25 -23 -44 -13 -18 -26 -43 -30 -53 -3 -11 -20 -58 -37 -105 -18 -47 -42
-123 -55 -170 -22 -80 -29 -101 -61 -177 -8 -17 -14 -35 -14 -40 0 -6 -6 -23
-14 -39 -7 -16 -20 -44 -27 -61 -8 -18 -17 -33 -21 -33 -5 0 -8 -9 -8 -21 0
-11 -6 -33 -14 -47 -7 -15 -21 -52 -31 -82 -10 -30 -22 -59 -26 -64 -5 -6 -9
-18 -9 -28 0 -32 -42 -98 -85 -134 -41 -33 -75 -93 -75 -132 0 -9 -6 -28 -13
-43 -8 -14 -16 -47 -20 -75 -7 -62 -73 -234 -89 -234 -5 0 -8 -5 -8 -10 0 -18
-63 -140 -72 -140 -4 0 -8 -7 -8 -15 0 -9 -7 -18 -15 -21 -8 -4 -15 -14 -15
-23 0 -9 -18 -63 -40 -121 -22 -57 -40 -109 -40 -116 0 -6 -11 -37 -25 -68
-14 -31 -25 -64 -25 -74 0 -9 -7 -30 -15 -46 -8 -15 -15 -33 -15 -38 0 -6 -29
-57 -65 -115 -36 -57 -68 -117 -72 -133 -3 -17 -9 -30 -14 -30 -5 0 -9 -8 -9
-17 0 -10 -11 -40 -25 -67 -14 -27 -25 -57 -25 -65 -1 -30 -45 -167 -63 -194
-9 -14 -17 -33 -17 -40 0 -20 -42 -121 -52 -125 -4 -2 -8 -10 -8 -17 0 -7 -4
-15 -8 -17 -9 -4 -52 -114 -52 -134 0 -8 -8 -33 -18 -57 -11 -23 -27 -69 -37
-102 -9 -33 -21 -73 -26 -88 -4 -15 -17 -41 -29 -56 -11 -16 -20 -34 -20 -40
0 -6 -4 -11 -10 -11 -5 0 -10 -8 -10 -17 0 -10 -12 -29 -25 -42 -14 -13 -25
-29 -25 -36 0 -7 -7 -26 -15 -42 -33 -65 -75 -160 -75 -171 0 -7 -4 -12 -10
-12 -5 0 -10 -9 -10 -20 0 -11 -11 -48 -25 -82 -14 -34 -25 -69 -25 -77 0 -9
-6 -28 -14 -43 -8 -15 -17 -40 -21 -57 -4 -17 -11 -31 -16 -31 -4 0 -15 -13
-24 -29 -25 -49 -102 -131 -122 -131 -5 0 -20 -11 -34 -24 -14 -13 -40 -27
-57 -31 -18 -3 -32 -11 -32 -16 0 -5 -7 -9 -15 -9 -12 0 -60 -22 -208 -96 -32
-16 -257 -20 -257 -5 0 4 -28 11 -61 15 -34 3 -67 10 -73 15 -6 5 -44 13 -83
16 -40 4 -73 12 -73 16 0 5 -9 9 -20 9 -11 0 -20 4 -20 9 0 5 -13 12 -30 16
-16 4 -30 10 -30 15 0 5 -13 11 -30 15 -16 4 -30 11 -30 16 0 5 -11 9 -25 9
-14 0 -25 4 -25 9 0 5 -15 12 -32 16 -18 3 -42 10 -53 15 -11 5 -41 11 -67 15
-27 3 -48 10 -48 16 0 5 -7 9 -16 9 -8 0 -21 6 -28 13 -8 6 -23 19 -35 27 -12
8 -33 34 -47 58 -14 23 -29 42 -34 42 -8 0 -32 20 -102 88 -10 10 -61 60 -82
81 -25 26 -32 32 -55 51 -13 11 -28 20 -32 20 -4 0 -10 8 -14 19 -3 10 -16 30
-28 43 -29 31 -77 105 -77 117 0 6 -13 32 -30 58 -16 26 -30 53 -30 60 0 7 -4
13 -9 13 -5 0 -12 11 -15 24 -3 14 -14 27 -24 31 -17 5 -45 58 -57 108 -4 15
-11 27 -16 27 -5 0 -9 11 -9 24 0 14 -4 27 -9 30 -5 3 -12 27 -16 52 -4 26
-10 54 -15 63 -5 9 -20 52 -35 96 -15 44 -38 97 -51 117 -13 21 -24 44 -24 53
0 8 -4 15 -9 15 -13 0 -63 85 -91 155 -14 33 -33 75 -42 93 -10 18 -18 43 -18
55 0 13 -7 32 -15 43 -8 10 -15 25 -15 33 0 8 -11 37 -24 65 -12 28 -33 75
-46 104 -13 28 -27 52 -30 52 -4 0 -13 15 -20 33 -8 17 -19 39 -26 47 -6 8
-15 30 -19 48 -3 17 -11 32 -16 32 -5 0 -9 9 -9 19 0 11 -4 23 -10 26 -5 3
-10 16 -10 28 0 13 -6 31 -14 42 -7 11 -16 37 -20 58 -4 20 -11 37 -15 37 -5
0 -16 26 -26 58 -10 31 -21 61 -26 66 -5 6 -9 20 -9 32 0 12 -11 36 -25 52
-14 17 -25 33 -25 38 0 4 -7 14 -15 23 -88 96 -105 117 -105 129 0 55 -24 259
-31 266 -5 6 -9 19 -9 31 0 12 -7 30 -15 41 -8 10 -15 27 -15 36 0 9 -8 22
-17 27 -10 6 -14 11 -9 11 6 0 0 9 -12 20 -12 12 -22 27 -22 35 0 7 -3 15 -7
17 -15 6 -91 175 -118 263 -71 230 -79 248 -128 298 -18 19 -45 60 -62 93 -16
32 -33 61 -37 62 -5 2 -8 13 -8 25 0 12 -7 35 -15 51 -8 15 -15 37 -15 48 0
11 -6 34 -14 51 -30 71 -36 89 -36 108 0 34 -39 107 -60 114 -11 3 -20 9 -20
13 0 4 -16 24 -34 44 -18 21 -43 61 -54 90 -22 56 -52 203 -52 256 0 18 -4 32
-10 32 -5 0 -10 9 -10 20 0 11 -7 23 -15 26 -8 4 -15 12 -15 20 0 7 -11 24
-25 38 -14 14 -25 29 -25 34 0 6 -7 12 -15 16 -8 3 -15 12 -15 19 0 8 -11 27
-25 43 -14 16 -25 41 -25 56 0 15 -6 47 -14 70 -8 24 -16 61 -20 83 -6 46 -56
177 -93 250 -9 17 -23 44 -31 60 -9 17 -18 32 -21 35 -12 10 -91 175 -91 190
0 8 -11 37 -24 65 -14 27 -39 88 -57 135 -18 47 -35 87 -39 90 -3 3 -16 29
-29 58 -14 28 -27 52 -30 52 -3 0 -12 15 -19 33 -7 17 -24 56 -38 85 -13 29
-24 60 -24 70 0 10 -7 27 -15 38 -8 10 -15 25 -15 33 0 8 -11 37 -25 65 -23
49 -35 88 -56 186 -11 52 -31 100 -41 100 -5 0 -8 13 -8 29 0 16 -7 36 -15 45
-8 8 -15 17 -15 21 0 3 -10 16 -21 28 -45 47 -139 205 -139 234 0 14 -50 139
-70 175 -6 10 -10 25 -10 33 0 8 -12 39 -27 67 -42 82 -50 101 -57 132 -12 51
-104 246 -116 246 -4 0 -11 11 -14 25 -4 14 -11 25 -16 25 -6 0 -10 6 -10 13
-1 27 -113 127 -186 164 -33 17 -48 19 -80 13 -21 -5 -70 -16 -109 -24 -38 -8
-77 -17 -85 -20 -8 -3 -31 -7 -50 -10 -19 -3 -62 -10 -95 -16 -100 -17 -134
-13 -184 20 -25 16 -58 43 -74 59 -34 37 -117 189 -117 216 0 11 -13 47 -29
80 -26 54 -28 65 -20 110 22 131 27 196 19 285 -17 188 -40 396 -50 460 -32
197 -33 213 -13 250 21 41 23 44 63 91 16 20 30 46 30 58 0 11 4 21 8 21 4 0
15 12 24 28 29 49 104 121 134 128 16 4 35 12 43 18 10 7 95 11 270 10 141 -1
661 -4 1156 -6 495 -2 1010 -5 1145 -6 135 0 333 3 440 8 176 8 217 14 285 41
11 4 29 10 40 12 29 6 159 -5 165 -13z"/>
<path d="M5725 21410 c-160 -8 -266 -20 -360 -40 -22 -5 -67 -12 -100 -15 -61
-6 -78 -10 -175 -40 -67 -21 -220 -94 -220 -105 0 -5 -18 -11 -40 -15 -22 -4
-40 -10 -40 -15 0 -4 -14 -10 -32 -14 -30 -6 -85 -29 -188 -80 -79 -40 -89
-48 -95 -88 -4 -21 -11 -38 -16 -38 -5 0 -9 -7 -9 -15 0 -8 -4 -15 -9 -15 -5
0 -11 -8 -13 -18 -5 -18 -95 -58 -145 -65 -12 -2 -25 -6 -28 -9 -3 -3 -24 -2
-46 2 -37 7 -41 6 -52 -19 -6 -14 -15 -28 -18 -31 -4 -3 -9 -32 -12 -65 -7
-86 -17 -116 -46 -145 -31 -31 -70 -47 -131 -54 -25 -4 -47 -11 -48 -16 -2 -6
-10 -17 -18 -24 -8 -8 -14 -18 -14 -23 0 -5 -13 -20 -30 -33 -16 -14 -29 -30
-30 -37 0 -16 -87 -101 -111 -108 -10 -4 -19 -12 -19 -20 0 -7 -7 -26 -15 -41
-8 -16 -15 -39 -15 -51 0 -13 -4 -23 -9 -23 -5 0 -11 -10 -15 -22 -10 -40 -58
-58 -150 -58 -79 0 -85 -2 -115 -30 -23 -23 -31 -39 -31 -65 0 -19 -4 -35 -9
-35 -5 0 -12 -27 -16 -60 -4 -33 -11 -63 -16 -66 -5 -3 -9 -18 -9 -35 0 -16
-5 -29 -10 -29 -6 0 -9 -3 -8 -7 4 -15 -13 -82 -27 -110 -8 -15 -15 -36 -15
-45 0 -10 -3 -18 -7 -18 -5 0 -17 -19 -28 -43 -11 -23 -26 -48 -32 -55 -7 -7
-13 -20 -13 -27 0 -8 -9 -30 -19 -49 -11 -19 -23 -51 -27 -70 -3 -20 -10 -36
-14 -36 -5 0 -12 -25 -15 -55 -4 -30 -11 -58 -16 -61 -5 -3 -9 -14 -9 -25 0
-10 -4 -19 -9 -19 -4 0 -11 -27 -15 -60 -4 -33 -11 -60 -16 -60 -4 0 -12 -29
-15 -65 -4 -36 -11 -68 -16 -71 -5 -3 -9 -16 -9 -29 0 -13 -4 -26 -9 -29 -5
-3 -12 -43 -16 -88 -4 -46 -11 -87 -15 -93 -4 -5 -10 -41 -13 -79 -4 -38 -11
-74 -17 -80 -13 -13 -14 -623 -1 -628 5 -1 12 -52 15 -113 4 -60 10 -112 15
-115 4 -3 11 -52 15 -110 3 -58 11 -106 16 -108 6 -2 10 -19 10 -37 0 -19 4
-36 9 -40 6 -3 13 -37 17 -75 4 -39 10 -73 15 -76 5 -2 11 -27 15 -55 4 -27
11 -52 15 -55 5 -3 9 -16 9 -30 0 -13 4 -24 9 -24 5 0 12 -25 16 -55 3 -30 10
-55 15 -55 4 0 11 -20 14 -45 4 -25 11 -45 17 -45 5 0 9 -6 9 -13 0 -23 25
-67 38 -67 6 0 12 -3 12 -8 0 -4 13 -13 29 -20 35 -15 75 -51 84 -75 3 -9 11
-17 17 -17 5 0 10 -7 10 -15 0 -8 4 -15 9 -15 5 0 12 -13 16 -30 4 -16 10 -30
14 -30 11 0 41 -91 42 -125 0 -16 4 -39 8 -50 6 -15 9 -11 14 22 7 43 32 65
40 35 3 -10 5 -5 6 11 1 30 17 37 24 10 4 -17 5 -17 6 0 2 31 21 18 22 -15 0
-27 2 -29 8 -13 6 15 10 9 16 -30 6 -39 9 -46 16 -30 6 17 8 17 8 3 1 -10 5
-18 10 -18 5 0 13 -9 16 -20 4 -11 10 -18 15 -15 4 3 11 -2 14 -11 3 -8 10
-13 15 -10 5 3 11 -1 15 -9 3 -8 14 -15 25 -15 10 0 21 -7 25 -15 3 -8 11 -15
18 -15 7 0 22 -11 32 -25 10 -14 25 -25 32 -25 8 0 14 -7 14 -15 0 -8 5 -15
10 -15 6 0 10 -7 10 -16 0 -9 5 -12 12 -8 8 5 9 2 5 -9 -3 -9 -2 -19 3 -22 12
-7 1 -57 -14 -67 -8 -6 -8 -8 1 -8 8 0 8 -7 0 -30 -6 -16 -15 -30 -19 -30 -4
0 -8 -7 -8 -15 0 -8 5 -15 10 -15 6 0 10 -6 10 -14 0 -8 3 -16 8 -18 12 -5 47
-60 68 -105 11 -25 24 -41 32 -38 6 2 12 -1 12 -8 0 -7 5 -4 11 5 8 15 21 17
92 12 46 -3 85 -11 89 -17 5 -8 8 -7 8 3 0 10 3 11 8 4 4 -6 17 -15 30 -18 32
-11 80 -60 88 -90 3 -14 11 -26 18 -26 6 0 4 -5 -4 -10 -10 -6 -11 -10 -2 -10
8 0 12 -16 12 -48 l0 -48 -42 2 c-23 1 -44 7 -46 13 -9 26 -32 9 -38 -29 -4
-22 -10 -40 -15 -40 -5 0 -9 -7 -9 -15 0 -8 4 -15 8 -15 5 0 14 -12 21 -26 9
-20 15 -23 24 -15 8 6 45 13 83 17 38 4 75 11 82 17 10 8 16 7 21 -2 6 -10 14
-10 28 -3 22 12 36 0 69 -59 10 -19 23 -37 27 -40 4 -3 11 -38 14 -77 5 -62 9
-72 25 -72 10 0 21 -7 24 -15 4 -8 12 -15 20 -15 8 0 14 -4 14 -9 0 -5 16 -12
35 -15 19 -4 35 -11 35 -16 0 -4 14 -11 30 -15 17 -4 30 -11 30 -16 0 -5 7 -9
15 -9 8 0 15 -4 15 -9 0 -5 16 -12 35 -15 19 -4 35 -11 35 -16 0 -4 14 -11 30
-15 17 -4 30 -11 30 -16 0 -5 7 -9 15 -9 8 0 15 -4 15 -9 0 -5 23 -12 50 -16
28 -4 50 -11 50 -16 0 -5 18 -12 40 -15 22 -4 40 -10 40 -15 0 -5 11 -9 24 -9
13 0 26 -4 28 -10 2 -5 37 -13 78 -16 41 -4 77 -11 80 -15 3 -4 58 -11 123
-15 64 -4 117 -11 117 -15 0 -5 41 -9 90 -9 53 0 90 -4 90 -10 0 -6 81 -10
224 -10 139 0 227 4 231 10 3 6 46 10 95 10 49 0 91 4 94 9 3 4 49 11 103 15
53 4 102 10 107 15 6 5 38 12 70 16 57 7 66 9 112 33 12 6 38 14 58 17 20 4
36 11 36 15 0 5 18 11 40 15 22 4 40 11 40 16 0 5 11 9 25 9 14 0 25 4 25 9 0
5 23 12 50 16 28 4 50 10 50 15 0 4 20 11 45 14 25 4 45 11 45 17 0 5 11 9 25
9 14 0 25 4 25 9 0 5 18 11 40 15 22 3 40 11 40 16 0 6 9 10 20 10 10 0 30 11
43 24 13 13 38 27 55 30 26 6 31 13 37 47 4 21 11 39 16 39 5 0 9 5 9 10 0 6
4 16 10 23 35 43 59 67 68 67 6 0 17 6 24 13 25 22 57 37 98 43 22 4 43 11 46
15 3 5 16 9 30 9 15 0 24 6 24 15 0 17 18 52 38 73 6 7 12 22 12 33 0 10 4 19
10 19 5 0 12 11 16 25 3 14 10 25 14 25 5 0 11 8 14 18 12 37 61 79 99 86 20
4 37 11 37 15 0 5 11 12 25 15 14 4 25 11 25 16 0 6 6 10 14 10 8 0 16 3 18 8
2 4 21 19 43 34 74 49 165 131 165 148 0 12 99 110 110 110 5 0 11 8 14 18 3
9 26 28 50 41 46 25 69 64 94 156 36 131 46 165 60 208 9 26 20 47 24 47 4 0
8 5 8 12 0 12 31 85 53 123 35 63 67 130 67 142 0 7 3 13 8 13 8 0 32 48 32
64 0 6 7 23 14 38 8 16 18 49 21 75 4 27 10 57 14 68 21 52 35 105 42 160 5
33 16 98 24 145 9 47 20 108 24 136 5 29 12 60 15 70 3 11 12 98 21 194 17
202 20 472 5 615 -17 166 -30 267 -40 320 -13 68 -37 206 -50 285 -11 66 -26
122 -41 152 -5 10 -9 30 -9 45 0 32 -37 145 -62 191 -10 18 -18 39 -18 46 0 7
-6 19 -14 25 -8 7 -18 26 -21 42 -4 16 -11 29 -16 29 -5 0 -9 7 -9 15 0 8 -3
15 -8 15 -4 0 -18 28 -32 63 -13 34 -32 75 -42 92 -10 16 -20 49 -24 72 -3 24
-10 43 -14 43 -4 0 -10 21 -14 48 -8 61 -53 184 -70 194 -26 14 -162 142 -218
203 -15 17 -32 35 -37 40 -6 6 -25 25 -43 43 -61 60 -83 79 -133 113 -27 19
-56 40 -63 47 -8 6 -22 17 -33 22 -10 6 -19 15 -19 21 0 5 -11 21 -25 35 -14
14 -25 31 -25 39 0 8 -3 15 -8 15 -4 0 -16 20 -27 45 -11 25 -23 45 -26 45 -4
0 -9 13 -12 30 -5 23 -17 34 -54 52 -26 12 -54 28 -61 35 -7 7 -19 13 -27 13
-7 0 -15 3 -17 8 -1 4 -19 15 -38 25 -19 10 -73 49 -120 87 -47 38 -91 69 -97
70 -7 0 -13 4 -13 9 0 5 -8 11 -17 14 -10 3 -34 15 -53 26 -63 36 -144 71
-180 77 -19 4 -39 10 -45 14 -5 4 -26 11 -45 15 -34 8 -45 12 -87 33 -12 7
-40 15 -63 18 -22 4 -40 10 -40 15 0 5 -6 9 -14 9 -7 0 -40 12 -71 26 -60 26
-104 38 -210 56 -33 6 -69 14 -80 19 -78 32 -499 52 -800 39z"/>
<path d="M26665 21420 c-27 -5 -111 -14 -185 -20 -74 -6 -162 -15 -195 -19
-120 -17 -200 -32 -220 -41 -11 -5 -38 -11 -60 -14 -22 -3 -58 -14 -80 -24
-45 -22 -160 -62 -175 -62 -6 0 -29 -8 -53 -19 -23 -10 -76 -28 -117 -40 -41
-12 -98 -33 -126 -47 -28 -13 -56 -24 -62 -24 -7 0 -12 -4 -12 -10 0 -5 -9
-10 -19 -10 -11 0 -32 -10 -48 -23 -15 -13 -35 -26 -43 -29 -8 -3 -25 -25 -37
-49 -43 -85 -95 -121 -259 -179 -34 -12 -77 -36 -95 -53 -45 -43 -76 -61 -124
-77 -49 -16 -95 -41 -95 -53 0 -5 -11 -18 -25 -29 -14 -11 -25 -26 -25 -34 0
-8 -4 -14 -9 -14 -5 0 -13 -13 -19 -28 -11 -31 -92 -161 -119 -191 -10 -10
-34 -37 -53 -60 -50 -59 -183 -191 -192 -191 -4 0 -8 -7 -8 -15 0 -8 -7 -15
-15 -15 -23 0 -42 -39 -56 -110 -17 -91 -70 -243 -123 -347 -17 -35 -37 -75
-44 -90 -7 -16 -17 -35 -23 -43 -34 -55 -109 -235 -109 -264 0 -9 -7 -42 -15
-74 -48 -192 -65 -270 -85 -407 -5 -38 -15 -101 -21 -140 -23 -151 -38 -326
-39 -455 0 -127 22 -418 35 -450 3 -8 9 -55 14 -105 5 -49 15 -117 21 -150 15
-80 58 -279 72 -335 6 -25 14 -65 19 -90 5 -25 18 -63 28 -85 10 -22 26 -64
36 -92 11 -29 23 -53 27 -53 4 0 8 -7 8 -15 0 -8 5 -15 10 -15 6 0 10 -8 10
-17 0 -10 9 -29 20 -43 11 -14 20 -32 20 -40 0 -8 9 -26 20 -40 11 -14 20 -31
20 -39 0 -8 8 -32 18 -55 27 -59 68 -191 82 -264 12 -60 36 -102 58 -102 13 0
107 -93 142 -140 14 -19 33 -42 43 -52 9 -10 17 -22 17 -28 0 -18 37 -48 69
-55 17 -4 31 -11 31 -16 0 -5 6 -9 14 -9 8 0 16 -3 18 -7 2 -5 23 -19 48 -32
83 -45 256 -220 274 -278 4 -13 11 -23 16 -23 5 0 16 -20 26 -45 9 -25 23 -45
30 -45 8 0 14 -4 14 -9 0 -5 25 -12 55 -16 30 -3 55 -11 55 -16 0 -5 9 -9 20
-9 11 0 20 -4 20 -9 0 -5 11 -12 25 -15 14 -4 25 -11 25 -16 0 -6 6 -10 13
-10 24 -1 56 -38 84 -98 22 -49 33 -63 55 -68 16 -3 28 -10 28 -15 0 -5 7 -9
15 -9 8 0 15 -4 15 -9 0 -5 14 -12 30 -16 17 -4 30 -10 30 -15 0 -4 18 -11 40
-15 22 -4 40 -11 40 -16 0 -5 11 -9 25 -9 14 0 25 -4 25 -9 0 -5 20 -12 45
-15 25 -4 45 -11 45 -16 0 -5 23 -12 50 -16 28 -4 50 -10 50 -15 0 -5 11 -9
25 -9 14 0 25 -4 25 -9 0 -5 18 -12 40 -16 22 -4 40 -10 40 -15 0 -5 18 -11
40 -15 22 -4 40 -11 40 -16 0 -5 11 -9 25 -9 14 0 25 -4 25 -9 0 -4 33 -12 72
-16 40 -3 76 -11 79 -16 3 -6 47 -13 97 -16 51 -3 92 -10 92 -14 0 -5 31 -9
69 -9 42 0 71 -4 73 -11 5 -16 596 -15 611 0 6 6 47 11 93 11 46 0 85 4 88 9
4 5 49 12 101 16 52 4 95 11 95 15 0 4 28 10 62 14 34 3 67 11 72 16 6 6 20
10 33 10 13 0 23 5 23 10 0 6 11 10 24 10 14 0 31 7 39 15 8 7 28 17 43 21 16
4 36 15 44 24 8 10 30 21 48 24 17 4 32 12 32 16 0 5 16 12 35 16 19 3 35 10
35 15 0 5 9 9 20 9 11 0 20 4 20 9 0 5 18 11 40 15 22 3 40 10 40 15 0 5 14
12 30 16 17 4 30 11 30 16 0 5 9 9 20 9 11 0 20 4 20 8 0 4 13 13 29 19 28 10
29 13 21 49 -10 45 -3 111 14 139 14 22 30 75 27 89 -1 4 4 14 10 22 6 8 9 14
5 14 -4 0 0 13 9 30 8 16 16 33 17 37 5 26 24 63 31 63 4 0 5 5 2 10 -3 6 -1
10 4 10 6 0 11 7 11 15 0 8 5 15 10 15 6 0 10 7 10 15 0 8 5 15 11 15 5 0 7 5
4 10 -3 6 -1 10 4 10 6 0 11 6 11 14 0 7 14 16 31 20 17 3 28 10 24 16 -3 5
-1 10 5 10 6 0 26 11 44 25 18 14 38 25 45 25 6 0 24 8 38 18 18 11 24 12 19
4 -7 -12 -4 -12 15 -1 27 15 132 14 137 -1 2 -6 12 -10 21 -10 12 0 28 21 48
61 l30 61 -18 38 c-11 22 -20 47 -22 57 -1 10 -6 24 -11 31 -4 7 -3 19 3 26 6
7 12 22 14 34 3 21 70 91 116 122 57 38 98 91 86 110 -3 6 -1 10 4 10 6 0 11
7 11 15 0 8 4 15 9 15 5 0 13 14 16 32 4 17 11 36 16 42 37 44 60 66 69 66 5
0 10 8 11 18 0 10 3 12 6 5 2 -7 11 -13 18 -13 8 0 20 -7 29 -15 9 -9 17 -11
21 -5 9 15 25 12 25 -5 0 -8 5 -15 10 -15 6 0 15 -12 21 -27 13 -34 21 -23 48
63 12 39 30 80 41 92 11 12 20 25 20 30 0 6 8 12 18 16 24 8 54 28 73 48 9 10
30 21 48 24 23 5 33 13 37 33 3 14 12 38 20 53 8 14 14 34 14 43 0 16 19 67
41 107 5 10 9 28 9 40 0 13 6 43 14 68 35 109 57 189 65 235 5 28 14 63 20 78
6 16 11 45 11 65 0 20 12 93 26 162 22 110 26 159 31 405 5 287 -3 440 -32
565 -8 36 -18 94 -21 130 -4 36 -13 82 -20 104 -8 21 -14 48 -14 59 0 12 -11
57 -24 101 -13 45 -31 110 -40 146 -10 36 -23 83 -31 105 -28 82 -38 111 -47
131 -6 12 -13 37 -17 55 -5 25 -13 35 -29 37 -12 2 -22 8 -22 13 0 5 -5 9 -11
9 -24 0 -120 96 -143 144 -27 54 -67 153 -70 173 -1 7 -6 16 -11 20 -4 4 -6 4
-3 -2 8 -14 -10 -57 -21 -51 -5 3 -12 -2 -15 -11 -6 -15 -8 -15 -16 -3 -6 9
-21 14 -41 12 -35 -4 -62 18 -73 61 -3 15 -10 27 -15 27 -5 0 -12 14 -16 30
-4 17 -11 30 -16 30 -5 0 -8 3 -7 8 5 16 -13 92 -21 92 -6 0 -9 8 -8 18 0 9
-17 44 -40 77 -22 33 -44 75 -48 93 -4 18 -13 36 -21 39 -8 3 -12 9 -9 13 3 4
-6 19 -20 32 -24 25 -95 167 -95 192 0 7 -7 21 -16 32 -8 10 -12 12 -8 4 7
-13 5 -13 -9 -1 -9 7 -17 9 -17 4 0 -11 -43 -12 -50 -2 -3 4 -17 10 -32 13
-36 6 -76 34 -83 57 -4 10 -10 19 -14 19 -4 0 -8 43 -10 96 -1 68 -7 101 -17
111 -8 8 -14 18 -14 22 0 5 -30 -2 -67 -14 -46 -16 -74 -20 -89 -15 -12 5 -25
6 -28 3 -3 -4 -6 -1 -6 5 0 6 -12 13 -27 16 -30 7 -73 69 -73 105 0 11 -4 22
-9 25 -5 3 -12 22 -16 42 -7 38 -25 64 -44 64 -6 0 -11 5 -11 10 0 6 -5 10
-11 10 -5 0 -47 18 -92 39 -46 22 -96 43 -112 47 -16 4 -40 13 -54 20 -14 8
-32 14 -38 14 -7 0 -13 5 -13 10 0 6 -6 10 -14 10 -7 0 -19 7 -26 15 -7 8 -21
15 -31 15 -11 0 -19 5 -19 10 0 6 -9 10 -19 10 -11 0 -26 7 -35 15 -8 8 -21
15 -30 15 -8 0 -18 5 -21 10 -3 6 -15 10 -25 10 -11 0 -39 7 -64 15 -25 9 -80
20 -123 25 -92 11 -182 26 -203 34 -8 3 -109 10 -225 17 -115 6 -230 12 -255
14 -25 2 -67 -1 -95 -5z"/>
<path d="M28504 15445 c-4 -8 -12 -15 -20 -15 -8 0 -14 -4 -14 -9 0 -5 -8 -12
-17 -14 -14 -4 -12 -5 5 -6 12 0 22 -5 22 -10 0 -16 54 -20 71 -5 14 13 15 20
6 45 -12 31 -44 40 -53 14z"/>
<path d="M32583 20569 c-44 -43 -44 -40 -6 -81 53 -57 63 -51 63 42 0 44 -3
80 -8 80 -4 0 -26 -18 -49 -41z"/>
</g>
</svg>
