<?xml version="1.0" standalone="no"?>
<!DOCTYPE svg PUBLIC "-//W3C//DTD SVG 20010904//EN"
 "http://www.w3.org/TR/2001/REC-SVG-20010904/DTD/svg10.dtd">
<svg version="1.0" xmlns="http://www.w3.org/2000/svg"
 width="512.000000pt" height="512.000000pt" viewBox="0 0 512.000000 512.000000"
 preserveAspectRatio="xMidYMid meet">
 <title>icon by 4k17</title>

<g transform="translate(0.000000,512.000000) scale(0.100000,-0.100000)" fill="#000000" stroke="none">
<path d="M562 4170 c-29 -10 -67 -28 -86 -39 -54 -34 -135 -127 -164 -188 l-27 -58 0 -1330 0 -1330 32 -66 c40 -81 129 -169 210 -207 l58 -27 1976 0 1975 0 76 37 c114 57 191 150 222 273 14 52 16 213 16 1320 0 1377 2 1318 -57 1428 -34 62 -117 138 -191 174 l-57 28 -1965 2 c-1910 2 -1966 2 -2018 -17z m3962 -150 c35 -14 68 -36 95 -65 77 -83 71 29 71 -1393 0 -948 -3 -1285 -12 -1314 -15 -50 -78 -122 -132 -151 l-41 -22 -1940 0 -1940 0 -54 30 c-66 36 -116 102 -131 170 -8 35 -10 425 -8 1310 l3 1260 31 55 c32 58 99 112 158 129 18 5 827 10 1938 10 1895 1 1908 1 1962 -19z"/>
<path d="M705 3876 c-76 -33 -92 -120 -33 -183 45 -49 133 -37 169 21 57 94 -37 206 -136 162z"/>
<path d="M1062 3873 c-60 -29 -82 -115 -42 -165 67 -86 200 -42 200 66 0 50 -21 83 -66 102 -42 18 -51 17 -92 -3z"/>
<path d="M1440 3879 c-94 -38 -104 -157 -16 -204 91 -49 199 53 152 144 -28 52 -88 79 -136 60z"/>
<path d="M2432 3415 c-143 -31 -289 -133 -370 -257 -222 -343 -53 -796 343 -914 81 -24 239 -24 320 0 335 100 521 451 411 774 -99 292 -401 462 -704 397z m302 -178 c131 -60 216 -155 256 -284 34 -112 20 -245 -37 -342 l-25 -43 -29 35 c-52 64 -70 67 -333 67 -266 0 -283 -3 -334 -66 l-31 -38 -36 76 c-117 246 17 537 284 614 76 22 216 12 285 -19z"/>
<path d="M2485 3116 c-39 -18 -80 -62 -99 -108 -52 -124 42 -261 179 -261 169 0 254 193 142 320 -18 20 -46 42 -64 49 -41 18 -119 17 -158 0z"/>
<path d="M1209 1961 c-17 -13 -23 -29 -23 -56 0 -27 6 -43 23 -56 22 -18 69 -19 1360 -19 l1338 0 21 23 c31 33 29 80 -4 106 l-27 21 -1332 0 c-1287 0 -1334 -1 -1356 -19z"/>
<path d="M1642 1597 c-29 -31 -28 -72 3 -102 l24 -25 896 0 896 0 24 25 c32 31 33 74 2 103 l-23 22 -900 0 -901 0 -21 -23z"/>
</g>
</svg>
